<?xml version="1.0" encoding="utf-8"?>
<!-- Generator: Adobe Illustrator 24.0.2, SVG Export Plug-In . SVG Version: 6.00 Build 0)  -->
<svg version="1.1" id="ÉåÉCÉÑÅ_x5B__x5F_1" xmlns="http://www.w3.org/2000/svg" xmlns:xlink="http://www.w3.org/1999/xlink"
	 x="0px" y="0px" viewBox="0 0 595.28 841.89" style="enable-background:new 0 0 595.28 841.89;" xml:space="preserve">
<style type="text/css">
	.st0{fill:#3D54A1;}
	.st1{fill:#004899;}
	.st2{fill:none;stroke:#FFFFFF;stroke-width:0.5;}
</style>
<path class="st0" d="M245.66,421.23c-3.77,0-6.83,3.07-6.83,6.83v25.11c0,3.77,3.07,6.83,6.83,6.83h28.25
	c3.77,0,6.83-3.07,6.83-6.83v-25.11c0-3.77-3.07-6.83-6.83-6.83H245.66z"/>
<path class="st1" d="M273.91,420.67h-28.25c-4.07,0-7.39,3.31-7.39,7.39v25.11c0,4.07,3.31,7.39,7.39,7.39h28.25
	c4.07,0,7.39-3.31,7.39-7.39v-25.11C281.3,423.99,277.99,420.67,273.91,420.67L273.91,420.67z M239.38,428.06
	c0-3.45,2.83-6.28,6.28-6.28h28.25c3.45,0,6.28,2.83,6.28,6.28v25.11l0,0l0,0c0,3.45-2.83,6.28-6.28,6.28h-28.25
	c-3.45,0-6.28-2.83-6.28-6.28V428.06L239.38,428.06L239.38,428.06z"/>
<g>
	<line class="st2" x1="252.72" y1="459.45" x2="252.72" y2="421.78"/>
	<line class="st2" x1="252.72" y1="440.62" x2="239.38" y2="440.62"/>
	<line class="st2" x1="239.38" y1="448.46" x2="252.72" y2="448.46"/>
	<line class="st2" x1="266.85" y1="448.46" x2="280.19" y2="448.46"/>
	<line class="st2" x1="252.72" y1="432.77" x2="239.38" y2="432.77"/>
	<line class="st2" x1="266.85" y1="440.62" x2="280.19" y2="440.62"/>
	<polyline class="st2" points="266.85,459.45 266.85,432.77 280.19,432.77 	"/>
</g>
</svg>
