<svg width="19" height="21" viewBox="0 0 19 21" fill="none" xmlns="http://www.w3.org/2000/svg">
<path d="M3.99609 0.996094L0 1.01367L0.00976562 3.01367L1.99609 3.00391V13C1.99609 14.645 3.35112 16 4.99609 16H18.9961V14H4.99609C4.43106 14 3.99609 13.565 3.99609 13V0.996094ZM7.99609 2V6H17.9961V2H7.99609ZM5.99609 8V12H16.9961V8H5.99609ZM5.99609 17C5.46566 17 4.95695 17.2107 4.58188 17.5858C4.20681 17.9609 3.99609 18.4696 3.99609 19C3.99609 19.5304 4.20681 20.0391 4.58188 20.4142C4.95695 20.7893 5.46566 21 5.99609 21C6.52653 21 7.03523 20.7893 7.41031 20.4142C7.78538 20.0391 7.99609 19.5304 7.99609 19C7.99609 18.4696 7.78538 17.9609 7.41031 17.5858C7.03523 17.2107 6.52653 17 5.99609 17ZM15.9961 17C15.4657 17 14.957 17.2107 14.5819 17.5858C14.2068 17.9609 13.9961 18.4696 13.9961 19C13.9961 19.5304 14.2068 20.0391 14.5819 20.4142C14.957 20.7893 15.4657 21 15.9961 21C16.5265 21 17.0352 20.7893 17.4103 20.4142C17.7854 20.0391 17.9961 19.5304 17.9961 19C17.9961 18.4696 17.7854 17.9609 17.4103 17.5858C17.0352 17.2107 16.5265 17 15.9961 17Z" fill="#474747"/>
</svg>
