<?xml version="1.0" encoding="utf-8"?>
<!-- Generator: Adobe Illustrator 24.1.1, SVG Export Plug-In . SVG Version: 6.00 Build 0)  -->
<svg version="1.1" id="f7dcc58f-beb5-4050-9d04-9a029c12a87b"
	 xmlns="http://www.w3.org/2000/svg" xmlns:xlink="http://www.w3.org/1999/xlink" x="0px" y="0px" viewBox="0 0 960 795"
	 style="enable-background:new 0 0 960 795;" xml:space="preserve">
<style type="text/css">
	.st0{fill:#F2F2F2;}
	.st1{fill:#3752F5;}
	.st2{fill:#3F3D56;}
	.st3{opacity:0.1;enable-background:new    ;}
	.st4{fill:#A8A8A8;}
	.st5{opacity:0.2;enable-background:new    ;}
	.st6{fill:#FFB9B9;}
	.st7{fill:#FF6584;}
	.st8{fill:#2F2E41;}
	.st9{fill:#FFFFFF;}
</style>
<path class="st0" d="M848.8,454.4c-5.3,45.1-16.2,81.4-31.3,110.3c-20,38.5-54.2,54-84.8,70.3c-8.8,4.7-18,8.7-27.5,11.9
	c-55.6,19.3-117.8,14.2-166.7,4c-34.3-7.2-69.1-11.6-104.1-13.2c-10-0.4-20-0.7-30-0.7c-15.4,0-293.1,5.3-360.7-131.6
	c-16.7-33.8-28.1-75-32.2-125.3C0,238.2,63.9,144.8,146.4,83.8c156-115.4,369.8-110.6,523.4,7.9C772.2,170.6,868,290,848.8,454.4z"
	/>
<path class="st1" d="M300,413.3c0,113-67.2,152.4-150,152.4S0,526.3,0,413.3s150-256.7,150-256.7S300,300.3,300,413.3z"/>
<polygon class="st2" points="144.5,548.4 146.1,453.9 210,336.9 146.3,439.1 147,396.5 191.1,311.9 147.2,385.3 147.2,385.3 
	148.4,308.8 195.6,241.5 148.6,296.8 149.4,156.6 144.5,342.2 144.9,334.6 97,261.1 144.2,349.3 139.7,434.6 139.6,432.4 
	84.2,355.1 139.4,440.4 138.8,451.1 138.7,451.2 138.8,452.1 127.4,668.7 142.6,668.7 144.4,556.8 199.4,471.8 "/>
<path class="st1" d="M960,420.3c0,113-67.2,152.4-150,152.4s-150-39.4-150-152.4s150-256.7,150-256.7S960,307.3,960,420.3z"/>
<polygon class="st2" points="804.5,555.4 806.1,460.9 870,343.9 806.3,446.1 807,403.5 851.1,318.9 807.2,392.3 807.2,392.3 
	808.4,315.8 855.6,248.5 808.6,303.8 809.4,163.6 804.5,349.2 804.9,341.6 757,268.1 804.2,356.3 799.7,441.6 799.6,439.4 
	744.2,362.1 799.4,447.4 798.8,458.1 798.7,458.2 798.8,459.1 787.4,675.7 802.6,675.7 804.4,563.8 859.4,478.8 "/>
<path class="st1" d="M648,324.4C648,447.9,574.6,491,484,491s-164-43.1-164-166.6S484,43.7,484,43.7S648,200.8,648,324.4z"/>
<polygon class="st2" points="478,472.1 479.7,368.7 549.6,240.9 480,352.5 480.7,306 528.9,213.5 480.9,293.7 480.9,293.7 
	482.3,210.1 533.9,136.5 482.5,197 483.3,43.7 478,246.6 478.4,238.3 426,158 477.6,254.3 472.7,347.7 472.6,345.2 412.1,260.7 
	472.4,354 471.8,365.6 471.7,365.8 471.7,366.8 459.3,603.6 475.9,603.6 477.9,481.3 538,388.3 "/>
<path class="st2" d="M832,686c0,26.5-173.7,109-388,109S56,712.5,56,686s159.7-86,374-86S832,659.5,832,686z"/>
<path class="st3" d="M832,686c0,26.5-173.7,109-388,109S56,712.5,56,686s159.7-86,374-86S832,659.5,832,686z"/>
<path class="st2" d="M832,686c0,26.5-173.7,48-388,48S56,712.5,56,686s159.7-86,374-86S832,659.5,832,686z"/>
<path class="st2" d="M574.4,553.1c0,38,23.9,68.8,53.3,68.8"/>
<path class="st1" d="M627.8,621.9c0-38.5,26.6-69.6,59.5-69.6"/>
<path class="st1" d="M593.8,556.5c0,36.1,15.2,65.4,34,65.4"/>
<path class="st2" d="M627.8,621.9c0-49.1,30.8-88.9,68.8-88.9"/>
<path class="st4" d="M616.5,622.3c0,0,7.6-0.2,9.8-1.9s11.6-3.6,12.2-1s11.4,12.9,2.8,13s-19.8-1.3-22.1-2.7
	S616.5,622.3,616.5,622.3z"/>
<path class="st5" d="M641.6,631.6c-8.5,0.1-19.8-1.3-22.1-2.7c-1.7-1.1-2.4-4.8-2.7-6.6c-0.2,0-0.3,0-0.3,0s0.5,6.1,2.8,7.5
	s13.6,2.8,22.1,2.7c2.5,0,3.3-0.9,3.3-2.2C644.3,631.1,643.4,631.6,641.6,631.6z"/>
<ellipse class="st3" cx="449" cy="681" rx="132" ry="21"/>
<rect x="494" y="634" class="st6" width="13" height="30"/>
<rect x="458" y="229" class="st7" width="50" height="90"/>
<polygon class="st6" points="544.7,399.3 546.5,413.2 500.9,427 495.1,401.6 "/>
<path class="st6" d="M477.2,266.1c0,0-1.2,10.4-3.5,10.4s-10.4,4-10.4,4l-2.3,11l16.2,9.8l26.5-2.9l7.5-11.5l-7.5-7.5
	c0,0-6.3-13.8-4-16.7S477.2,266.1,477.2,266.1z"/>
<path class="st3" d="M477.2,266.1c0,0-1.2,10.4-3.5,10.4s-10.4,4-10.4,4l-2.3,11l16.2,9.8l26.5-2.9l7.5-11.5l-7.5-7.5
	c0,0-6.3-13.8-4-16.7S477.2,266.1,477.2,266.1z"/>
<path class="st6" d="M405.1,625.4c0,0-5.2,34.6-11.5,36.9s24.2,6.3,24.2,6.3l2.3-12.7c0,0,0.6-23.1,2.9-26.5
	S405.1,625.4,405.1,625.4z"/>
<path class="st8" d="M464,424.1c0,0,83.6-15,84.2-17.9s17.3,21.9,6.9,70.4s-36.3,162.7-36.3,162.7s-26.5,8.1-26,1.7
	s9.2-116.5,9.2-116.5l-5.8-46.7l-9.8,5.8l-41,80.8l-20.8,69.8c0,0-26.5,4.6-22.5-5.2s17.3-86,17.3-86l36.3-107.3
	C455.9,435.7,454.7,424.1,464,424.1z"/>
<circle class="st6" cx="485" cy="249.6" r="24.2"/>
<path class="st0" d="M510.1,279.9c0,0-11.5,11-38.6,8.1s7.5,61.7,7.5,61.7l11,65.2c0,0,48.5-5.8,50.2-16.7S510.1,279.9,510.1,279.9z
	"/>
<path class="st8" d="M498.6,341.6c0,0-13.8-6.9-19-26s-9.8-38.6-12.7-38.1c-2.4,0.5-25,9.2-32.3,15c-1.3,1.1-2.2,2-2.3,2.9
	c-0.6,5.2,20.8,57.1,20.8,57.1s16.7,37.5,9.8,49.6s-7.5,27.7,5.2,26.5s54.8-3.5,49-35.8c0,0,11,22.5,41.5,6.3c0,0,18.5-2.9,17.9-9.2
	s-29.5-61-29.5-61s-4.6-24.2,4-33.5l-19.6-23.1c0,0-4.6-6.9-9.2-3.5s-15,9.2-16.7,9.8s-2.9-2.1-2.9-2.1c-4,8.4-5.6,17.7-4.6,26.9
	C499.7,318.6,498.6,341.6,498.6,341.6z"/>
<path class="st8" d="M406.9,655.4c0,0-1.3-4-8.7,0c0,0,2.4-12.7-5.7-12.7s-11,15-11,15s-2.3,9.8-17.9,13.8s-3.5,17.9,7.5,17.9
	s25.4-8.7,25.4-8.7s30,0.6,30.6-5.2s-2.9-23.1-5.2-23.1s-6.9,8.1-6.9,8.1L406.9,655.4z"/>
<path class="st8" d="M504.9,645.3c0,0-8.1-8.7-12.7,5.8s-8.1,20.2-5.2,22.5s5.2,1.2,4,5.8s3.5,14.4,13.8,14.4
	c10.3,0,13.3-7.5,12.7-12.7s-5.2-11.5-5.2-11.5l-4.6-16.2L504.9,645.3z"/>
<path class="st6" d="M550.5,239.5l-30.6,10.4c0,0-27.7,16.2-15.6,19.6s22.5-10.4,22.5-10.4l26.5-6.9L550.5,239.5z"/>
<path class="st7" d="M468.5,212.2c-3.6,2.5-6.5,5.9-9.3,9.3c-5.6,7-11.1,15.3-9.7,24.2c0.5,3.4,2,6.5,2.9,9.8
	c1.1,4.4,1.1,9.1,1,13.7c0.1,1.9-0.2,3.9-0.7,5.8c-0.8,1.8-1.8,3.6-2.8,5.3c-2.8,5.2-2.8,11.3-2.8,17.2c-0.1,2,0.1,4,0.8,5.8
	c0.8,1.8,2.2,3.2,3.3,4.7c3.9,5.2,5.1,12,3.1,18.3c3.1,0,5.9-1.8,7.2-4.5c0.4,3-0.5,6-2.6,8.2c6.6-2,13.7-5.3,16.1-11.7
	c0.7-2.2,1.1-4.5,1.2-6.8c1.3-16.2,2-33-3.8-48.1c-1.9-4.9-4.4-9.5-5-14.7s1.3-11.1,6-13.2c0.1,1.3,0.7,2.6,1.7,3.5
	c1.1,0.8,3,0.3,3-1l2.3,3.2c0.9-0.4,1.6-1.1,2.2-1.9l1.6,1.9l3.3-2.4l2.9,3.1c1.1-0.6,2-1.6,2.5-2.8c0.6,0.9,1.4,2,2.5,2.1
	c2.4,0.2,2.9-3.6,5.1-4.8c1.6-0.7,3.5-0.1,4.5,1.4c0.9,1.5,1.2,3.2,0.9,4.9c-0.9,7.9-7.6,15.2-5.6,22.9c1.1,4.3,4.9,7.8,5.2,12.3
	c0.2,3.6-1.9,7-1.8,10.6c0,4.2,2.9,7.8,5.8,10.9c5,5.5,10.4,10.8,15.9,15.8l-1.7-3c1.6-0.1,3.2,0.5,4.4,1.6c0.5-1.7-0.3-3.5-1.1-5.2
	c-4.6-9.7-8.4-20.1-8.9-30.9c-0.8-15,4.6-30.2,1.2-44.8c-2-8.2-6.5-15.5-13-20.8c-3.2-2.6-5.5-4.2-9.6-4.4
	c-4.6-0.4-9.2-0.4-13.7,0.1C477.6,207.7,472.8,209.4,468.5,212.2z"/>
<path class="st8" d="M526.8,273c0,0,6.3,0.6,9.2,0s6.9-3.5,6.9-3.5l21.9-16.2l-19,2.9c0,0,3.5-26.5,2.3-27.1s56-11.5,54.8,6.3
	s-33.5,53.1-51.9,60l-12.1,1.7L526.8,273z"/>
<rect x="317" y="477.5" class="st9" width="272" height="64"/>
<rect x="351.5" y="492" class="st2" width="202" height="34"/>
<path class="st9" d="M398.4,508.2c-0.1-0.9-3.9-1.3-9.2-1c3.1-4.3,4.8-7.8,4.2-8.3c-0.6-0.5-3.3,1.7-6.5,5.3c-0.3-4.8-1-8.2-1.8-8.2
	c-0.9,0-1.7,4-1.9,9.6c-4.5-3.2-8.1-5.1-8.7-4.4c-0.5,0.7,1.9,3.5,5.8,6.9c-5.1,0.8-8.7,1.8-8.6,2.7c0.1,0.9,3.9,1.3,9.2,1
	c-3.1,4.3-4.8,7.8-4.2,8.3c0.6,0.5,3.3-1.7,6.5-5.3c0.3,4.8,1,8.2,1.8,8.2c0.9,0,1.7-4,1.9-9.6c4.5,3.2,8.1,5.1,8.7,4.4
	c0.5-0.7-1.9-3.5-5.8-6.9C394.9,510.2,398.5,509.1,398.4,508.2z"/>
<path class="st9" d="M432.4,508.2c-0.1-0.9-3.9-1.3-9.2-1c3.1-4.3,4.8-7.8,4.2-8.3c-0.6-0.5-3.3,1.7-6.5,5.3c-0.3-4.8-1-8.2-1.8-8.2
	c-0.9,0-1.7,4-1.9,9.6c-4.5-3.2-8.1-5.1-8.7-4.4c-0.5,0.7,1.9,3.5,5.8,6.9c-5.1,0.8-8.7,1.8-8.6,2.7c0.1,0.9,3.9,1.3,9.2,1
	c-3.1,4.3-4.8,7.8-4.2,8.3c0.6,0.5,3.3-1.7,6.5-5.3c0.3,4.8,1,8.2,1.8,8.2c0.9,0,1.7-4,1.9-9.6c4.5,3.2,8.1,5.1,8.7,4.4
	c0.5-0.7-1.9-3.5-5.8-6.9C428.9,510.2,432.5,509.1,432.4,508.2z"/>
<path class="st9" d="M466.4,508.2c-0.1-0.9-3.9-1.3-9.2-1c3.1-4.3,4.8-7.8,4.2-8.3c-0.6-0.5-3.3,1.7-6.5,5.3c-0.3-4.8-1-8.2-1.8-8.2
	c-0.9,0-1.7,4-1.9,9.6c-4.5-3.2-8.1-5.1-8.7-4.4c-0.5,0.7,1.9,3.5,5.8,6.9c-5.1,0.8-8.7,1.8-8.6,2.7c0.1,0.9,3.9,1.3,9.2,1
	c-3.1,4.3-4.8,7.8-4.2,8.3c0.6,0.5,3.3-1.7,6.5-5.3c0.3,4.8,1,8.2,1.8,8.2c0.9,0,1.7-4,1.9-9.6c4.5,3.2,8.1,5.1,8.7,4.4
	c0.5-0.7-1.9-3.5-5.8-6.9C462.9,510.2,466.5,509.1,466.4,508.2z"/>
<path class="st9" d="M500.4,508.2c-0.1-0.9-3.9-1.3-9.2-1c3.1-4.3,4.8-7.8,4.2-8.3c-0.6-0.5-3.3,1.7-6.5,5.3c-0.3-4.8-1-8.2-1.8-8.2
	c-0.9,0-1.7,4-1.9,9.6c-4.5-3.2-8.1-5.1-8.7-4.4c-0.5,0.7,1.9,3.5,5.8,6.9c-5.1,0.8-8.7,1.8-8.6,2.7c0.1,0.9,3.9,1.3,9.2,1
	c-3.1,4.3-4.8,7.8-4.2,8.3c0.6,0.5,3.3-1.7,6.5-5.3c0.3,4.8,1,8.2,1.8,8.2c0.9,0,1.7-4,1.9-9.6c4.5,3.2,8.1,5.1,8.7,4.4
	c0.5-0.7-1.9-3.5-5.8-6.9C496.9,510.2,500.5,509.1,500.4,508.2z"/>
<path class="st9" d="M534.4,508.2c-0.1-0.9-3.9-1.3-9.2-1c3.1-4.3,4.8-7.8,4.2-8.3s-3.3,1.7-6.5,5.3c-0.3-4.8-1-8.2-1.8-8.2
	c-0.9,0-1.7,4-1.9,9.6c-4.5-3.2-8.1-5.1-8.7-4.4c-0.5,0.7,1.9,3.5,5.8,6.9c-5.1,0.8-8.7,1.8-8.6,2.7c0.1,0.9,3.9,1.3,9.2,1
	c-3.1,4.3-4.8,7.8-4.2,8.3s3.3-1.7,6.5-5.3c0.3,4.8,1,8.2,1.8,8.2c0.9,0,1.7-4,1.9-9.6c4.5,3.2,8.1,5.1,8.7,4.4
	c0.5-0.7-1.9-3.5-5.8-6.9C530.9,510.2,534.5,509.1,534.4,508.2z"/>
<path class="st6" d="M428.8,450.1c0,0-2.9,38.1,11,39.8s1.2-43.3,1.2-43.3L428.8,450.1z"/>
<path class="st8" d="M436.3,294.3l-4,1.2c0,0-16.7,133.8-5.8,159.8c0,0,11.5-6.3,17.3-5.2l9.2-109L436.3,294.3z"/>
</svg>
