<?xml version="1.0" encoding="utf-8"?>
<!-- Generator: Adobe Illustrator 24.1.1, SVG Export Plug-In . SVG Version: 6.00 Build 0)  -->
<svg version="1.1" id="_x33_a5aa513-46c2-4b84-9c5c-739cc4f6ff17"
	 xmlns="http://www.w3.org/2000/svg" xmlns:xlink="http://www.w3.org/1999/xlink" x="0px" y="0px" viewBox="0 0 1088.4 770.8"
	 style="enable-background:new 0 0 1088.4 770.8;" xml:space="preserve">
<style type="text/css">
	.st0{opacity:0.1;fill:#6C63FF;enable-background:new    ;}
	.st1{fill:none;stroke:#535461;stroke-width:2;stroke-miterlimit:10;}
	.st2{fill:#6C63FF;}
	.st3{opacity:0.25;enable-background:new    ;}
	.st4{fill:#3752F5;}
	.st5{fill:url(#SVGID_1_);}
	.st6{fill:#FFD2C6;}
	.st7{opacity:0.1;enable-background:new    ;}
	.st8{fill:#985C7E;}
	.st9{opacity:0.1;}
	.st10{fill:#FF718D;}
	.st11{opacity:3.000000e-02;enable-background:new    ;}
	.st12{fill:#CEDDF9;}
	.st13{fill:#D38884;}
	.st14{fill:#4C4981;}
	.st15{fill:#36123A;}
	.st16{opacity:0.2;}
</style>
<path class="st0" d="M1067.4,225.2c-10.8-25-25.3-48.2-43.2-68.8l-599-5.9l493.2-69.3c-31.9-12.7-65.8-19.4-100.1-19.8
	c-96.9-77.4-233.1-82.1-335-11.3c-39.7-20.4-83.6-31-128.2-30.9c-133.1,0-244,92.2-268.9,214.4L1067.4,225.2z"/>
<path class="st0" d="M1088.4,327.7c0-33.1-6.3-66-18.7-96.8L31.6,340C21,359.3,12.8,380,7.3,401.4l321.5,47.9L0,484.2
	c9.9,138.4,128.5,247.6,273.4,247.6c72.9,0,139.2-27.7,188.3-72.8c49.3,46,116.2,74.3,189.9,74.3c109.4,0,203.8-62.3,247.8-152.4
	c88.2-28,156.7-98.3,180.2-186.2l-406.5-63h415.3C1088.4,330.4,1088.4,329,1088.4,327.7z"/>
<path class="st1" d="M782,557c0,0,32.9-58.2,82.3-75c20.8-6.9,38.8-20.4,51.3-38.4c5.9-8.6,10.9-17.7,15.1-27.2"/>
<path class="st2" d="M961.9,405.7c-5.6,5.5-31.9,11.1-31.9,11.1s6.4-26.1,12.1-31.5c5.7-5.4,14.7-5.1,20.1,0.6
	C967.5,391.5,967.4,400.3,961.9,405.7L961.9,405.7z"/>
<path class="st2" d="M947,452.9c-7.7,1.5-32.8-8-32.8-8s19.6-18.4,27.3-19.9c7.7-1.7,15.3,3.2,16.9,10.9c1.7,7.7-3.2,15.3-10.9,16.9
	C947.4,452.8,947.2,452.8,947,452.9L947,452.9z"/>
<path class="st2" d="M893,504c-7.4-2.6-24.3-23.5-24.3-23.5s26.2-6,33.6-3.4c7.4,2.7,11.2,10.9,8.5,18.2
	C908.1,502.5,900.2,506.4,893,504L893,504z"/>
<path class="st2" d="M843.3,533.4c-7.8-1.3-27.9-19-27.9-19s24.8-10.3,32.6-9c7.8,0.9,13.4,8,12.4,15.8c-0.9,7.8-8,13.4-15.8,12.4
	C844.2,533.5,843.7,533.5,843.3,533.4z"/>
<path class="st2" d="M892.3,424.5c0,7.9,14.2,30.7,14.2,30.7s14.2-22.8,14.2-30.6c0.2-7.9-6-14.4-13.8-14.6
	c-7.9-0.2-14.4,6-14.6,13.8C892.3,424,892.3,424.3,892.3,424.5L892.3,424.5z"/>
<path class="st2" d="M834.7,459.7c2.3,7.5,22.7,25,22.7,25s6.8-26,4.4-33.5c-2.4-7.5-10.4-11.6-17.9-9.2
	C836.6,444.4,832.5,452.2,834.7,459.7z"/>
<path class="st2" d="M783.4,501.5c1,7.8,18.2,28.5,18.2,28.5s11.1-24.5,10-32.3c-0.9-7.8-7.9-13.4-15.7-12.5s-13.4,7.9-12.5,15.7
	C783.3,501.1,783.4,501.3,783.4,501.5L783.4,501.5z"/>
<path class="st3" d="M961.9,405.7c-5.6,5.5-31.9,11.1-31.9,11.1s6.4-26.1,12.1-31.5c5.7-5.4,14.7-5.1,20.1,0.6
	C967.5,391.5,967.4,400.3,961.9,405.7L961.9,405.7z"/>
<path class="st3" d="M947,452.9c-7.7,1.5-32.8-8-32.8-8s19.6-18.4,27.3-19.9c7.7-1.7,15.3,3.2,16.9,10.9c1.7,7.7-3.2,15.3-10.9,16.9
	C947.4,452.8,947.2,452.8,947,452.9L947,452.9z"/>
<path class="st3" d="M893,504c-7.4-2.6-24.3-23.5-24.3-23.5s26.2-6,33.6-3.4c7.4,2.7,11.2,10.9,8.5,18.2
	C908.1,502.5,900.2,506.4,893,504L893,504z"/>
<path class="st3" d="M843.3,533.4c-7.8-1.3-27.9-19-27.9-19s24.8-10.3,32.6-9c7.8,0.9,13.4,8,12.4,15.8c-0.9,7.8-8,13.4-15.8,12.4
	C844.2,533.5,843.7,533.5,843.3,533.4z"/>
<path class="st3" d="M892.3,424.5c0,7.9,14.2,30.7,14.2,30.7s14.2-22.8,14.2-30.6c0.2-7.9-6-14.4-13.8-14.6
	c-7.9-0.2-14.4,6-14.6,13.8C892.3,424,892.3,424.3,892.3,424.5L892.3,424.5z"/>
<path class="st3" d="M834.7,459.7c2.3,7.5,22.7,25,22.7,25s6.8-26,4.4-33.5c-2.4-7.5-10.4-11.6-17.9-9.2
	C836.6,444.4,832.5,452.2,834.7,459.7z"/>
<path class="st3" d="M783.4,501.5c1,7.8,18.2,28.5,18.2,28.5s11.1-24.5,10-32.3c-0.9-7.8-7.9-13.4-15.7-12.5s-13.4,7.9-12.5,15.7
	C783.3,501.1,783.4,501.3,783.4,501.5L783.4,501.5z"/>
<path class="st1" d="M783.9,555.9c0,0,6.5-66.5,44.9-101.9c16.2-14.7,27.2-34.3,31.3-55.9c1.9-10.2,2.8-20.6,2.8-31"/>
<path class="st4" d="M887,344.6c-2.9,7.3-24.7,23.1-24.7,23.1s-4.7-26.5-1.7-33.7c2.8-7.3,11-11,18.4-8.2c7.3,2.8,11,11,8.2,18.4
	C887.2,344.3,887.1,344.5,887,344.6L887,344.6z"/>
<path class="st4" d="M892.6,393.8c-6.4,4.5-33.3,6-33.3,6s10.5-24.7,16.9-29.3c6.5-4.5,15.3-2.9,19.8,3.6
	C900.4,380.5,898.9,389.3,892.6,393.8L892.6,393.8z"/>
<path class="st4" d="M863.8,462.4c-7.8,0.7-31.7-11.6-31.7-11.6s21.5-16.1,29.3-16.7c7.8-0.5,14.6,5.5,15,13.4
	C876.9,455,871.3,461.6,863.8,462.4z"/>
<path class="st2" d="M830.4,509.4c-7.6,2-33.2-6.1-33.2-6.1s18.5-19.5,26.1-21.5c7.6-2.1,15.4,2.3,17.6,9.8
	c2.1,7.6-2.3,15.4-9.8,17.6C830.8,509.3,830.6,509.3,830.4,509.4z"/>
<path class="st4" d="M831,390c3.2,7.2,25.4,22.3,25.4,22.3s3.8-26.6,0.6-33.8c-3.5-7.1-12-10-19-6.5
	C831.4,375.3,828.3,383.1,831,390L831,390z"/>
<path class="st2" d="M792.6,445.5c5.2,5.9,30.9,13.6,30.9,13.6s-4.3-26.5-9.5-32.4c-5.2-5.9-14.2-6.5-20.1-1.3
	C788,430.6,787.4,439.6,792.6,445.5L792.6,445.5z"/>
<path class="st2" d="M762.7,504.5c4.1,6.7,28.2,18.7,28.2,18.7s0.2-26.9-3.9-33.6c-4-6.8-12.7-9-19.5-5c-6.8,4-9,12.7-5,19.5
	C762.5,504.3,762.6,504.4,762.7,504.5z"/>
<linearGradient id="SVGID_1_" gradientUnits="userSpaceOnUse" x1="622.975" y1="-63.4399" x2="622.975" y2="605.2693" gradientTransform="matrix(1 0 0 -1 -55.79 707.39)">
	<stop  offset="0" style="stop-color:#808080;stop-opacity:0.25"/>
	<stop  offset="0.54" style="stop-color:#808080;stop-opacity:0.12"/>
	<stop  offset="1" style="stop-color:#808080;stop-opacity:0.1"/>
</linearGradient>
<path class="st5" d="M938.4,770.8l-9.9-44.6c0,0-11.5-36.5-13-52.3c-1.2-12.3-6.8-36.4-9.3-46.7l-0.8-3.4
	c6.6-5.2,11.5-10.8,13.7-16.5c0,0-2.1-33.8-28.7-52.3c0,0-6.3-37-12.5-49.7c-4-8.5-7.2-17.3-9.4-26.4c0,0-15.1-38.6-19.8-45.5
	s-29.2-23.8-42.8-25.4c-13.6-1.6-47.5-5.8-51.6-14.3c-4.2-8.5-73.5-11.6-73.5-11.6l0,0c-0.8-0.6-27.3-21.1-38.6-19.5
	c0,0-0.2,1-0.6,2.8c-7.1-5.9-14.3-18.6-16.9-45.5c-0.1-1.2-0.2-2.5-0.3-3.8l0.8-1.1c1.6,2.4,3.8,4.5,6.5,5.1c0.1,0,0.2,0,0.3,0h0.1
	c4.7,1.1,9.3-2.2,12.6-5.8c11.1-12.3,15.6-30,13.2-46.5c-0.6-3.9-1.5-7.8-1-11.7c0.8-5.9,4.7-10.8,7.1-16.2
	c6.7-14.9,1.8-32.5-5.4-47.2c-5.6-11.4-12.4-22.2-20.5-32c-3.5-4.3-7.3-8.5-10.2-13.3c-3.7-6.3-5.8-13.4-9.3-19.8
	c-9.8-18-31.6-28.4-51.5-24.6c-9.4,1.8-18,6.3-26.9,9.9c-12.6,5-26.3,9.1-39.9,7.7c-14.8-1.5-29.8-1.7-44.6-0.6
	c-4.3,0.3-9.6,1.7-11.6,5.1c0-0.1-0.1-0.2-0.1-0.3c-0.6,0.9-0.9,1.9-1,2.9c-0.2,2.6,1.4,5,2.2,7.5c0-0.1,0.1-0.3,0.1-0.5
	c0.2,0.4,0.3,0.9,0.5,1.3c2.2,8.1-5.3,15.2-11.8,20.4c-8.7,7-17.4,14.6-22.5,24.6c-2.3,4.5-3.7,9.4-4.1,14.5
	c-0.1-0.5-0.1-0.9-0.2-1.4c-0.7,6.7,0.5,13.5,4.3,19s10.1,9.6,12.2,16.1c0.2,0.5,0.3,1,0.4,1.5c0-0.3,0.1-0.5,0.1-0.8
	c1.7,6.3-0.9,12.9-2.9,19.1c-1,2.9-1.8,5.9-2.5,8.9c-4.7-4.3-9.8-8.1-15.3-11.3c-0.8-0.5-1.6-0.9-2.4-1.4c1.7-3.2,2.8-6.7,3.3-10.3
	c0.1-0.9,0.1-1.8,0.1-2.8c-0.2-13.6-13.3-24.8-26.7-28.1c-14.3-3.6-29.3-1.3-43.9-2.5c-11.9-0.9-23.6-4.1-35.5-3.4
	c-16.6,1.3-31.7,10-41,23.8c-9.5,14.1-12,32-21.1,46.3c-8.1,12.9-21.4,22.8-25.7,37.5c-2.7,9-1.6,18.7-0.5,28
	c5.3,42,12.8,84.1,10.9,126.4c-0.5,9.8-1.4,19.8-5.2,28.8s-10.7,17.1-20,20.1h0.1H196c4.6,1.9,9.7,2.5,14.6,1.6v-0.1
	c6.4-1,12.2-4.2,16.4-9.1c-1.7,9.4-4.9,18.5-9.5,26.9l0,0v0.1c6,1.9,11.9,0.2,17.9-2l-0.7,2.3c-12.6,43.7-14,104.8-13.8,137l0,0
	c0,0,0,0.3,0,0.8c0.1,13,0.5,21,0.5,21l0.6,0.1c1.8,28.1,6.1,74.2,14.7,83.2h187.7c0,0-7.6-31.3,3.5-48.8c1.5-2.5,2.7-5.2,3.6-8
	l0.7,4.8c0,0,2.5,0.2,6.1,0.5c-0.1,1.7-0.1,3.4-0.2,5.3c-0.9,19.5-2.3,46.2-3.3,46.2h390c0,0-4.2-26.1,0-43s-4.2-65.6-4.2-65.6
	l2.3-0.7c0.2,1,0.5,2.1,0.7,3.3c4,18,11.6,47.3,22,61.4c15.6,21.2,11,44.6,11,44.6L938.4,770.8z M512.8,357.4
	c5,18.7,10.7,42.9,13.6,65.5c0.2,1.5,0.4,3,0.6,4.5c-0.5-2.7-2.7-3.3-6-2.7c-0.2-1.8-0.5-4-1-6.3c-1-12.5-9.2-42.2-19.8-70.6
	c3.7,1.9,7.4,3.5,11.3,4.9L512.8,357.4z M439.7,372c0.7-1.3,1.3-2.6,1.9-4c0.2,4.3,0.5,7.7,0.8,10c0.1,1,0.3,2.1,0.6,3.3
	c0.1,1.7,0.3,3,0.4,4.2c2.3,15.6,21.4,62.2,21.4,62.2l3.5,11.5l-35.7,23.4c0,0-13,9.4-20.5,17.6c-7.9-10.7-16.8-21.8-17.3-34.8
	c0.5-14,11.3-26.4,10.7-40.4v0c0-0.2,0-0.5,0-0.7c0-0.4,0-0.9,0-1.3c-0.2-4-1.2-7.9-3-11.5c0.8-0.5,1.6-1,2.4-1.4
	C419.8,400.6,431.8,387.6,439.7,372L439.7,372z"/>
<path class="st6" d="M699.6,446.3l-91.8,73c0,0-137.6-18.8-95.9-27.1c17.5-3.5,18.9-32.2,14.5-64.5c-3-22.3-8.7-46.2-13.6-64.6
	c-5-18.6-9.3-31.5-9.3-31.5s127.2-151.2,121-48c-1,14.1-0.9,28.3,0.3,42.4c2.6,27.1,10.1,39.6,17.4,45.2c8.1,6.3,15.7,4.1,15.7,4.1
	L699.6,446.3z"/>
<path class="st7" d="M624.8,326c-24.9,35.9-70.6,51-112,37.1c-5-18.6-9.3-31.5-9.3-31.5s127.2-151.2,121-48
	C623.5,297.7,623.6,311.9,624.8,326z"/>
<path class="st6" d="M642.2,266c0,54.1-43.9,98-98,98s-98-43.9-98-98s43.9-98,98-98l0,0c53.9-0.2,97.8,43.4,98,97.4
	C642.2,265.6,642.2,265.8,642.2,266z"/>
<path class="st7" d="M642.2,266c0.1,20.3-6.2,40.2-18,56.8c-0.2-0.2-0.3-0.5-0.4-0.7c-5.1-9-4.2-20.1-4.7-30.5
	c-0.5-8.9-2.2-17.6-5-26c-0.2-1.1-0.8-2.1-1.7-2.8c-1.2-0.8-2.8-0.5-4.2-0.4c-7.3,0.4-13.1-6-17.3-11.9
	c-10.8-15.3-19.4-32.3-31.7-46.5c-2.1-2.4-4.3-4.7-7.2-6c-7-3.3-15.3,0.7-21.3,5.7s-11.3,11.2-18.7,13.7c-9.4,3.1-20.2-0.8-29.3,3.1
	c-6.8,3-11.3,9.9-13,17.1s-1.2,14.8-0.4,22.2c1.2,12.7,2.8,25.3,4.8,37.9c1,6.4,1.8,13.9-2.9,18.3c-2.7,2.5-6.2,3.2-9.8,2.8
	c-29-45.7-15.5-106.3,30.2-135.3s106.3-15.5,135.3,30.2C636.9,229.3,642.2,247.5,642.2,266z"/>
<path class="st8" d="M455.7,128.9c-5.3,0.4-12.1,2.3-12.5,7.6c-0.2,2.9,1.7,5.4,2.5,8.2c2.2,8-5.3,15-11.8,20.1
	c-8.7,6.9-17.4,14.4-22.5,24.3s-6.1,22.6,0.3,31.7c3.9,5.5,10.1,9.5,12.2,15.9s-0.6,13.1-2.8,19.4c-3.2,9.5-5.3,20-2,29.4
	c4.7,13.2,18.3,20.6,30.7,26.9c7.1,3.6,16.5,6.8,22.2,1.4c4.7-4.4,4-11.9,2.9-18.3c-2-12.6-3.6-25.2-4.8-37.9
	c-0.7-7.4-1.3-15,0.4-22.2s6.2-14.2,13-17.1c9.1-3.9,19.9,0,29.3-3.1c7.4-2.4,12.7-8.7,18.7-13.6s14.2-8.9,21.3-5.7
	c2.9,1.3,5.1,3.7,7.2,6c12.3,14.2,20.8,31.1,31.7,46.5c4.2,6,10,12.3,17.3,12c1.4-0.1,3-0.4,4.2,0.4c0.9,0.7,1.5,1.7,1.7,2.8
	c2.8,8.4,4.5,17.1,5,26c0.5,10.4-0.4,21.4,4.7,30.5c1.6,2.9,4.1,5.6,7.3,6.3c4.7,1.1,9.3-2.2,12.6-5.8
	c11.1-12.1,15.6-29.6,13.2-45.9c-0.6-3.8-1.5-7.7-1-11.5c0.8-5.8,4.7-10.7,7.1-16c6.7-14.7,1.8-32.1-5.4-46.5
	c-5.6-11.3-12.4-21.9-20.5-31.6c-3.5-4.3-7.3-8.4-10.2-13.1c-3.7-6.2-5.8-13.2-9.3-19.6c-9.8-17.8-31.6-28-51.5-24.3
	c-9.4,1.8-18,6.2-26.9,9.7c-12.6,5-26.3,9-39.9,7.6C485.5,127.9,470.6,127.8,455.7,128.9z"/>
<g class="st9">
	<path d="M424.1,238c0.6-2.9,0.5-5.9-0.4-8.7c-2.1-6.4-8.4-10.4-12.2-15.9c-2.3-3.4-3.8-7.3-4.3-11.4c-0.7,6.6,0.5,13.3,4.3,18.7
		s10.1,9.5,12.2,15.9C423.8,237,424,237.5,424.1,238z"/>
	<path d="M445.4,137.4c-0.4-1.3-0.9-2.6-1.5-3.8c-0.6,0.9-0.9,1.9-1,2.9c-0.2,2.6,1.4,4.9,2.2,7.4
		C445.9,141.8,446,139.5,445.4,137.4z"/>
	<path d="M472,306.4c-5.8,5.4-15.1,2.1-22.2-1.4c-12.5-6.3-26.1-13.7-30.7-26.9c-0.8-2.3-1.3-4.6-1.5-7c-0.5,4.8,0,9.7,1.5,14.3
		c4.7,13.2,18.3,20.6,30.7,26.9c7.1,3.6,16.5,6.8,22.2,1.4c3.8-3.5,4-9.1,3.5-14.5C475.1,302,473.9,304.5,472,306.4z"/>
	<path d="M663.6,239.8c-2.4,5.4-6.3,10.2-7.1,16c-0.2,2.1-0.2,4.2,0.2,6.3c1-5.4,4.6-10,6.9-15c2.6-6,3.6-12.6,3-19.1
		C666.3,232.1,665.3,236.1,663.6,239.8z"/>
	<path d="M644.4,313.2c-3.3,3.6-7.9,6.9-12.6,5.8c-3.2-0.8-5.7-3.5-7.3-6.3c-5.1-9-4.2-20.1-4.7-30.5c-0.5-8.9-2.2-17.6-5-26
		c-0.3-1.1-0.9-2.1-1.7-2.8c-1.2-0.8-2.8-0.5-4.2-0.4c-7.3,0.4-13.1-6-17.3-12c-10.8-15.3-19.4-32.3-31.7-46.5
		c-2.1-2.4-4.3-4.7-7.2-6c-7-3.3-15.3,0.7-21.3,5.7s-11.2,11.2-18.6,13.6c-9.4,3.1-20.2-0.8-29.3,3.1c-6.8,3-11.3,9.9-13,17.1
		c-1,4.8-1.4,9.7-1,14.6c0.1-2.5,0.4-4.9,1-7.3c1.7-7.2,6.2-14.2,13-17.1c9.1-3.9,19.9,0,29.3-3.1c7.4-2.4,12.7-8.6,18.6-13.6
		s14.2-8.9,21.3-5.7c2.9,1.3,5.1,3.7,7.2,6c12.3,14.2,20.8,31.1,31.7,46.5c4.2,6,10,12.3,17.3,12c1.5-0.1,3-0.4,4.2,0.4
		c0.9,0.7,1.5,1.7,1.7,2.8c2.8,8.4,4.5,17.1,5,26c0.5,10.4-0.4,21.4,4.7,30.5c1.6,2.9,4.1,5.6,7.3,6.3c4.7,1.1,9.3-2.2,12.6-5.8
		c10-10.8,14.5-26,13.7-40.7C657.3,292.1,652.7,304.2,644.4,313.2z"/>
</g>
<path class="st6" d="M487.4,720v50.7h-52.7c1,0,2.4-26.3,3.3-45.5c0.5-11.1,0.9-19.8,0.9-19.8L487.4,720z"/>
<path class="st6" d="M856.6,770.8c2.3-15.5-1.7-31.4-11-44c-10.4-13.9-18-42.8-22-60.5c-2-8.9-3-15-3-15l84.5-44.8v18
	c0,0,0.5,1.8,1.2,4.8c2.5,10.2,8,34,9.3,46.1c1.6,15.6,13,51.6,13,51.6l9.9,44L856.6,770.8z"/>
<path class="st7" d="M906.2,629.1c-24.8,19.3-72.3,34.1-82.6,37.1c-2-8.9-3-15-3-15l84.5-44.9v18C905,624.4,905.5,626.2,906.2,629.1
	z"/>
<path class="st7" d="M487.4,720v50.7H486l-6.4-23.6c0,0-3.7-26.1-6.8-22.4c-2.3,2.7-24,1.4-34.8,0.5c0.5-11.1,0.9-19.8,0.9-19.8
	L487.4,720z"/>
<path class="st7" d="M699.6,446.3l-91.8,73c0,0-137.6-18.8-95.9-27.1c17.5-3.5,18.9-32.2,14.5-64.5c0.9,0.5,1.5,1.4,1.6,2.4l4.7,25
	l28.7,5.3l18.3,21.4l5.2-22.4c0,0,12.5-13.6,14.6-16.7c1.7-2.5,10.2-4.6,17.9-8.6c2-1,3.8-2.1,5.6-3.4c6.8-5.1,16-44.8,19.2-59.4
	c8.1,6.3,15.7,4.1,15.7,4.1L699.6,446.3z"/>
<path class="st10" d="M820.6,663.7c0,0,8.3,48,4.2,64.7s0,42.4,0,42.4H487.4l-7.8-28.8c0,0-3.7-26.1-6.8-22.4s-40.7,0-40.7,0
	l-14.6-97c0,0-8.9-102.2-10.4-109.5s25.5-26.6,25.5-26.6l37-24c0,0,54.6-44.8,57.3-30.2l4.7,25l28.7,5.2l18.3,21.4l5.3-22.4
	c0,0,12.5-13.5,14.6-16.7c1.7-2.5,10.2-4.6,17.9-8.6c2-1,3.8-2.1,5.6-3.4c8.3-6.2,20.3-64.6,20.3-64.6c11.3-1.5,37.8,18.7,38.6,19.3
	l0,0c0,0,69.3,3.1,73.5,11.5c4.2,8.3,38.1,12.6,51.7,14.1c13.6,1.5,38.1,18.3,42.8,25s19.8,44.8,19.8,44.8c2.2,9,5.4,17.7,9.4,26.1
	c6.3,12.5,12.5,49,12.5,49c26.6,18.3,28.7,51.6,28.7,51.6C907.7,639.2,820.6,663.7,820.6,663.7z"/>
<path class="st7" d="M778.3,573c0,0-12,29.7-6.8,36s34.9,46.4,34.9,46.4l14.1,8.3l-16.2-22.4l-9-22.9L778.3,573z"/>
<polygon class="st7" points="643.3,611.6 638.1,626.2 646.4,707 706.4,728.9 761.7,688.2 761.7,613.7 733.5,598.1 "/>
<polygon class="st10" points="643.3,609.5 638.1,624.1 646.4,704.9 706.4,726.8 761.7,686.2 761.7,611.6 733.5,596 "/>
<polygon class="st11" points="643.3,609.5 638.1,624.1 646.4,704.9 706.4,726.8 761.7,686.2 761.7,611.6 733.5,596 "/>
<path class="st7" d="M634.4,565.7l3.7,60.5c0,0,22.4,15.6,52.7,13.5s70.9-26.1,70.9-26.1l-6.3-57.4L634.4,565.7z"/>
<path class="st10" d="M634.4,563.6l3.7,60.5c0,0,22.4,15.6,52.7,13.6s70.9-26.1,70.9-26.1l-6.3-57.4L634.4,563.6z"/>
<path class="st11" d="M634.4,563.6l3.7,60.5c0,0,22.4,15.6,52.7,13.6s70.9-26.1,70.9-26.1l-6.3-57.4L634.4,563.6z"/>
<circle class="st12" cx="688.1" cy="618.4" r="6"/>
<circle class="st12" cx="567.2" cy="519.3" r="6"/>
<circle class="st12" cx="590.6" cy="612.4" r="6"/>
<circle class="st12" cx="601.6" cy="716.7" r="6"/>
<path class="st7" d="M681.9,389.5l-3.5,76.7c-37.4,4.7-61-27.9-61-27.9c2-1,3.8-2.1,5.6-3.4c8.3-6.3,20.3-64.7,20.3-64.7
	C654.6,368.6,681,388.8,681.9,389.5L681.9,389.5z"/>
<path class="st10" d="M680.8,387.4l-3.5,76.7c-37.4,4.7-61-27.9-61-27.9c2-1,3.8-2.1,5.6-3.4c8.3-6.3,20.3-64.7,20.3-64.7
	C653.5,366.5,680,386.7,680.8,387.4L680.8,387.4z"/>
<path class="st13" d="M450,334.7c0,51.8-42,93.8-93.8,93.7c-51.8,0-93.8-42-93.7-93.8c0-51.8,42-93.8,93.8-93.7
	c41,0,77.2,26.6,89.4,65.7C448.6,315.7,450,325.2,450,334.7z"/>
<path class="st13" d="M431.2,580.8l-6.5,16.2l-27,67.6l-9.6,24l-78.5,16.9l-85.4-16.3l-2.9-0.5c0,0-4.6-95.5,13.3-156.6
	c6.2-21.2,15.1-38.2,27.8-45.7c49.4-29.2,34.1-118.3,34.1-118.3s39.2,2.6,74.2,6.9c2.6,8.4,9,16,15.4,22.5
	c7.2,7.4,15.1,15.5,18.3,25c-12.5,26.5-23.4,61-11.9,75.1c10.4,12.8,21.7,38.3,29.4,57.8c1.2,3,2.3,5.8,3.3,8.4
	C428.8,573.8,431.2,580.8,431.2,580.8z"/>
<path class="st7" d="M424.8,597l-27,67.6l-9.6,24l-78.6,16.9l-85.4-16.3c-1-14-1.3-24.2-1.3-24.2h6.8c0,0,7.6-68.8,18.8-118.9
	s59.1-59.8,59.1-59.8l0.9,7.5c-40,2.6-47.6,44.8-54.4,53.7s-13.6,72.7-13.6,72.7l-3.8,47.6c-0.7,16.7,36.9,11.1,51.5,11.8
	s40.1-5.9,57-17.9c10.9-7.7,64.1-98.2,64.1-98.2L424.8,597z"/>
<path class="st14" d="M305.4,488.4c0,0-48,9.7-59.1,59.8s-18.8,118.9-18.8,118.9h-6.8c0,0,3.3,90.7,15.8,103.8h187.7
	c0,0-7.6-30.9,3.5-48.1s14.6-81.3,14.6-81.3L407,565.5c0,0-53.1,90.5-64.1,98.2c-17,12-42.4,18.6-57,17.9s-52.1,4.9-51.5-11.8
	l3.8-47.6c0,0,6.8-63.8,13.6-72.7s14.4-51.1,54.4-53.7L305.4,488.4z"/>
<path class="st7" d="M450,334.7c0,14.9-3.5,29.6-10.3,42.8c-1-15.9-0.5-50,6-70.9C448.6,315.7,450,325.2,450,334.7z"/>
<path class="st7" d="M327,634.5c12.8,6.3,66.5,34.2,66.5,34.2s81.9,50.8,129.3,52.9l48.5,5.2c0,0,39.1-11.4,31.3-42.2
	c0,0-17-40.9-11-52.9s-61-152-61-152s-15-32.3-9.9-43.8s-37.7-142.5-58.7-139.2s-20.9,78.7-18.7,94.1c2.3,15.4,21.3,61.3,21.3,61.3
	l31.5,100.1l5.2,67.5c0,0-86.5-51.4-103.2-72.2s-76.1-50.6-90.7-33.4S314.2,628.3,327,634.5z"/>
<path class="st13" d="M292.4,618.4c0,0,20.8,2.6,33.6,8.9s66.5,34.1,66.5,34.1s81.9,50.8,129.3,52.9l48.5,5.2
	c0,0,39.1-11.5,31.3-42.2c0,0-17-40.9-11-52.9s-61-152-61-152s-15-32.3-9.9-43.8S482,286,461,289.4s-20.9,78.6-18.7,94
	c2.3,15.4,21.4,61.3,21.4,61.3l31.5,100.1l5.2,67.5c0,0-86.6-51.4-103.2-72.2s-76.1-50.6-90.7-33.4S227.7,584.5,292.4,618.4z"/>
<path class="st7" d="M533.3,648.6c0,0-34.1-32.3-32.9-36.2l36.5,34.7L533.3,648.6z"/>
<path class="st7" d="M327.9,533.1l5.3,2.6c-0.3,0.3-0.6,0.7-0.9,1C330.7,535.5,329.3,534.3,327.9,533.1z"/>
<path class="st7" d="M405,414.8c-44.3,27-102,12.9-129-31.3c-27-44.3-12.9-102,31.3-129c29.5-17.9,66.4-18.3,96.2-0.9
	c-6.4,11.2-17.8,20.1-15.9,34.5c0.7,5.4,3.3,10.3,4.8,15.5c2.6,9.2,1.7,19-2.6,27.5c-5.3,10.5-15.5,18.8-17.2,30.4
	c-1.9,12.8,7.4,24.3,16.4,33.6C394.9,401.2,401.2,407.6,405,414.8z"/>
<path class="st7" d="M430.1,550.6c-1.9,2.9-5,4.3-8.4,4.6c-3.1,0.3-6.3-0.1-9.3-1l0,0l-1-0.3c-6.4-2.3-12.7-6-19.5-5.3
	c4.2,0.5,8.6,1.2,11.8,3.9s4.5,8.2,1.4,11s-7.6,1.7-11.4,0.4l-32.7-10.8c-11.1-3.7-22.6-7.5-32-14.4c-9.3,9.3-25.6,6.4-37.7,0.5
	c-2.9-1.4-5.8-3-8.7-4.5c-9.7-5.1-19.6-9.9-30.2-8.6c-6.2,0.8-12.2,3.7-18.1,5.9c6.2-21.2,15.1-38.2,27.8-45.7
	c49.4-29.2,34.1-118.3,34.1-118.3s39.2,2.6,74.2,6.9c2.6,8.4,9,16,15.4,22.5c7.2,7.4,15.1,15.5,18.3,25c0.8,2.4,1.2,4.9,1.4,7.4
	c0.6,13.9-10.3,26.1-10.7,40c-0.4,14.6,10.5,26.7,19.1,38.5c5.8,8,10.8,16.7,14.9,25.7C431.2,539.3,433.2,545.8,430.1,550.6z"/>
<path class="st15" d="M404.4,242.1c1.6-14.6-12.3-26.9-26.5-30.4s-29.3-1.3-43.9-2.5c-11.9-0.9-23.6-4.1-35.5-3.3
	c-16.5,1.2-31.6,9.8-41,23.4c-9.5,13.9-12,31.5-21.1,45.7c-8.1,12.7-21.4,22.5-25.7,37c-2.7,8.9-1.6,18.4-0.5,27.6
	c5.3,41.4,12.8,82.9,10.9,124.6c-0.5,9.7-1.4,19.5-5.2,28.4s-10.7,16.9-20,19.9c10.8,4.3,23.2,1.4,31-7.4
	c-1.7,9.3-4.9,18.3-9.5,26.5c11.7,3.6,23.1-6,35.3-7.6c13.8-1.8,26.4,6.9,38.8,13.1s29.5,9.1,38.6-1.4l-5.3-2.6
	c10.1,9.2,23.4,13.7,36.4,18l32.7,10.8c3.8,1.3,8.5,2.3,11.4-0.4s1.8-8.3-1.4-11s-7.6-3.3-11.8-3.9c6.8-0.7,13.1,3.1,19.5,5.3
	s14.9,2.4,18.6-3.3c3.2-4.8,1.2-11.3-1.2-16.6c-4.1-9.1-9.1-17.7-14.9-25.7c-8.6-11.8-19.5-23.9-19.1-38.6
	c0.4-13.9,11.3-26.1,10.7-40c-0.5-12.9-10.6-23.1-19.6-32.4s-18.2-20.9-16.4-33.7c1.7-11.6,11.9-19.9,17.2-30.4
	c4.3-8.5,5.2-18.3,2.6-27.5c-1.5-5.2-4.1-10.2-4.9-15.5C382,269.1,402.5,259.8,404.4,242.1z"/>
<g class="st16">
	<path d="M239.1,522c-6.8,0.9-13.4,4.3-20,6.5c-0.5,1.1-1.1,2.1-1.7,3.2c11.7,3.6,23.1-6,35.3-7.6c0.7-0.1,1.4-0.2,2-0.2
		C249.7,522.1,244.3,521.4,239.1,522z"/>
	<path d="M210.5,514.2c1.2-3.6,2.1-7.4,2.8-11.1c-4.1,4.7-9.7,7.9-15.8,8.9c-0.5,0.2-1,0.4-1.6,0.6
		C200.6,514.4,205.6,515,210.5,514.2z"/>
	<path d="M397.9,549.8c-6.4-2.3-12.7-6-19.5-5.3c4.1,0.6,8.6,1.2,11.8,3.9s4.5,8.2,1.4,11c-0.5,0.5-1.2,0.9-1.9,1.2l4,1.3
		c3.8,1.3,8.5,2.3,11.4-0.4s2-7.4-0.7-10.3C402.3,551,400,550.5,397.9,549.8z"/>
	<path d="M315.6,534.6c-4.1,4.1-9.6,5.9-15.5,6c8.4,2.6,17.5,3.2,24.5-0.5C321.4,538.5,318.4,536.7,315.6,534.6z"/>
	<path d="M428.9,532c-4.1-9.1-9.1-17.7-14.9-25.7c-8.6-11.9-19.5-23.9-19.1-38.6c0.4-13.9,11.3-26.1,10.7-40
		c-0.5-12.9-10.6-23.1-19.6-32.4s-18.2-20.8-16.4-33.6c1.7-11.6,11.9-19.9,17.2-30.4c4.3-8.5,5.2-18.3,2.6-27.5
		c-1.5-5.2-4.1-10.2-4.9-15.5c-2.5-19.1,18-28.4,19.9-46.1c1.6-14.6-12.3-26.9-26.5-30.4c-4.2-1-8.4-1.6-12.7-1.9
		c14,3.8,27.3,15.9,25.7,30.2c-1.9,17.7-22.4,27-19.9,46.1c0.7,5.4,3.4,10.3,4.9,15.5c2.6,9.2,1.6,19-2.6,27.5
		c-5.3,10.5-15.5,18.8-17.2,30.4c-1.9,12.8,7.4,24.3,16.4,33.6c9,9.3,19.1,19.5,19.6,32.4c0.6,13.9-10.3,26.1-10.7,40
		c-0.4,14.6,10.5,26.7,19.1,38.6c5.8,8,10.8,16.7,14.9,25.7c2.4,5.3,4.4,11.8,1.2,16.6c-1.7,2.5-4.4,4.1-7.4,4.5
		c0.8,0.3,1.5,0.6,2.3,0.9c6.4,2.3,14.9,2.4,18.6-3.3C433.2,543.7,431.2,537.3,428.9,532z"/>
</g>
<path class="st7" d="M423.4,733c0,0-42.6-7-50.3-16.3S423.4,733,423.4,733z"/>
<path class="st4" d="M147.8,116.9c0,0,87.8-5.3,77.5,56.2c0,0,2,10.9-7.8,15.8c0,0-0.2-4.6-9-3c-3.2,0.5-6.4,0.7-9.5,0.5
	c-4.3-0.3-8.4-2-11.7-4.8l0,0c0,0-24.7-10.2-34.3-50.5c0,0-7.1-8.8-6.8-11.1l14.8,6.3c0,0-5.1,10.7-1.1,19.6c0,0,0.5-19.2,3.3-18.7
	c0.6,0.1,7.7,3.7,7.7,3.7s-8.7,18.6-2.1,32.2c0,0-2.5-22.9,4.9-30.8l10.4,6.1c0,0-10.2,19.2-3.3,34.9c0,0-1.8-24.1,5.5-33.4l9.4,7.4
	c0,0-9.6,19-3.7,32c0,0,0.8-28,5.8-30.1c0,0,8.3,7.3,9.5,10.3c0,0-6.5,13.8-2.5,21c0,0,2.5-18.7,4.5-18.8c0,0,8.2,12.4,9.1,20.8
	c0,0-0.4-12.6-7.1-22c0,0,8,1.4,12.6,6.5c0,0-1.3-8.8-14.6-9.5c0,0-6.8-9.4-8.6-9.9c0,0,13.3-1.1,21.4,2.5c0,0-7.1-8.3-23.8-4.5
	l-9.3-7.6c0,0,17.5-2.4,24.9,0.3c0,0-8.5-7.3-27.4-2l-10.2-6.1c0,0,14.9-3.2,23.8-2.1c0,0-9.4-5.1-26.8,0.4l-7.3-3.3
	c0,0,10.9-2.1,14.1-2.5c3.2-0.3,3.4-1.2,3.4-1.2c-6.9-1.2-14-0.4-20.5,2.3C162.9,123.6,147.6,117.9,147.8,116.9z"/>
<path class="st4" d="M127.7,258.8c0,0,47.1-2.8,41.6,30.2c0,0,1.1,5.8-4.2,8.5c0,0-0.1-2.5-4.8-1.6c-1.7,0.3-3.4,0.4-5.1,0.3
	c-2.3-0.2-4.5-1.1-6.3-2.6l0,0c0,0-13.3-5.5-18.4-27.1c0,0-3.8-4.7-3.7-5.9l7.9,3.4c0,0-2.7,5.7-0.6,10.5c0,0,0.3-10.3,1.8-10
	c0.3,0,4.1,2,4.1,2s-4.7,10-1.1,17.3c0,0-1.3-12.3,2.6-16.5l5.6,3.3c0,0-5.5,10.3-1.8,18.7c0,0-1-12.9,2.9-18l5.1,4
	c0,0-5.1,10.2-2,17.1c0,0,0.4-15,3.1-16.2c0,0,4.4,3.9,5.1,5.5c0,0-3.5,7.4-1.3,11.3c0,0,1.3-10,2.4-10.1c0,0,4.4,6.6,4.9,11.2
	c0,0-0.2-6.8-3.8-11.8c0,0,4.3,0.7,6.8,3.5c0,0-0.7-4.7-7.9-5.1c0,0-3.6-5-4.6-5.3c0,0,7.1-0.6,11.5,1.3c0,0-3.8-4.4-12.8-2.4
	l-5-4.1c0,0,9.4-1.3,13.4,0.1c0,0-4.6-3.9-14.7-1.1l-5.5-3.3c0,0,8-1.7,12.8-1.1c0,0-5-2.7-14.4,0.2l-3.9-1.8c0,0,5.9-1.2,7.6-1.3
	s1.8-0.7,1.8-0.7c-3.7-0.6-7.5-0.2-11,1.2C135.9,262.5,127.6,259.3,127.7,258.8z"/>
</svg>
