<?xml version="1.0" encoding="utf-8"?>
<!-- Generator: Adobe Illustrator 24.1.1, SVG Export Plug-In . SVG Version: 6.00 Build 0)  -->
<svg version="1.1" id="fb0462f1-4822-46c6-85a1-002b71cfcb82"
	 xmlns="http://www.w3.org/2000/svg" xmlns:xlink="http://www.w3.org/1999/xlink" x="0px" y="0px" viewBox="0 0 980.5 751.9"
	 style="enable-background:new 0 0 980.5 751.9;" xml:space="preserve">
<style type="text/css">
	.st0{fill:#3F3D56;}
	.st1{fill:none;stroke:#3F3D56;stroke-width:2;stroke-miterlimit:10;}
	.st2{fill:#3752F5;}
	.st3{fill:#E6E6E6;}
	.st4{fill:#FFB8B8;}
	.st5{fill:#2F2E41;}
	.st6{fill:#D0CDE1;}
	.st7{fill:#12FFC6;}
</style>
<rect x="313.5" y="117" class="st0" width="2" height="107"/>
<rect x="313.5" y="255.9" class="st0" width="2" height="94.1"/>
<rect x="310.5" y="365" class="st0" width="155" height="2"/>
<rect x="244.5" y="392" class="st0" width="2" height="85"/>
<rect x="262.5" y="492" class="st0" width="235" height="2"/>
<path class="st1" d="M513.5,477"/>
<path class="st1" d="M513.5,395"/>
<rect x="691.5" y="49" class="st0" width="2" height="101"/>
<rect x="529.5" y="166" class="st0" width="147" height="2"/>
<rect x="512.5" y="182" class="st0" width="2" height="135"/>
<path class="st0" d="M314.5,257c-9.4,0-17-7.6-17-17s7.6-17,17-17s17,7.6,17,17C331.5,249.4,323.9,257,314.5,257z M314.5,225
	c-8.3,0-15,6.7-15,15s6.7,15,15,15s15-6.7,15-15C329.5,231.7,322.8,225,314.5,225z"/>
<path class="st0" d="M246.5,510c-9.4,0-17-7.6-17-17s7.6-17,17-17s17,7.6,17,17l0,0C263.5,502.4,255.9,510,246.5,510z M246.5,478
	c-8.3,0-15,6.7-15,15s6.7,15,15,15s15-6.7,15-15l0,0C261.5,484.7,254.8,478,246.5,478z"/>
<circle class="st2" cx="315.5" cy="366" r="16"/>
<rect x="728.5" y="239" class="st0" width="166" height="2"/>
<rect x="711.5" y="255.9" class="st0" width="2" height="94.1"/>
<rect x="562.5" y="365" class="st0" width="133" height="2"/>
<rect x="796.5" y="374" class="st0" width="138" height="2"/>
<rect x="780.5" y="392" class="st0" width="2" height="85"/>
<rect x="529.5" y="492" class="st0" width="235" height="2"/>
<rect x="512.5" y="415" class="st0" width="2" height="62"/>
<circle class="st2" cx="712.5" cy="240" r="16"/>
<path class="st0" d="M692.5,183c-9.4,0-17-7.6-17-17s7.6-17,17-17c9.4,0,17,7.6,17,17C709.5,175.4,701.9,183,692.5,183z M692.5,151
	c-8.3,0-15,6.7-15,15s6.7,15,15,15s15-6.7,15-15C707.5,157.7,700.8,151,692.5,151L692.5,151z"/>
<path class="st0" d="M513.5,183c-9.4,0-17-7.6-17-17s7.6-17,17-17c9.4,0,17,7.6,17,17C530.5,175.4,522.9,183,513.5,183z M513.5,151
	c-8.3,0-15,6.7-15,15s6.7,15,15,15c8.3,0,15-6.7,15-15C528.5,157.7,521.8,151,513.5,151L513.5,151z"/>
<path class="st0" d="M780.5,393c-9.4,0-17-7.6-17-17s7.6-17,17-17c9.4,0,17,7.6,17,17l0,0C797.5,385.4,789.9,393,780.5,393z
	 M780.5,361c-8.3,0-15,6.7-15,15s6.7,15,15,15s15-6.7,15-15l0,0C795.5,367.7,788.8,361,780.5,361z"/>
<circle class="st2" cx="780.5" cy="493" r="16"/>
<path class="st0" d="M513.5,510c-9.4,0-17-7.6-17-17s7.6-17,17-17c9.4,0,17,7.6,17,17l0,0C530.5,502.4,522.9,510,513.5,510z
	 M513.5,478c-8.3,0-15,6.7-15,15s6.7,15,15,15c8.3,0,15-6.7,15-15l0,0C528.5,484.7,521.8,478,513.5,478z"/>
<path class="st0" d="M711.5,383c-9.4,0-17-7.6-17-17s7.6-17,17-17c9.4,0,17,7.6,17,17l0,0C728.5,375.4,720.9,383,711.5,383z
	 M711.5,351c-8.3,0-15,6.7-15,15s6.7,15,15,15s15-6.7,15-15C726.5,357.7,719.8,351,711.5,351z"/>
<path class="st0" d="M246.5,342c-11,0-20,9-20,20s9,20,20,20s20-9,20-20C266.5,351,257.5,342,246.5,342z M246.5,348c3.3,0,6,2.7,6,6
	s-2.7,6-6,6s-6-2.7-6-6C240.5,350.7,243.2,348,246.5,348z M246.5,376.9c-4.8,0-9.3-2.4-12-6.4c0.1-4,8-6.2,12-6.2s11.9,2.2,12,6.2
	C255.8,374.5,251.3,376.9,246.5,376.9z"/>
<path class="st0" d="M315.5,69c-11,0-20,9-20,20s9,20,20,20s20-9,20-20C335.5,78,326.5,69,315.5,69z M315.5,75c3.3,0,6,2.7,6,6
	s-2.7,6-6,6s-6-2.7-6-6C309.5,77.7,312.2,75,315.5,75z M315.5,103.9c-4.8,0-9.3-2.4-12-6.4c0.1-4,8-6.2,12-6.2s11.9,2.2,12,6.2
	C324.8,101.5,320.3,103.9,315.5,103.9z"/>
<path class="st0" d="M692.5,0c-11,0-20,9-20,20s9,20,20,20c11,0,20-9,20-20C712.5,9,703.5,0,692.5,0z M692.5,6c3.3,0,6,2.7,6,6
	s-2.7,6-6,6s-6-2.7-6-6C686.5,8.7,689.2,6,692.5,6z M692.5,34.9c-4.8,0-9.3-2.4-12-6.4c0.1-4,8-6.2,12-6.2s11.9,2.2,12,6.2
	C701.8,32.5,697.3,34.9,692.5,34.9z"/>
<path class="st0" d="M922.5,219c-11,0-20,9-20,20s9,20,20,20c11,0,20-9,20-20C942.5,228,933.5,219,922.5,219z M922.5,225
	c3.3,0,6,2.7,6,6s-2.7,6-6,6s-6-2.7-6-6C916.5,227.7,919.2,225,922.5,225z M922.5,253.9c-4.8,0-9.3-2.4-12-6.4c0.1-4,8-6.2,12-6.2
	s11.9,2.2,12,6.2C931.8,251.5,927.3,253.9,922.5,253.9z"/>
<path class="st0" d="M960.5,354c-11,0-20,9-20,20s9,20,20,20s20-9,20-20C980.5,363,971.5,354,960.5,354z M960.5,360c3.3,0,6,2.7,6,6
	s-2.7,6-6,6s-6-2.7-6-6C954.5,362.7,957.2,360,960.5,360z M960.5,388.9c-4.8,0-9.3-2.4-12-6.4c0.1-4,8-6.2,12-6.2s11.9,2.2,12,6.2
	C969.8,386.5,965.3,388.9,960.5,388.9z"/>
<path class="st2" d="M524,328.9c-20.1-5-40.4,7.2-45.4,27.3s7.2,40.4,27.3,45.4c20.1,5,40.4-7.2,45.4-27.3
	C556.4,354.3,544.1,333.9,524,328.9C524,328.9,524,328.9,524,328.9z"/>
<path class="st3" d="M152,733.3c-2.8,25.9-152.2,23.7-152,0C2.8,707.4,152.2,709.6,152,733.3z"/>
<polygon class="st4" points="103.8,668.2 109.8,681.3 120.9,680.3 128,657.1 116.9,651 "/>
<polygon class="st4" points="65.6,698.4 65.4,707.5 82.6,708.5 82.6,697.4 "/>
<polygon class="st5" points="71.5,531.9 75.5,612.6 65.4,700.5 95.7,704.5 114.9,593.5 120.9,517.8 "/>
<path class="st5" d="M24,502.6c0,0-12.1,79.7,13.1,106s59.5,72.7,59.5,72.7l24.2-30.3l-61.6-65.6L71.5,541l49.5-23.2l-8.1-55.5
	l-72.7-1L24,502.6z"/>
<ellipse transform="matrix(0.9985 -5.530038e-02 5.530038e-02 0.9985 -16.2269 5.074)" class="st4" cx="83.6" cy="295.7" rx="22.2" ry="22.2"/>
<path class="st4" d="M64.4,300.8c0,0-1,31.3-6.1,35.3s18.2,21.2,18.2,21.2l15.1-24.2v-22.2L64.4,300.8z"/>
<polygon class="st6" points="74.5,343.2 62.2,324.7 55.3,334.1 45.2,362.4 53.3,472.4 100.7,473.4 106.8,347.2 91.6,329 "/>
<path class="st5" d="M126,350.2l8.1-1c0,0,2,1,3,8.1s13.1,69.6,13.1,69.6L134,503.6l-18.2-24.2L127,437l-11.1-42.4L126,350.2z"/>
<polygon class="st5" points="23,349.2 17,349.2 1.8,431 15.9,494.6 30.1,471.4 26,446.1 28.1,423.9 35.1,410.8 "/>
<path class="st5" d="M112.8,677.2c0,0-6.1-2-6.1,2s4,16.1,4,16.1s-6.1,37.3,3,35.3s16.1-19.2,17.2-24.2c1-5,6.1-31.3,6.1-31.3
	s8.1-19.2,3-20.2c-5-1-19.2-5-19.2-5S129,675.2,112.8,677.2z"/>
<path class="st5" d="M83.6,708.5c0,0-16.1-10.1-19.2-2c-2,5.9-3.4,12-4,18.2c0,0-4,13.1,12.1,11.1c16.1-2,14.1-2,15.1-8.1
	C88.6,721.6,83.6,708.5,83.6,708.5z"/>
<path class="st5" d="M70.4,295.7l4-1c0,0,3-17.2,10.1-15.1s25.2,4,25.2-4s-17.2-15.1-27.2-14.1s-27.2,4-26.2,19.2s7.5,29.9,7.5,29.9
	l0.5-9L70.4,295.7z"/>
<polygon class="st6" points="91.6,355.3 74.5,343.2 91.6,329 97.6,336.2 "/>
<polygon class="st6" points="59.3,354.3 74.5,343.2 62.4,325 55.3,334.1 "/>
<path class="st5" d="M133,349.2l-32.3-13.1l-7.6-5.6L70.4,431l-15.1-45.4l4.5-58L18,349.2l14.1,68.6l2,26.2l-6.1,21.2
	c0,0-21.2,15.1-14.1,31.3c7.1,16.1,15.1,17.2,15.1,17.2s34.3-32.3,36.3-40.4s5-22.2,5-22.2s17.2,64.6,37.3,63.6
	c20.2-1,20.2-22.2,20.2-22.2l-5-22.2l-8.1-23.2l4-38.4L133,349.2z"/>
<g>
	<path class="st7" d="M505.6,355c-1.1-1.1-1.1-3,0-4.1c1.1-1.1,3-1.1,4.1,0c1.1,1.1,1.1,2.9,0,4.1
		C508.5,356.1,506.7,356.1,505.6,355"/>
	<path class="st7" d="M505.6,355c-1.1-1.1-1.1-3,0-4.1c1.1-1.1,3-1.1,4.1,0c1.1,1.1,1.1,2.9,0,4.1
		C508.5,356.1,506.7,356.1,505.6,355z"/>
	<path class="st7" d="M526.4,358c-1.2-1.2-1.2-3.2,0-4.5s3.2-1.2,4.5,0s1.2,3.2,0,4.5C529.6,359.2,527.6,359.2,526.4,358"/>
	<path class="st7" d="M526.4,358c-1.2-1.2-1.2-3.2,0-4.5s3.2-1.2,4.5,0s1.2,3.2,0,4.5C529.6,359.2,527.6,359.2,526.4,358z"/>
	<path class="st7" d="M511.4,352.4c-1.1-1.1-1.1-2.9,0-4.1c1.1-1.1,2.9-1.1,4.1,0c1.1,1.1,1.1,2.9,0,4.1
		C514.4,353.5,512.6,353.5,511.4,352.4"/>
	<circle class="st7" cx="513.5" cy="350.4" r="2.9"/>
	<path class="st7" d="M499.6,364.9c-1.2-1.2-1.2-3.2,0-4.4s3.2-1.2,4.4,0s1.2,3.2,0,4.4C502.8,366.1,500.8,366.1,499.6,364.9"/>
	<path class="st7" d="M499.6,364.9c-1.2-1.2-1.2-3.2,0-4.4s3.2-1.2,4.4,0s1.2,3.2,0,4.4C502.8,366.1,500.8,366.1,499.6,364.9z"/>
	<path class="st7" d="M497.2,356.9c-1.3-1.3-1.3-3.4,0-4.8c1.3-1.3,3.4-1.3,4.8,0c1.3,1.3,1.3,3.4,0,4.8
		C500.6,358.2,498.5,358.2,497.2,356.9"/>
	<path class="st7" d="M497.2,356.9c-1.3-1.3-1.3-3.4,0-4.8c1.3-1.3,3.4-1.3,4.8,0c1.3,1.3,1.3,3.4,0,4.8
		C500.6,358.2,498.5,358.2,497.2,356.9z"/>
	<path class="st7" d="M521.8,347.8c-1.2-1.2-1.2-3,0-4.2c1.2-1.2,3-1.2,4.2,0c1.2,1.2,1.2,3,0,4.2C524.9,349,523,349,521.8,347.8"/>
	<path class="st7" d="M521.8,347.8c-1.2-1.2-1.2-3,0-4.2c1.2-1.2,3-1.2,4.2,0c1.2,1.2,1.2,3,0,4.2C524.9,349,523,349,521.8,347.8z"
		/>
	<path class="st7" d="M504.9,349c-1.2-1.2-1.2-3.1,0-4.3s3.1-1.2,4.3,0s1.2,3.1,0,4.3C508.1,350.2,506.1,350.2,504.9,349"/>
	<path class="st7" d="M504.9,349c-1.2-1.2-1.2-3.1,0-4.3s3.1-1.2,4.3,0s1.2,3.1,0,4.3C508.1,350.2,506.1,350.2,504.9,349z"/>
	<path class="st7" d="M527.4,349.4c-0.7-0.7-0.7-1.8,0-2.5c0.7-0.7,1.8-0.7,2.5,0c0.7,0.7,0.7,1.8,0,2.5
		C529.1,350,528.1,350,527.4,349.4"/>
	<path class="st7" d="M527.4,349.4c-0.7-0.7-0.7-1.8,0-2.5c0.7-0.7,1.8-0.7,2.5,0c0.7,0.7,0.7,1.8,0,2.5
		C529.1,350,528.1,350,527.4,349.4z"/>
	<path class="st7" d="M495.9,360.8c-0.7-0.7-0.7-1.8,0-2.5c0.7-0.7,1.8-0.7,2.5,0c0.7,0.7,0.7,1.8,0,2.5
		C497.6,361.5,496.5,361.5,495.9,360.8"/>
	<path class="st7" d="M495.9,360.8c-0.7-0.7-0.7-1.8,0-2.5c0.7-0.7,1.8-0.7,2.5,0c0.7,0.7,0.7,1.8,0,2.5
		C497.6,361.5,496.5,361.5,495.9,360.8z"/>
	<path class="st7" d="M510.7,346.4c-0.7-0.7-0.7-1.8,0-2.5c0.7-0.7,1.8-0.7,2.5,0c0.7,0.7,0.7,1.8,0,2.5S511.3,347,510.7,346.4"/>
	<path class="st7" d="M510.7,346.4c-0.7-0.7-0.7-1.8,0-2.5c0.7-0.7,1.8-0.7,2.5,0c0.7,0.7,0.7,1.8,0,2.5S511.3,347,510.7,346.4z"/>
	<path class="st7" d="M501.2,351.1c-0.7-0.7-0.7-1.8,0-2.5c0.7-0.7,1.8-0.7,2.5,0c0.7,0.7,0.7,1.8,0,2.5
		C503,351.8,501.9,351.8,501.2,351.1"/>
	<path class="st7" d="M501.2,351.1c-0.7-0.7-0.7-1.8,0-2.5c0.7-0.7,1.8-0.7,2.5,0c0.7,0.7,0.7,1.8,0,2.5
		C503,351.8,501.9,351.8,501.2,351.1z"/>
	<path class="st7" d="M517.7,351.3c-0.7-0.7-0.7-1.8,0-2.5s1.8-0.7,2.5,0c0.7,0.7,0.7,1.8,0,2.5C519.5,352,518.4,352,517.7,351.3"/>
	<path class="st7" d="M517.7,351.3c-0.7-0.7-0.7-1.8,0-2.5s1.8-0.7,2.5,0c0.7,0.7,0.7,1.8,0,2.5C519.5,352,518.4,352,517.7,351.3z"
		/>
	<path class="st7" d="M503,358.4c-0.7-0.7-0.7-1.8,0-2.5c0.7-0.7,1.8-0.7,2.5,0c0.7,0.7,0.7,1.8,0,2.5
		C504.7,359,503.6,359,503,358.4"/>
	<path class="st7" d="M503,358.4c-0.7-0.7-0.7-1.8,0-2.5c0.7-0.7,1.8-0.7,2.5,0c0.7,0.7,0.7,1.8,0,2.5
		C504.7,359,503.6,359,503,358.4z"/>
	<path class="st7" d="M531.2,353.9c-1.2-1.2-1.2-3,0-4.2c1.2-1.2,3-1.2,4.2,0c1.2,1.2,1.2,3,0,4.2
		C534.2,355.1,532.3,355.1,531.2,353.9"/>
	<path class="st7" d="M531.2,353.9c-1.2-1.2-1.2-3,0-4.2c1.2-1.2,3-1.2,4.2,0c1.2,1.2,1.2,3,0,4.2
		C534.2,355.1,532.3,355.1,531.2,353.9z"/>
	<path class="st7" d="M494.2,367.3c-1.2-1.2-1.2-3,0-4.2s3-1.2,4.2,0s1.2,3,0,4.2S495.3,368.5,494.2,367.3"/>
	<path class="st7" d="M494.2,367.3c-1.2-1.2-1.2-3,0-4.2s3-1.2,4.2,0s1.2,3,0,4.2S495.3,368.5,494.2,367.3z"/>
	<path class="st7" d="M514.8,347.5c-1.4-1.4-1.4-3.5,0-4.8c1.4-1.4,3.5-1.4,4.8,0c1.4,1.4,1.4,3.5,0,4.8
		C518.3,348.8,516.1,348.8,514.8,347.5"/>
	<path class="st7" d="M514.8,347.5c-1.4-1.4-1.4-3.5,0-4.8c1.4-1.4,3.5-1.4,4.8,0c1.4,1.4,1.4,3.5,0,4.8
		C518.3,348.8,516.1,348.8,514.8,347.5z"/>
	<path class="st7" d="M521.9,353.9c-1.2-1.2-1.2-3,0-4.2c1.2-1.2,3-1.2,4.2,0s1.2,3,0,4.2S523.1,355.1,521.9,353.9"/>
	<path class="st7" d="M521.9,353.9c-1.2-1.2-1.2-3,0-4.2c1.2-1.2,3-1.2,4.2,0s1.2,3,0,4.2S523.1,355.1,521.9,353.9z"/>
	<path class="st7" d="M527.1,372c-1,1-1,2.7,0,3.7c1,1,2.7,1,3.7,0c1-1,1-2.7,0-3.7C529.8,371,528.2,371,527.1,372"/>
	<path class="st7" d="M527.1,372c-1,1-1,2.7,0,3.7c1,1,2.7,1,3.7,0c1-1,1-2.7,0-3.7C529.8,371,528.2,371,527.1,372z"/>
	<path class="st7" d="M512.3,378.1c-1.2,1.2-1.2,3.2,0,4.4c1.2,1.2,3.2,1.2,4.4,0c1.2-1.2,1.2-3.2,0-4.4
		C515.5,376.9,513.6,376.9,512.3,378.1"/>
	<path class="st7" d="M512.3,378.1c-1.2,1.2-1.2,3.2,0,4.4c1.2,1.2,3.2,1.2,4.4,0c1.2-1.2,1.2-3.2,0-4.4
		C515.5,376.9,513.6,376.9,512.3,378.1z"/>
	<path class="st7" d="M500.3,366.5c-1,1-1,2.7,0,3.7c1,1,2.7,1,3.7,0c1-1,1-2.7,0-3.7C503,365.5,501.3,365.5,500.3,366.5"/>
	<path class="st7" d="M500.3,366.5c-1,1-1,2.7,0,3.7c1,1,2.7,1,3.7,0c1-1,1-2.7,0-3.7C503,365.5,501.3,365.5,500.3,366.5z"/>
	<path class="st7" d="M497.6,373.5c-1.3,1.3-1.3,3.4,0,4.7c1.3,1.3,3.4,1.3,4.7,0c1.3-1.3,1.3-3.4,0-4.7S498.9,372.2,497.6,373.5"/>
	<path class="st7" d="M497.6,373.5c-1.3,1.3-1.3,3.4,0,4.7c1.3,1.3,3.4,1.3,4.7,0c1.3-1.3,1.3-3.4,0-4.7S498.9,372.2,497.6,373.5z"
		/>
	<path class="st7" d="M522.3,383c-1,1-1,2.7,0,3.7c1,1,2.7,1,3.7,0c1-1,1-2.7,0-3.7C525,382,523.3,382,522.3,383"/>
	<path class="st7" d="M522.3,383c-1,1-1,2.7,0,3.7c1,1,2.7,1,3.7,0c1-1,1-2.7,0-3.7C525,382,523.3,382,522.3,383z"/>
	<path class="st7" d="M505,382.1c-1,1-1,2.7,0,3.7c1,1,2.7,1,3.7,0c1-1,1-2.7,0-3.7C507.8,381,506.1,381,505,382.1"/>
	<path class="st7" d="M505,382.1c-1,1-1,2.7,0,3.7c1,1,2.7,1,3.7,0c1-1,1-2.7,0-3.7C507.8,381,506.1,381,505,382.1z"/>
	<path class="st7" d="M527.8,381c-0.7,0.7-0.7,1.8,0,2.5s1.8,0.7,2.5,0s0.7-1.8,0-2.5S528.5,380.4,527.8,381"/>
	<path class="st7" d="M527.8,381c-0.7,0.7-0.7,1.8,0,2.5s1.8,0.7,2.5,0s0.7-1.8,0-2.5S528.5,380.4,527.8,381z"/>
	<path class="st7" d="M496.3,369.6c-0.7,0.7-0.7,1.8,0,2.4c0.7,0.7,1.8,0.7,2.5,0s0.7-1.8,0-2.5C498.1,368.9,497,368.9,496.3,369.6"
		/>
	<path class="st7" d="M496.3,369.6c-0.7,0.7-0.7,1.8,0,2.4c0.7,0.7,1.8,0.7,2.5,0s0.7-1.8,0-2.5C498.1,368.9,497,368.9,496.3,369.6z
		"/>
	<path class="st7" d="M511,384c-0.7,0.7-0.7,1.8,0,2.5c0.7,0.7,1.8,0.7,2.5,0s0.7-1.8,0-2.5S511.7,383.3,511,384"/>
	<path class="st7" d="M511,384c-0.7,0.7-0.7,1.8,0,2.5c0.7,0.7,1.8,0.7,2.5,0s0.7-1.8,0-2.5S511.7,383.3,511,384z"/>
	<path class="st7" d="M501.7,379.3c-0.7,0.7-0.7,1.8,0,2.5c0.7,0.7,1.8,0.7,2.5,0c0.7-0.7,0.7-1.8,0-2.5
		C503.4,378.6,502.3,378.6,501.7,379.3"/>
	<path class="st7" d="M501.7,379.3c-0.7,0.7-0.7,1.8,0,2.5c0.7,0.7,1.8,0.7,2.5,0c0.7-0.7,0.7-1.8,0-2.5
		C503.4,378.6,502.3,378.6,501.7,379.3z"/>
	<path class="st7" d="M518.1,379.1c-0.7,0.7-0.7,1.8,0,2.5c0.7,0.7,1.8,0.7,2.5,0c0.7-0.7,0.7-1.8,0-2.5
		C519.9,378.4,518.8,378.4,518.1,379.1"/>
	<path class="st7" d="M518.1,379.1c-0.7,0.7-0.7,1.8,0,2.5c0.7,0.7,1.8,0.7,2.5,0c0.7-0.7,0.7-1.8,0-2.5
		C519.9,378.4,518.8,378.4,518.1,379.1z"/>
	<path class="st7" d="M503.4,372c-0.7,0.7-0.7,1.8,0,2.5c0.7,0.7,1.8,0.7,2.5,0s0.7-1.8,0-2.5C505.1,371.3,504.1,371.3,503.4,372"/>
	<path class="st7" d="M503.4,372c-0.7,0.7-0.7,1.8,0,2.5c0.7,0.7,1.8,0.7,2.5,0s0.7-1.8,0-2.5C505.1,371.3,504.1,371.3,503.4,372z"
		/>
	<path class="st7" d="M531.6,376.5c-1.2,1.2-1.2,3,0,4.2c1.2,1.2,3,1.2,4.2,0c1.2-1.2,1.2-3,0-4.2
		C534.6,375.3,532.7,375.3,531.6,376.5"/>
	<path class="st7" d="M531.6,376.5c-1.2,1.2-1.2,3,0,4.2c1.2,1.2,3,1.2,4.2,0c1.2-1.2,1.2-3,0-4.2
		C534.6,375.3,532.7,375.3,531.6,376.5z"/>
	<path class="st7" d="M505.9,375.5c-1.4,1.4-1.4,3.5,0,4.9c1.4,1.4,3.5,1.4,4.9,0c1.4-1.4,1.4-3.5,0-4.9
		C509.5,374.1,507.3,374.1,505.9,375.5"/>
	<path class="st7" d="M505.9,375.5c-1.4,1.4-1.4,3.5,0,4.9c1.4,1.4,3.5,1.4,4.9,0c1.4-1.4,1.4-3.5,0-4.9
		C509.5,374.1,507.3,374.1,505.9,375.5z"/>
	<path class="st7" d="M515.5,383.9c-1.2,1.2-1.2,3,0,4.2c1.2,1.2,3,1.2,4.2,0c1.2-1.2,1.2-3,0-4.2
		C518.6,382.8,516.7,382.8,515.5,383.9"/>
	<path class="st7" d="M515.5,383.9c-1.2,1.2-1.2,3,0,4.2c1.2,1.2,3,1.2,4.2,0c1.2-1.2,1.2-3,0-4.2
		C518.6,382.8,516.7,382.8,515.5,383.9z"/>
	<path class="st7" d="M522.3,376.5c-1.2,1.2-1.2,3,0,4.2c1.2,1.2,3,1.2,4.2,0c1.2-1.2,1.2-3,0-4.2
		C525.4,375.3,523.5,375.3,522.3,376.5"/>
	<path class="st7" d="M522.3,376.5c-1.2,1.2-1.2,3,0,4.2c1.2,1.2,3,1.2,4.2,0c1.2-1.2,1.2-3,0-4.2
		C525.4,375.3,523.5,375.3,522.3,376.5z"/>
</g>
</svg>
