<?xml version="1.0" encoding="utf-8"?>
<!-- Generator: Adobe Illustrator 24.1.1, SVG Export Plug-In . SVG Version: 6.00 Build 0)  -->
<svg version="1.1" id="b41acc08-8e22-4855-9573-a5b5d021adc0"
	 xmlns="http://www.w3.org/2000/svg" xmlns:xlink="http://www.w3.org/1999/xlink" x="0px" y="0px" viewBox="0 0 1096 760"
	 style="enable-background:new 0 0 1096 760;" xml:space="preserve">
<style type="text/css">
	.st0{fill:#3752F5;}
	.st1{fill:#2F2E41;}
	.st2{fill:#A0616A;}
	.st3{fill:#D0CDE1;}
	.st4{fill:#3F3D56;}
	.st5{fill:#FFFFFF;}
</style>
<path class="st0" d="M0,0v368h368V0H0z M187,360c-5.5,0-10-4.5-10-10s4.5-10,10-10s10,4.5,10,10S192.5,360,187,360z"/>
<path class="st0" d="M1096,430c0,163.9-119.5,299.9-276.1,325.6c-17.8,2.9-35.8,4.4-53.9,4.4c-182.2,0-330-147.6-330-329.9
	c0,0,0-0.1,0-0.1c0-182.3,147.8-330,330-330c68.9-0.1,136,21.4,192,61.6C1041.6,221.5,1096,319.4,1096,430z"/>
<path class="st1" d="M995.1,109.9l28.7-8.9l2.5-25.2c0,0-69.7-26.3-92,20.2c-7.9,16.4-17.8,26.3-27.3,32.2
	c-13.1,8.1-29.3,9.1-43.8,3.8c-48.3-17.6-59.7,32.5-59.7,32.5s4.2,7.1,34,8.9c14.8,0.9,26.9,12,35.4,23
	c18.1,23.5,55.2,16.7,64.3-11.5c0.1-0.5,0.3-0.9,0.4-1.4c14.2-46.7,79.1-9.5,79.1-9.5l4.1-42.3L995.1,109.9z"/>
<circle class="st1" cx="799.8" cy="189" r="35.1"/>
<circle class="st1" cx="782.2" cy="282.6" r="93.6"/>
<circle class="st2" cx="779.3" cy="316.8" r="64.4"/>
<path class="st2" d="M754,365.5l11.7,62.4l58.5-7.8c0,0-9.8-48.8-3.9-62.4L754,365.5z"/>
<path class="st2" d="M465.3,607.3c0,0-66.3-39-72.2-11.7s66.3,39,66.3,39L465.3,607.3z"/>
<path class="st2" d="M869,229c0,0-46.8-35.1-66.3-21.5s52.7,58.5,60.5,54.6S869,229,869,229z"/>
<path class="st3" d="M824.2,387L754,398.7v31.2c0,0-66.3,21.5-66.3,31.2s-17.6,46.8-17.6,46.8s-42.9,31.2-7.8,68.3
	c0,0,13.7,21.5,3.9,23.4s-31.2,7.8-21.5,15.6s156,60.5,167.7,56.6s101.4-142.4,101.4-177.5s-37.1-85.8-37.1-85.8l-42.9-5.9
	L824.2,387z"/>
<path class="st3" d="M693.5,459.1c0,0-27.3-3.9-37.1,29.3s-42.9,140.4-42.9,140.4s-119-2-150.2-31.2l-13.7,44.9
	c0,0,179.4,64.4,195,52.7s83.9-200.9,83.9-200.9L693.5,459.1z"/>
<path class="st3" d="M871,414.3l5.9-5.9c0,0,74.1-80,72.2-99.5c0,0-39-48.8-87.8-35.1c0,0-21.5-52.7,11.7-50.7s156-5.9,154.1,50.7
	S908,504,908,504L871,414.3z"/>
<path class="st1" d="M819.9,755.6c-17.8,2.9-35.8,4.4-53.9,4.4c-57.4,0.1-113.8-14.8-163.6-43.3l11.6-23.5l36.9-74.8l1.6-3.3
	l26.9,8.1l135,40.7l0.4,6.2L819.9,755.6z"/>
<ellipse transform="matrix(0.3221 -0.9467 0.9467 0.3221 277.4586 921.5475)" class="st1" cx="782.2" cy="267" rx="41" ry="64.4"/>
<path class="st4" d="M188.6,352.6c13.6-24.8,46-40.6,72.6-26.4c12,6.4,21.5,17.7,24.5,31c3.5,15.5-3.9,30.3-11.5,43.3
	c-4.1,7.1-8.7,14-12.1,21.4c-3.5,7.7-6.1,16.6-3.4,25c2.4,7.6,8.4,13.1,15,17.1c7.3,4.3,15,7.7,23.1,10.3
	c16.6,5.5,34.1,7.8,51.5,6.7c8.7-0.6,17.3-2,25.7-4.1c8.9-2.3,17.7-5.2,26.7-7.4c15-3.7,32-5.6,46.2,1.9
	c13.8,7.3,19.9,22.4,21.9,37.2c3.5,27.2-7.3,55.5-26.8,74.6c-9.4,9.2-21.1,16.7-34,19.8c-11.2,2.7-25.6,2.5-34.5-5.8
	c-9.9-9.3-7.6-24.3,0.3-34.2c10.1-12.6,27.1-15.6,42.4-15.9c17.3-0.3,34.6,2.2,52,0.6c8.5-0.7,16.7-2.7,24.6-5.9
	c6.9-3,13.1-7.3,18.5-12.5c10.7-10.4,17.9-24.2,21.5-38.6c4.3-17.3,3.4-35.5,0-52.9c-1.8-9-4.1-17.8-6.9-26.5
	c-1.2-3.7-7-2.1-5.8,1.6c10.3,32.7,16.1,70.6-3.9,100.9c-8.3,12.9-21.1,22.1-35.9,25.9c-17.3,4.3-35.4,2.2-52.9,1.5
	c-16.7-0.6-35,0-49.3,9.8c-11.7,8-19.9,23.1-16.4,37.4c3.4,13.8,16.7,20.8,29.9,21.9c13.9,1.1,27.6-3.5,39.3-10.8
	c24.3-15.2,40.5-41.9,43.9-70.2c1.8-14.8,0-30.7-6.7-44.1c-3.5-7.3-9-13.4-15.8-17.7c-6.8-4.2-14.7-6.2-22.6-7
	c-17.9-1.7-35.2,4.5-52.2,9.2c-8.7,2.5-17.6,4.2-26.6,5.1c-8.7,0.7-17.6,0.6-26.3-0.4c-8.7-1-17.2-2.9-25.5-5.6
	c-8.1-2.5-15.9-6-23.1-10.4c-6.4-4.1-11.9-9.9-12.2-17.9c-0.3-8.6,4-16.7,8.2-24c8.2-14.4,18.3-28.5,20.4-45.3
	c1.9-14.7-4.1-29.3-14.3-39.8c-10.4-10.8-24.8-16.8-39.7-16.5c-15.2,0.4-29.7,7-40.9,17.2c-5.5,5-10.2,11-13.8,17.5
	C181.6,352.9,186.7,356,188.6,352.6L188.6,352.6z"/>
<path class="st5" d="M199,34c-24.2,0-43.8,19.6-43.8,43.8c0,15.1,7.8,29.2,20.7,37.2c0.1,0.1,0.3,0.1,0.4,0.2
	c4.3-12.5,17.9-19.2,30.5-15c7,2.4,12.6,7.9,15,15c0.1-0.1,0.3-0.1,0.4-0.2c20.5-12.8,26.9-39.8,14.1-60.3
	C228.2,41.8,214.1,34,199,34z M199,94.7c-8.6,0-15.5-7-15.5-15.5c0-8.6,7-15.5,15.5-15.5c8.6,0,15.5,7,15.5,15.5c0,0,0,0,0,0
	C214.5,87.8,207.6,94.7,199,94.7z"/>
<circle class="st5" cx="124" cy="156" r="8"/>
<circle class="st5" cx="124" cy="192" r="8"/>
<circle class="st5" cx="124" cy="228" r="8"/>
<circle class="st5" cx="124" cy="264" r="8"/>
<path class="st5" d="M154,220h90c4.4,0,8,3.6,8,8v0c0,4.4-3.6,8-8,8h-90c-4.4,0-8-3.6-8-8v0C146,223.6,149.6,220,154,220z"/>
<path class="st5" d="M154,256h90c4.4,0,8,3.6,8,8l0,0c0,4.4-3.6,8-8,8h-90c-4.4,0-8-3.6-8-8l0,0C146,259.6,149.6,256,154,256z"/>
<path class="st5" d="M154,184h90c4.4,0,8,3.6,8,8v0c0,4.4-3.6,8-8,8h-90c-4.4,0-8-3.6-8-8v0C146,187.6,149.6,184,154,184z"/>
<path class="st5" d="M154,148h90c4.4,0,8,3.6,8,8v0c0,4.4-3.6,8-8,8h-90c-4.4,0-8-3.6-8-8v0C146,151.6,149.6,148,154,148z"/>
</svg>
