<?xml version="1.0" encoding="utf-8"?>
<!-- Generator: Adobe Illustrator 24.1.1, SVG Export Plug-In . SVG Version: 6.00 Build 0)  -->
<svg version="1.1" id="f921693e-33a8-40f4-b606-3710578972cc"
	 xmlns="http://www.w3.org/2000/svg" xmlns:xlink="http://www.w3.org/1999/xlink" x="0px" y="0px" viewBox="0 0 859.4 767.8"
	 style="enable-background:new 0 0 859.4 767.8;" xml:space="preserve">
<style type="text/css">
	.st0{fill:#3F3D56;}
	.st1{opacity:4.000000e-02;fill:#6C63FF;enable-background:new    ;}
	.st2{opacity:0.7;}
	.st3{fill:url(#SVGID_1_);}
	.st4{fill:#3AD29F;}
	.st5{fill:#6C63FF;}
	.st6{fill:#FFB9B9;}
	.st7{fill:#3752F5;}
	.st8{fill:#575A89;}
	.st9{opacity:0.1;enable-background:new    ;}
	.st10{fill:#2F2E41;}
</style>
<path class="st0" d="M431.4,10.7l-269.7,166c0,0,0,342.3,269.7,529c269.7-186.7,269.7-529,269.7-529L431.4,10.7z"/>
<path class="st1" d="M433,10.7l-4.6,2.8v688.9c1.5,1.1,3.1,2.2,4.6,3.2c269.7-186.7,269.7-529,269.7-529L433,10.7z"/>
<g class="st2">
	
		<linearGradient id="SVGID_1_" gradientUnits="userSpaceOnUse" x1="344.921" y1="400.603" x2="505.399" y2="400.603" gradientTransform="matrix(1 0 0 -1 0 770)">
		<stop  offset="0" style="stop-color:#808080;stop-opacity:0.25"/>
		<stop  offset="0.5351" style="stop-color:#808080;stop-opacity:0.12"/>
		<stop  offset="1" style="stop-color:#808080;stop-opacity:0.1"/>
	</linearGradient>
	<polygon class="st3" points="366.1,347.1 416.9,393.7 480,302.8 505.4,323.9 416.9,436 344.9,355.5 	"/>
</g>
<polygon class="st4" points="378.1,349.9 419.3,387.7 477.8,301.8 498.4,318.9 419.3,422 360.9,356.7 "/>
<rect x="590" y="239.7" transform="matrix(0.9992 -3.874900e-02 3.874900e-02 0.9992 -9.3904 23.4832)" class="st5" width="22.2" height="28.6"/>
<path class="st6" d="M511.4,339.4c0,0-30.8-14.7-30.3-2c0.5,12.7,31,21.1,31,21.1L511.4,339.4z"/>
<path class="st7" d="M528.3,446.8c0,0-14.5,35.5-19.9,61.2s-13.5,60.9-3,86s40.4,98.6,40.7,106.5s-2.6,16,3.8,15.8
	s40.9-11.1,42.3-16s-11.8-17-11.8-17l-32.6-102.1l34-66.5l24.5,99.2l4.8,123.8c0,0,23.6-7.3,27-1c0,0,10.6-14.7,11.9-21.1
	S645,587,645,587s21.6-139.2,4.2-138.5S563.3,407.3,528.3,446.8z"/>
<path class="st8" d="M549.6,709.9c0,0-16.1,35.6-17.6,37.3s-12,18-4.1,17.6s26.7-9,40.5-22.2s32-36.2,30.3-37.7s-12.9-5.9-12.9-5.9
	L549.6,709.9z"/>
<path class="st8" d="M614,729.7c0,0-1,15.9-3.9,22.4s-2.6,16,5.4,15.7s28.5-4.3,28.5-4.3s1.2-9.6-0.4-11.1s-8.7-18.7-5.7-23.6
	S614,729.7,614,729.7z"/>
<path class="st6" d="M625.7,212.5c0,0,16.9,26.4,23.5,32.5s-12,19.5-12,19.5l-33.2,4.5c0,0,0.4-30.2-1.3-33.3
	S625.7,212.5,625.7,212.5z"/>
<path class="st7" d="M596.9,247c0,0,6.8,12.5,13.2,12.2c6.4-0.2,39.2-14.2,40.6-19.1s10.9,34.6,10.9,34.6l-80.4,141.4l-19.6-13.5
	l9.5-83l7.8-44.8L596.9,247z"/>
<path class="st8" d="M653.6,373.6c-3.2,6.7-5.2,13.7-4.9,20.9c0,0.3,0,0.6,0.1,1c0.8,14.7,6.2,31.7,8.1,44c1.4,8.9,1,15.3-4.2,16.9
	c-12.6,3.7,1.8,6.3-46.8,22.5s-57.2,2.2-57.3-1s6.9-27.3,5.2-28.8s-23.1,20-29.5,17s-0.7-19.1-0.7-19.1s14.6-34,14.3-41.9
	s22.1-45.4,22.1-45.4l15.2-99.2c0,0,5.9-12.9,13.7-14.8s14.4,2.6,14.4,2.6l-13.2,29.1l-13.9,51.4l2.3,19c0,0,16.2-34,26.8-47.1
	s33.3-44.2,33.3-44.2s5.3-17.8,1.3-23.2c-4-5.3,16.6-6.1,25.4,15.8c4.7,11.6,12.2,28.9,17,45.1c4.2,14.3,6.2,27.6,2,35.3
	C677.9,341.1,661.8,356.5,653.6,373.6z"/>
<path class="st9" d="M684.3,329.5c-6.4,11.7-22.5,27-30.7,44.1c-2.1-7.7-4.8-15.7-4.8-15.7s-10-53.7,19.6-67.5
	c4.9-0.5,9.8,0.9,13.8,3.9C686.5,308.5,688.5,321.8,684.3,329.5z"/>
<path class="st8" d="M566.5,326.1l-25.2,7.3l-34.9,1.4l-3.6,30.3l57.4,4.1C560.3,369.3,574.6,329,566.5,326.1z"/>
<path class="st6" d="M607.6,428.1c0,0-33.7,5.6-26,15.7c7.7,10.1,37.5-0.5,37.5-0.5L607.6,428.1z"/>
<path class="st9" d="M648.7,395.4c0.8,14.7,6.2,31.7,8.1,44c-10.7,10.1-20.9,19.1-24.8,19.2c-7.9,0.3-20.7-0.8-25.4,1
	s-7.5-28.3-7.5-28.3s2.8-9.6,15.3-14.9C623,412.9,639.2,403.2,648.7,395.4z"/>
<path class="st8" d="M668.1,280.8c0,0,26.9-4.2,25.4,40.4c-1.5,44.6,2.8,73-8,81.4c-10.8,8.4-45.9,46.3-53.8,46.6s-20.7-0.8-25.4,1
	s-7.5-28.3-7.5-28.3s2.8-9.6,15.3-14.9s42-23.9,41.8-30.2s-7.5-28.3-7.5-28.3S638.5,294.7,668.1,280.8z"/>
<circle class="st6" cx="602" cy="216.6" r="35"/>
<path class="st10" d="M578.5,166.5c-0.8,0.7-1.9,1.2-2.9,1.5c-1.1,0.2-2.2-0.5-2.4-1.7c-0.8,1.7-1.7,3.4-3.3,4.3s-4.2,0.1-4.4-1.7
	c-0.2,1.4-0.9,2.7-1.8,3.7c-1,1-2.8,1.2-3.7,0.1c0.7,3.9,0.3,7.9,0.5,11.9s1.3,8.2,4.3,10.8c4.4,3.8,10.9,2.9,16.7,2.1
	c0.9-0.2,1.8-0.1,2.6,0.1c2.2,0.9,2.1,3.9,2.1,6.3c0.4,8.5,6.8,15.5,15.2,16.5c2.3,0.4,4.6-0.2,6.5-1.6c1.6-1.4,2.5-3.6,4.3-4.7
	c3-1.7,6.7,0.8,9,3.5s4.4,6,7.9,6.5c4.6,0.6,8-4,9.7-8.3c4.7-12.1,4.4-25.6-1-37.5C628.2,157.6,595.7,154.3,578.5,166.5z"/>
</svg>
