<?xml version="1.0" encoding="utf-8"?>
<!-- Generator: Adobe Illustrator 24.1.1, SVG Export Plug-In . SVG Version: 6.00 Build 0)  -->
<svg version="1.1" id="fbcb77b8-9057-4a89-9c31-e27c7eb0ed40"
	 xmlns="http://www.w3.org/2000/svg" xmlns:xlink="http://www.w3.org/1999/xlink" x="0px" y="0px" viewBox="0 0 793.6 828"
	 style="enable-background:new 0 0 793.6 828;" xml:space="preserve">
<style type="text/css">
	.st0{fill:#3F3D56;}
	.st1{fill:none;stroke:#3F3D56;stroke-width:2;stroke-miterlimit:10;}
	.st2{fill:#E6E6E6;}
	.st3{fill:#3752F5;}
	.st4{fill:#FFFFFF;}
	.st5{fill:#A8A8A8;}
	.st6{opacity:0.2;enable-background:new    ;}
	.st7{fill:#2F2E41;}
	.st8{fill:#A0616A;}
	.st9{fill:#575A89;}
	.st10{opacity:0.1;enable-background:new    ;}
	.st11{fill:#F2F2F2;}
</style>
<ellipse class="st0" cx="401" cy="776" rx="294" ry="52"/>
<path class="st1" d="M156,286.2C156,210.4,267,149,404.1,149s248.1,61.4,248.1,137.2"/>
<path class="st2" d="M482.1,201.9H280.2c-39.9-67.3-39.9-134.6,0-201.9h201.9C426.3,67.3,426.3,134.6,482.1,201.9z"/>
<rect x="309.1" y="24" class="st3" width="113.7" height="14.4"/>
<rect x="272.2" y="71.3" class="st4" width="150.6" height="4.8"/>
<rect x="272.2" y="96.1" class="st4" width="150.6" height="4.8"/>
<rect x="272.2" y="121" class="st4" width="150.6" height="4.8"/>
<path class="st0" d="M562.7,648.7c0,64,40.2,115.8,89.8,115.8"/>
<path class="st3" d="M652.5,764.5c0-64.7,44.8-117.1,100.2-117.1"/>
<path class="st3" d="M595.2,654.5c0,60.8,25.6,110,57.3,110"/>
<path class="st0" d="M652.5,764.5c0-82.7,51.8-149.7,115.8-149.7"/>
<path class="st5" d="M633.6,765.3c0,0,12.7-0.4,16.6-3.1s19.6-6,20.5-1.6s19.1,21.8,4.8,21.9s-33.4-2.2-37.2-4.6
	S633.6,765.3,633.6,765.3z"/>
<path class="st6" d="M675.7,780.9c-14.4,0.1-33.4-2.2-37.2-4.6c-2.9-1.8-4.1-8.2-4.5-11.1c-0.3,0-0.4,0-0.4,0s0.8,10.3,4.6,12.6
	s22.9,4.7,37.2,4.6c4.1,0,5.6-1.5,5.5-3.7C680.4,780.1,678.8,780.9,675.7,780.9z"/>
<path class="st7" d="M357.8,157.7c1.2,0.5,2.6-0.3,3.3-1.3c2.6-4.1-2.2-9.5-1.2-14.2c0.8-3.8,5.2-6.1,6.1-9.9
	c0.9-3.7-1.8-7.9,0-11.3c1.4-2.6,4.9-3.3,7.9-2.9s5.8,1.8,8.7,1.9c4,0.2,7.8-1.5,11.6-2.4s8.6-0.5,10.9,2.7c2.9,4.2,0,10,1,15
	c0.8,4,4.1,7.3,4.2,11.3c0,1.4-3.8,0.3-3.6,1.7s-1.6,0.2-0.2,0c1.2-0.3,2.1-1.3,2.2-2.6c0.2-1.2,2.4-1.6,2.4-2.8
	c-0.1-2.8,5-0.9,5.9-3.6c1.9-6.3,1.5-13-1.1-19c-1.1-2.6-2.7-5-3.2-7.7c-0.7-3.7,0.4-7.7-0.8-11.3c-1.7-4.9-7.2-7.3-12.3-7.8
	s-10.3,0.4-15.4-0.3c-4.5-0.7-9-2.6-13.5-2.3c-5.5,0.3-10.3,3.9-14.1,7.9s-7.1,8.6-11.4,12c-1.3,0.9-2.6,2-3.7,3.1
	c-2.2,2.7-2.4,6.5-1.8,9.9s1.9,6.7,2.5,10.1c0.5,3.2,0.4,6.5,0.6,9.8s0.9,6.6,2.9,9.2c1.6,2.2,4.1,3.5,6.8,3.5
	c0.9,0,1.7-0.8,2.6-0.6C356.3,156.1,356.8,157.2,357.8,157.7z"/>
<polygon class="st8" points="318.5,394.7 322,415.6 328.8,406.4 324.9,392.3 "/>
<path class="st9" d="M322.9,236.7l-5.4,14.1c0,0-5.3,72-5.3,77.3s3.9,73.9,5.3,76.8c0,0,6.3-9.2,14.6-7.8s4.9-24.3,4.9-24.3
	l7.8-63.7l-1.5-32.1L322.9,236.7z"/>
<path class="st10" d="M322.9,236.7l-5.4,14.1c0,0-5.3,72-5.3,77.3s3.9,73.9,5.3,76.8c0,0,6.3-9.2,14.6-7.8s4.9-24.3,4.9-24.3
	l7.8-63.7l-1.5-32.1L322.9,236.7z"/>
<path class="st8" d="M356,158.8c0,0,16,40.9,6.8,48.6s51.6-13.1,51.6-13.1l-1.5-5.3c0,0-19.9-7.8-10.2-30.2S356,158.8,356,158.8z"/>
<path class="st10" d="M356,158.8c0,0,16,40.9,6.8,48.6s51.6-13.1,51.6-13.1l-1.5-5.3c0,0-19.9-7.8-10.2-30.2S356,158.8,356,158.8z"
	/>
<path class="st9" d="M330.7,704.5c0,0-6.8-1.9-10.7,2.9s-18.5,17-18.5,17s-28.2-2.9-32.1,11.2s44.3,14.1,55.9,10.7s14.1,0,14.1,0
	s36,2.9,36-2.9s-3.4-25.8-3.4-25.8L330.7,704.5z"/>
<path class="st9" d="M445,737.1l-6.3,19.5c0,0-19,26.3-8.3,31.6s48.6,10.7,48.6-3.4V758c0,0-3.9-19-7.8-20.9S445,737.1,445,737.1z"
	/>
<path class="st7" d="M337.6,387.6c0,0-20.5,17.8-20,20.2s10.2,158.5,10.2,158.5l5.3,101.2c0,0-6.8,23.8-3.4,29.2s-4.9,6.8-4.9,6.8
	s35,31.6,49.6,18L388.1,545l37.4,128.4c0,0,6.3,68.1,13.6,68.1s37,1.5,36.5-2.4s1.5-33.6-1.9-51.1s-26.3-156.1-26.3-156.1
	s-2-118.8,3.2-129.9s-2.7-22.8-2.7-22.8l-34-13.1l-40.9,4.9L337.6,387.6z"/>
<circle class="st8" cx="378.9" cy="141.3" r="34"/>
<path class="st9" d="M461.5,214.8c-3.4-9.7-11.5-17-21.4-19.5c-9.8-2.5-19.4-5.7-28.7-9.7c0,0-34.5,16.5-41.3,16.5s-6.8-4.4-6.8-4.4
	s-17.5,18.5-26.7,20.4s-22.9,24.8-18,37.4c3.3,8.1,8.1,15.5,14.1,21.9c0,0-1.9,68.1,4.4,80.7c0,0-15.6,29.7-1,31.6
	s70.5-4.9,80.2,1.9s27.7-1.5,30.2,7.8s7.8,11.2,7.8,11.2s8.3-13.1,3.4-20.9S461.5,214.8,461.5,214.8z"/>
<path class="st8" d="M425.5,397.6l-7.8,4.9c0,0,8.3,28.7,11.7,29.7s11.4-24.5,11.4-24.5L425.5,397.6z"/>
<path class="st7" d="M352,154.3c1.2,0.5,2.6-0.3,3.3-1.3c2.6-4.1-2.2-9.5-1.2-14.2c0.8-3.8,5.2-6.1,6.1-9.9c0.9-3.7-1.8-7.9,0-11.3
	c1.4-2.6,4.9-3.3,7.9-2.9s5.8,1.8,8.7,1.9c4,0.2,7.8-1.5,11.6-2.4s8.6-0.5,10.9,2.7c2.9,4.2,0,10,1,15c0.8,4,10.1,6.8,10.9,4.1
	c1.9-6.3,1.5-13-1.1-19c-1.1-2.6-2.7-5-3.2-7.7c-0.7-3.7,0.4-7.7-0.8-11.3c-1.7-4.9-7.2-7.3-12.3-7.8s-10.3,0.4-15.4-0.3
	c-4.5-0.7-9-2.6-13.5-2.3c-5.5,0.3-10.3,3.9-14.1,7.9c-3.8,4-7.1,8.6-11.4,12c-1.3,0.9-2.6,2-3.7,3.1c-2.2,2.7-2.4,6.5-1.8,9.9
	s1.9,6.7,2.5,10.1c0.5,3.2,0.4,6.5,0.6,9.8s0.9,6.6,2.9,9.2c1.6,2.2,4.1,3.5,6.8,3.5c0.9,0,1.7-0.8,2.6-0.6
	C350.5,152.7,351,153.8,352,154.3z"/>
<path class="st10" d="M442.3,223.3l15.8-8.5c0,0,38.4,91.4,29.2,116.7s-44.7,77.3-44.7,77.3s-28.2-5.8-25.3-11.7
	s21.9-43.3,23.3-48.1s11.2-36.5,6.8-39.9s-12.9-82.4-12.9-82.4L442.3,223.3z"/>
<path class="st9" d="M442.1,209.4l19.5,5.3c0,0,38.4,91.4,29.2,116.7S446,408.8,446,408.8s-28.2-5.8-25.3-11.7s21.9-43.3,23.3-48.1
	s11.2-36.5,6.8-39.9s-25.3-87.5-25.3-87.5L442.1,209.4z"/>
<path class="st1" d="M652.2,286.2c0,79.4-111.1,143.8-248.1,143.8S156,365.6,156,286.2"/>
<path class="st1" d="M607.1,432.1c-55.5,29.9-127.8,48-207,48c-75.9,0-145.5-16.6-200-44.4"/>
<path class="st1" d="M528,111.9c105.5,27.7,180.7,88.8,187.7,160.6"/>
<path class="st1" d="M99.2,225.8c17.8-32.7,50.3-61.5,92.8-83.5"/>
<path class="st11" d="M317.4,575.7h201.9c39.9-67.3,39.9-134.6,0-201.9H317.4C373.2,441.1,373.2,508.4,317.4,575.7z"/>
<rect x="384.1" y="412.3" class="st3" width="113.7" height="14.4"/>
<rect x="375.3" y="455.6" class="st4" width="150.6" height="4.8"/>
<rect x="375.3" y="476.9" class="st4" width="150.6" height="4.8"/>
<rect x="371.2" y="498.3" class="st4" width="150.6" height="4.8"/>
<path class="st11" d="M231.8,438.7H29.9c-39.9-67.3-39.9-134.6,0-201.9h201.9C176,304.1,176,371.4,231.8,438.7z"/>
<rect x="52.4" y="260.9" class="st3" width="113.7" height="14.4"/>
<rect x="27.5" y="300.9" class="st4" width="150.6" height="4.8"/>
<rect x="27.5" y="325.8" class="st4" width="150.6" height="4.8"/>
<rect x="27.5" y="350.6" class="st4" width="150.6" height="4.8"/>
<rect x="27.5" y="375.4" class="st4" width="150.6" height="4.8"/>
<path class="st11" d="M561.8,345.7h201.9c39.9-67.3,39.9-134.6,0-201.9H561.8C617.6,211.2,617.6,278.4,561.8,345.7z"/>
<rect x="626.2" y="163.9" class="st3" width="113.7" height="14.4"/>
<rect x="614.2" y="203.9" class="st4" width="150.6" height="4.8"/>
<rect x="620" y="226.9" class="st4" width="150.6" height="4.8"/>
<rect x="626.2" y="249.8" class="st4" width="150.6" height="4.8"/>
</svg>
