<?xml version="1.0" encoding="utf-8"?>
<!-- Generator: Adobe Illustrator 24.1.1, SVG Export Plug-In . SVG Version: 6.00 Build 0)  -->
<svg version="1.1" id="_x38_75ecf71-6e24-4878-8942-f452de3ecca7"
	 xmlns="http://www.w3.org/2000/svg" xmlns:xlink="http://www.w3.org/1999/xlink" x="0px" y="0px" viewBox="0 0 1149.1 755.5"
	 style="enable-background:new 0 0 1149.1 755.5;" xml:space="preserve">
<style type="text/css">
	.st0{opacity:0.1;fill:#6C63FF;enable-background:new    ;}
	.st1{fill:url(#SVGID_1_);}
	.st2{fill:#65617D;}
	.st3{opacity:0.1;enable-background:new    ;}
	.st4{fill:#A5636D;}
	.st5{fill:#E7EFFD;}
	.st6{fill:#3F3D56;}
	.st7{fill:#5F5D7E;}
	.st8{fill:#3752F5;}
	.st9{fill:#4C3E42;}
	.st10{opacity:0.1;}
	.st11{fill:#E6E8EC;}
	.st12{fill:#6C63FF;}
	.st13{fill:#444053;}
	.st14{opacity:0.7;}
	.st15{fill:url(#SVGID_2_);}
	.st16{fill:#FBBEBE;}
	.st17{opacity:5.000000e-02;enable-background:new    ;}
	.st18{fill:#5C5C8E;}
	.st19{fill:none;}
	.st20{fill:#F7CDDD;}
	.st21{fill:#7C5C5C;}
	.st22{fill:#3ACC6C;}
	.st23{opacity:0.5;}
</style>
<path class="st0" d="M1065.6,619.9c-3.6,3.2-7.3,6.2-11,9.2c-0.6,0.5-1.3,1-1.9,1.5c-13.4,10.4-27.4,19.8-42,28.4l-2.7,1.6
	c-0.7,0.4-1.3,0.8-2,1.1c-15.3,8.8-31.1,16.9-47.1,24.6l-0.2,0.1l-1.2,0.6c-12.9,6.2-26,12.1-39.3,17.8l-0.3,0.1c-6,2.5-12,5-18,7.4
	c-2.5,1-4.9,1.9-7.4,2.9c-4.6,1.8-9.3,3.5-14,5.2l-0.6,0.2l-1,0.3l-1.3,0.5c-12.2,4.4-24.6,8.4-37.1,12.1l-0.2,0.1
	c-8.7,2.5-17.5,4.9-26.4,7.1l-1.2,0.3c-13,3.1-26.2,5.8-39.5,8l-3.1,0.5c-9.7,1.5-19.5,2.8-29.4,3.7c-55.4,5.3-111.4,1-166.5-6.5
	C461,731.6,351.3,703.4,251.3,659c-19.2-8.5-38-17.6-56.5-27.3c-0.1-0.1-0.3-0.2-0.4-0.2c-11-5.8-21.9-11.9-32.7-18.2
	c-3.1-1.8-6.3-3.7-9.4-5.5c-3.8-2.3-7.6-4.6-11.4-7c-5-3.1-10-6.3-15-9.6l-2.3-1.6l-0.9-0.6c-1.3-0.8-2.5-1.7-3.8-2.6
	c-47-32-88.9-70.8-108.7-119.3c-22.9-56-8.2-127,48.4-160.1c19.5-11.4,42.1-17.6,65-22.7l2.3-0.5c3.9-0.9,7.7-1.7,11.6-2.5
	c13.5-2.9,27.1-5.7,40.5-8.9l0,0c7-1.6,13.9-3.4,20.8-5.3l2.8-0.8c16.6-4.5,32.9-10.2,48.6-17.1h0.1c1.7-0.8,3.4-1.5,5-2.3
	c1.1-0.5,2.1-1,3.2-1.5c17-8.5,35-20.2,48.9-34.2c1.1-1.1,2.2-2.3,3.2-3.4c0.8-0.9,1.6-1.8,2.4-2.7c9.7-11.3,16.4-23.9,17.7-37.2
	l0,0c0.4-4.5,0.2-9-0.6-13.4c-1.6-8.4-3.1-16.6-4.2-24.6c-2.1-15-2.8-29.4,0.1-43.3l0,0c3-14.1,9.6-27.8,22.4-40.9c1.9-2,4-4,6.2-6
	c10.3-9.1,22-16.4,34.6-21.9c1.6-0.7,3.1-1.3,4.7-2C429.2,1.6,471.3-1.4,510.7,0.6c36.8,1.9,73.3,7,109.3,15.2
	c2.8,0.6,5.7,1.3,8.5,2c30.5,7.4,60.6,16.7,90,27.8c76.4,28.7,148.5,68.6,215.8,112.6c0.7,0.4,1.3,0.9,2,1.3
	c2.8,1.8,5.6,3.7,8.4,5.5c5.4,3.6,10.7,7.2,16,10.8l3.6,2.4c1.8,1.2,3.5,2.4,5.3,3.6l5.4,3.7l0,0c0.3,0.2,0.5,0.3,0.7,0.5l4.6,3.2
	c2.6,1.8,5.3,3.7,7.9,5.5l0,0l5.6,4c1.2,0.8,2.3,1.7,3.5,2.5l6,4.4l1.3,1c0.3,0.2,0.6,0.4,0.8,0.6l0.2,0.1
	c16.3,11.9,32.1,24.3,47,37.4l1.9,1.7l0.2,0.2c1.6,1.4,3.2,2.9,4.8,4.4c19.4,17.7,36.8,36.7,51,57.7
	C1175.9,405.8,1156.5,540.1,1065.6,619.9z"/>
<linearGradient id="SVGID_1_" gradientUnits="userSpaceOnUse" x1="974.2698" y1="-276.44" x2="974.2698" y2="310.6564" gradientTransform="matrix(1 0 0 -1 -25.44 443.76)">
	<stop  offset="0" style="stop-color:#808080;stop-opacity:0.25"/>
	<stop  offset="0.54" style="stop-color:#808080;stop-opacity:0.12"/>
	<stop  offset="1" style="stop-color:#808080;stop-opacity:0.1"/>
</linearGradient>
<path class="st1" d="M1108.4,340.7c0.6-1.7-4.1-11.4-4.1-11.9s-5-5.9-5-8.9s-6.5-9.5-6.5-9.5s-8.8-3.6-9.7-11.6s-10.2-8.1-10.5-8.1
	c0,0,0-0.7,0.1-1.8c0-2.5-0.1-6.9-1.2-9.3c-1.1-2.2-3.1-3.8-5.4-4.6c0,0-1-6.2-2.9-8.1c-2.2-2.3-3-5.5-2.2-8.6
	c0.5-1.7,0.1-4.8-1.3-7.4c-1-2.1-2.6-3.8-4.7-4.3h-0.2c-4.6-1.1-9.7-2.8-9.7-2.8s-0.5,0.1-1.3,0.2l-0.6-0.2
	c-1.1,0.2-2.2,0.3-3.3,0.4c-1,0-1.9-0.3-2.7-0.9c-1.6-1.8-14.5-5.1-16.9-5.1s-9.3-3.2-9.3-3.2l-6.8-5.2c-1.9-1.5-5.5-7.4-6-8.3
	l-0.1-0.1l0,0c-0.5-1.1-0.9-2.3-1.3-3.5c-0.1-0.2-0.1-0.4-0.2-0.7l0,0c1.4-1.5,2.7-3,3.8-4.7l0,0c0.3-0.4,0.6-0.9,0.9-1.4
	c0.4-0.7,0.8-1.4,1.2-2.1c0.2-0.3,0.3-0.6,0.5-0.9c0.3,0,0.7-0.1,1-0.2l0.4-0.2c0.4-0.2,0.8-0.4,1.1-0.7l0.3-0.3
	c0.9-0.9,1.6-1.9,2-3.1c0.1-0.3,0.2-0.7,0.3-1c0-0.1,0.1-0.3,0.1-0.4s0.1-0.5,0.2-0.7l0.1-0.4c0-0.3,0.1-0.5,0.1-0.7s0-0.3,0-0.4
	c0-0.3,0.1-0.6,0.1-0.9c0.1-1.1,0.3-2.2,0.5-3.3l0,0c0.5-2.1,1.3-4.2,2.4-6.1c1-1.9,2.1-3.8,3-5.8l0,0c0.3-0.6,0.5-1.1,0.7-1.7
	c0.2-0.6,0.4-1.3,0.6-1.9c0-0.2,0.1-0.4,0.1-0.6c0.1-0.5,0.2-0.9,0.3-1.4c0.1-0.2,0.1-0.4,0.1-0.6c0.1-0.7,0.2-1.3,0.3-2
	c0.3-3.8-0.2-7.6-1.6-11.1c-1.2-3-3-5.6-4.2-8.6c-1.8-4.5-2.3-9.6-4.6-13.9c-3.8-7.2-12.6-10.8-19.9-8.1c-3.5,1.3-6.5,3.8-10,4.9
	c-4.7,1.5-9.8,0.4-14.6-0.3s-10.3-0.7-14.2,2.4c-4.5,3.7-5.8,10.6-10,14.6c-1,0.9-2.1,1.8-3.3,2.5c-0.9,0.6-1.7,1.2-2.5,1.8
	c-1.3,1-2.3,2.4-3,4c0,0.1-0.1,0.2-0.1,0.3s-0.1,0.3-0.1,0.4c0,0.1,0,0.3-0.1,0.5s0,0.2,0,0.3c0,0.2,0,0.5,0,0.7l0,0v0.1
	c0,0.3,0.1,0.5,0.1,0.8c0,0.1,0,0.1,0,0.2c0,0.1,0.1,0.5,0.2,0.7v0.1c0.1,0.2,0.2,0.5,0.3,0.7c0,0.1,0.1,0.2,0.1,0.4
	c0.1,0.1,0.1,0.2,0.1,0.3c0.6,1.2,1.1,2.4,1.5,3.7c0.2,0.8,0.1,1.7-0.2,2.4c-0.2,0.4-0.4,0.7-0.6,1.1c-0.3,0.4-0.7,0.9-1.1,1.2
	c-3.2,3.3-5.6,7.2-7.2,11.5c-0.2,0.5-0.3,1-0.5,1.5l0,0l0.2,0.1h0.2c0.4,0.1,0.8,0.2,1.2,0.3c0.3,0,0.5,0.1,0.8,0.1
	c1.1,0.1,2.2,0,3.3-0.3c0.2,0,0.4-0.1,0.5-0.1l0,0c0.1,0,0.1,0,0.2,0h0.1c0.9-0.2,1.8-0.5,2.6-0.9c0.2-0.1,0.4-0.2,0.6-0.3
	c0,0.3,0,0.6,0,1s0,0.4,0,0.5c0,0.4,0,0.8,0,1.3s0,0.6,0,0.9c0.8,12.8,8,24.3,19.2,30.6c0.6,0.3,1.1,0.6,1.7,0.9
	c0,0.3,0.1,0.7,0.1,1s0.1,0.6,0.1,0.9l-0.4-0.4c-0.4-0.2-0.8-0.2-1.2-0.2c-0.7,0-1.3,0.2-1.9,0.5c-1,0.6-1.9,1.4-2.5,2.4
	c-2.7,4.1-7.8,6-7.8,6s-29,4.6-30.1,8.4l-13.6,0.8c0,0-4.8,0.6-5.3,10.6v0.1v0.1c-0.1,1.2-0.2,2.3-0.3,3.2v0.1
	c-0.8,6.6-2.7,7.4-2.7,7.4s-5.6,9.8-5.1,14.9v0.1l0,0c0.1,0.7,0,1.4-0.1,2l0,0c-0.6,2.3-2.1,4.2-4.2,5.4l-0.6,9c0,0-5.3-0.8-6.7,5.4
	s-4,9-4,9s-8.8,7.3-9.3,13.5l-5.4,3.3c0,0-12.6-2.9-15.5-7.9c0,0-0.3-0.3-0.9-0.8l-0.1-0.1c0,0,0,0,0,0.1c-1.9-1.8-5.9-5.5-5.3-4.6
	c0.4,0.8,0.5,1.7,0.3,2.6l-0.9-1l-2.5-2.8c0,0-3.6-3.4-8.6-7.4l0,0c-1.2-0.9-2.4-1.9-3.7-2.8c-6.5-4.8-14.2-9.6-20-10.4
	c-0.1-0.2-0.6-2-1.7-2c-0.5,0-0.9,0.3-1.2,0.6c-6.8,6.2-7.2,16.7-1,23.5c0.3,0.3,0.6,0.6,0.9,0.9l1.3,1.2l4.1,3.8l13.7,12.8
	c0.2,0.1,0.3,0.3,0.5,0.4l0.8,1l0.6,0.8l1.1,1.4l1.6,2c-0.1,0.2-0.2,0.4-0.2,0.6c-0.6,1.4-1.1,2.8-1.5,4.1v0.1
	c-0.1,0.3-0.2,0.6-0.3,0.9c0,0.1-0.1,0.2-0.1,0.3c-0.1,0.3-0.2,0.6-0.3,0.9s-0.1,0.4-0.1,0.5s-0.1,0.2-0.1,0.3
	c-0.5,1.6-0.7,2.8-0.9,3.5l-1.1-0.3l1,0.5c0,0.1,0,0.1,0,0.2l-0.1,0.3c0.3,0.1,0.6,0.3,1,0.4l0.2,0.1l3.9,1.7l0,0
	c0.8,0.4,1.7,0.7,2.6,1.1s1.6,0.7,2.5,1.1l0,0c10.2,4.6,24.6,11.1,25.6,12.4c1.6,2.1,12.1,8.1,21.7,3s11.6-12.8,11.6-12.8
	s9.3-12.8,9.6-14.7c0.2-1.5,4.5-3.1,6.5-3.8l0.2-0.1l0.8-0.3c0,0,0,0.4,0,1.1l0,0c0,0.4,0,0.8,0,1.3c0,4.5-0.1,14.2-1.5,21.2
	c0,0,0,0,0,0.1c-0.3,1.8-0.8,3.6-1.6,5.3c-3.7,7.8-10.5,42.1-10.5,42.1h0.2c0.4-0.1,0.8-0.1,1.2-0.1c-0.1,0.6-0.2,1.1-0.3,1.5
	s-0.1,0.5-0.1,0.5h0.1c0.4-0.1,0.8-0.1,1.2-0.1c0.1,0,0.3,0,0.4,0c0,0.2-0.1,0.4-0.1,0.7v0.1v0.1c0,0-0.1,0.3-0.1,0.5
	c-0.8,5.7-3.2,20.6-3.2,20.6s-1,8.2-2.6,11.1c-0.7,1.2-1.1,4.6-1.3,8c0,0.5-0.1,1-0.1,1.5c-0.3,4.2-0.3,8.2-0.3,8.2l-0.1,0.3
	l-2.3,10.7c0,0.1,0.1,0.2,0.1,0.3l0,0c0.2,0.3,0.4,0.9,0.8,1.5l0,0l0.1,0.3c1.4,2.9,3.3,5.5,5.5,7.8c0.5,0.5,1.1,1,1.7,1.4l0,0
	c0,0.1,0,0.3-0.1,0.3s-0.1,0.4-0.1,0.6c-0.2,1.4-0.6,2.7-1.1,4c-0.6,1.4-1,2.9-1.1,4.4l0,0c-0.1,1.1-0.2,2.2-0.1,3.2l-0.1,0.6l0,0
	c-0.3,1.6-1.3,6.4-1.9,10.3c-0.1,0.9-0.3,1.8-0.3,2.5c-0.1,0.7-0.1,1.5,0,2.2c0.1,1.3,0,2.5-0.2,3.7c0,0.4-0.1,0.7-0.1,1.1
	c-0.5,3.5-1.4,7.2-1.4,7.2l-2.9,27.5v0.5c0,0.1,0,0.3,0,0.6s0,0.4,0,0.6s0,0.5-0.1,0.7c0,0.7-0.1,1.4-0.2,2.3c0,0.3,0,0.7-0.1,1
	c0,0.3,0,0.6-0.1,1c0,0.2,0,0.3,0,0.5s0,0.5,0,0.8s0,0.5,0,0.8s0,0.5,0,0.7c-0.1,1.5-0.2,3.1-0.3,4.7c0,0.3,0,0.5,0,0.8v0.8
	c0,0.5,0,1-0.1,1.5c0,0.3,0,0.7,0,1s0,0.9,0,1.4v0.3c0,0.3,0,0.6,0,0.9c0,0.7,0,1.3,0,2c0,0.3,0,0.6,0,0.8c0,0.9,0,1.8,0,2.6
	c0,0.4,0,0.8,0,1.2c0,1.1,0.1,2.1,0.2,3.2c0.1,0.8,0.2,1.6,0.2,2.4c0,0.4,0,0.8,0,1.2c0,0.2,0,0.4,0,0.6c0,0.2,0,0.4,0,0.6
	s0,0.5,0,0.8c0,0.4,0,0.8,0,1.2c0,0.2,0,0.3,0,0.5s0,0.6,0,0.9v0.5c-0.3,3.4-0.7,6.2-0.8,6.7l0,0l0,0c0,0,0,0.1,0,0.3s0,0.2,0,0.2
	s0,0.2,0,0.3s0,0.1,0,0.2c0,0.3,0.1,0.6,0.1,0.9c0,0.2,0,0.3,0,0.5l0,0c0,0.2,0,0.4,0.1,0.6s0,0.2,0,0.3c0,0.4,0.1,0.7,0.1,1.1
	s0.1,0.8,0.1,1.2l0.1,0.8c0,0.4,0.1,0.8,0.1,1.2v0.4c0,0.3,0.1,0.5,0.1,0.8l0.1,1.2c0,0.3,0.1,0.5,0.1,0.8s0,0.3,0,0.4l0.1,1.6
	c0,0.3,0,0.5,0,0.8c0,0.4,0.1,0.8,0.1,1.3s0,0.9,0.1,1.3s0,0.8,0.1,1.2c0.1,1.1,0.1,2.3,0,3.4c-0.3,1.1-1.1,4.3-1.6,7.8
	c0,0.3-0.1,0.6-0.1,0.9s0,0.4,0,0.6l-0.1,0.8c0,0.6-0.1,1.2-0.1,1.8c0,1.3,0.1,2.7,0.5,4c0.2,0.9,0.4,1.7,0.5,2.6c0,0.1,0,0.3,0,0.4
	c0,0.3,0.1,0.7,0.1,1s0,0.7,0.1,1c0,0.7,0.1,1.4,0.1,2.2c0,0.5,0,1,0,1.5c0.1,4.2-0.1,8.3-0.2,9.4v0.1c0,0.1,0,0.2,0,0.2
	s1,17.8,2.1,23.4c0.1,0.8,0.2,1.5,0.3,2.3c0,0.3,0,0.6,0,0.9c0.1,3.3-0.1,6.6-0.7,9.8c0,0-1.1,12.2-1.6,12.2c-0.2,0-1.3,1.9-1.4,4.7
	v0.1c-0.1,3.2,0.8,7.5,5.3,11.8l0.5,0.5l0.6-0.2c4.7-1.7,9.3-3.4,14-5.2c2.5-1,4.9-1.9,7.4-2.9c6.1-2.4,12.1-4.9,18-7.4l0,0
	c-0.3-0.1-0.5-0.4-0.6-0.7c-0.9-2.5,0.5-10,0.7-11.2s2.9-25.8,2.9-25.8s-1-7.8,0.3-11.1s-1.6-16.2-1.6-16.2s-1-1.6,0.8-3.5
	s1.1-18.8,1.1-18.8s-0.2-8.6-0.2-10.8s1.9-10.3,3.7-13s0.7-11.1,0.7-11.1l0,0l0.1-0.6c0-0.2,0.1-0.5,0.1-0.9l0.2-0.8
	c0.8-4.6,1.8-9.2,3.1-13.8c2.1-6.7,4.5-18.4,4.5-18.4l14-37.4l0,0l0.5-1.2l0.2-0.5c0,0,6.8,12.7,6.8,24.4c0,0,1.8,14.1,1.3,17.9
	s1.4,21.7,1.4,21.7s2.1,25.7,2.1,26.8s2.6,20.8,4.2,23.8s-1.6,12.2-2.5,13.2s0.3,24.2,0.3,24.2s-2.4,18.4-2.9,22.2
	c-0.1,0.7-0.2,1.7-0.4,3c16-7.7,31.8-15.8,47.1-24.6c0.7-0.4,1.3-0.7,2-1.1l0.1-22.7c0,0,1.1-10.6-0.2-14.9s-2.6-12.5-0.8-14.7
	s0.2-12.5,0.2-12.5s0-21.7,2.4-27.1s1.6-39.4,1.6-39.4l0.6-22.3c0,0,5.1-4.8,4-29.8c0-0.3,0-0.6,0-0.8c5.6-0.3,11.8-0.5,12.8,0.2
	c1.5,1.2,10.1,6.8,16.7,5.4l0,0c1.1-0.2,2.1-0.6,3.1-1.3c1.4-0.6,8-6.2,8-6.2l-2.5-42.7l0,0l-0.3-4.8c0.5,0.7,0.9,1.4,1.3,2
	c1,1.5,1.6,2.5,1.6,2.5c0-6.6,18.8-28.2,18.8-28.2s17.6-22.6,21.4-25.4s11.3-17,11.3-17c1.1-2.7,2.4-5.4,3.8-7.9
	C1113.6,350.1,1107.8,342.4,1108.4,340.7z M1052.3,371.1c-0.3,1.6-1.1,3-2.1,4.3c-0.1-1-0.2-1.9-0.2-2.9c0-0.1,0-0.2,0-0.3
	c-1.1-13.9-2.3-30.8-1.8-32.5c0.4-1.3,0.6-4.8,0.7-8.2l0,0c0.1-3.8,0-7.5,0-7.5l0,0l0.2-0.3c3.2,10,13.2,21.7,13.2,21.7
	s1.8,5.1,3.8,5.2s1.3,6.6,1.3,6.6c-1,0.2-1.9,0.5-2.7,1c-1,0.6-1.9,1.2-2.8,1.9l0,0C1057.2,363.8,1052.4,369.5,1052.3,371.1z"/>
<path class="st2" d="M811.6,353.8c0,0,5.8-30.5,24.5-30.7l13.7,28.1l-9.2,6.3C840.6,357.5,820.8,358.1,811.6,353.8z"/>
<path class="st3" d="M849.7,351.2l-9.2,6.3c0,0-13.9,0.4-23.9-2c-1.8-0.4-3.5-1-5.1-1.7c0,0,0-0.2,0.1-0.5v-0.1
	c0.9-3.8,2-7.6,3.5-11.2c0.6-1.4,1.2-2.8,1.9-4.2c2.7-5.3,6.6-10.4,11.9-13c1.9-1,4.1-1.5,6.2-1.6h0.6h0.3l0.3,0.6l4.6,9.5
	L849.7,351.2z"/>
<path class="st2" d="M1005,477.9c0,0,19.7-1.9,21.4-0.5s12.9,8.7,19.5,4.1s2.2-20.4,2.2-21.1s-0.6-23.1-0.6-23.1l-11.8-15.9
	l-14.8-27.8l-30.2-3l0.8,44.2l-0.2,22.6L1005,477.9z"/>
<path class="st3" d="M1005,477.9c0,0,19.7-1.9,21.4-0.5s12.9,8.7,19.5,4.1s2.2-20.4,2.2-21.1s-0.6-23.1-0.6-23.1l-11.8-15.9
	l-14.8-27.8l-30.2-3l0.8,44.2l-0.2,22.6L1005,477.9z"/>
<path class="st4" d="M832.1,322.3c0,0-1.5,19.2-13.5,19.5c0,0-3.4-2-7.9-5.5c-10.5-7.9-27.2-23-22.5-37c6.6-20.1,38.7,17,38.7,17
	l2.5,2.8L832.1,322.3z"/>
<path class="st3" d="M832.1,322.3c0,0-1.5,19.2-13.5,19.5c0,0-3.4-2-7.9-5.5l-1-1.3c2,1.1,4.3,1.7,6.5,1.8c3,0.1,6.4-1,8.5-5.4
	c1.3-2.5,2.4-5,3.3-7.6c0.6-1.5,1-3.1,1.2-4.7L832.1,322.3z"/>
<path class="st5" d="M826.9,357l-2.7-3.5l-9-11.6l-4.7-6c2,1.1,4.3,1.7,6.5,1.8c3,0.1,6.4-1,8.5-5.4c1.3-2.5,2.4-5,3.3-7.6
	c1.5-4.2,1.5-6.4,0.9-7.2s3.3,2.9,5.2,4.6l0.1,0.1l0.9,0.8l0.3,0.6l4.5,9.1c0,0,0,0.1,0,0.4C841.3,336.1,842.8,354.4,826.9,357z"/>
<path class="st6" d="M918.2,704.8c-0.3-0.2-0.6-0.5-0.9-0.6h-0.1c-1.9-0.8-0.2-10.5,0.2-11.8s2.8-25.6,2.8-25.6s-0.9-7.7,0.3-11
	s-1.6-16-1.6-16s-0.9-1.6,0.8-3.5s1.1-18.7,1.1-18.7s-0.2-8.5-0.2-10.7s1.9-10.2,3.6-12.9s0.6-11,0.6-11l0,0l0.1-0.6
	c0-0.2,0.1-0.5,0.1-0.9l0.2-0.8c0-0.2,0.1-0.4,0.1-0.6c0.1-0.5,0.2-1,0.3-1.6c0.1-0.4,0.1-0.7,0.2-1.1c0.2-1.2,0.5-2.5,0.8-3.9
	c0.1-0.4,0.2-0.8,0.3-1.3s0.2-1,0.4-1.5c0.1-0.3,0.2-0.6,0.2-0.9c0.2-0.9,0.5-1.8,0.8-2.7c2-6.6,4.4-18.2,4.4-18.2l14.6-38.4
	l0.2-0.5l0.5,0.9l0,0c1.5,3.1,6.3,13.5,6.3,23.3c0,0,1.7,14,1.3,17.8s1.4,21.5,1.4,21.5s2,25.5,2,26.6s2.5,20.8,4.1,23.7
	s-1.6,12.1-2.5,13s0.3,24.1,0.3,24.1s-2.4,18.2-2.8,22c-0.1,0.9-0.3,2.4-0.5,4.3l1.2-0.6l0.2-0.1c16-7.7,31.8-15.8,47.1-24.6
	l0.1-24.1c0,0,1.1-10.5-0.2-14.8s-2.5-12.4-0.8-14.6s0.2-12.4,0.2-12.4s0-21.5,2.3-26.9s1.6-39.2,1.6-39.2l0.6-22.2
	c0,0,5.1-4.9,3.9-30.4c-0.1-2.7-0.3-5.7-0.6-8.9c-0.9-9.6-1.8-18.3-2.6-25.9c-0.1-0.7-0.1-1.3-0.2-1.9c-0.1-0.8-0.2-1.7-0.3-2.5
	c-0.2-1.7-0.4-3.4-0.6-4.9c-0.1-0.5-0.1-0.9-0.2-1.4c-0.3-2.2-0.5-4.3-0.7-6.2c-0.1-0.7-0.2-1.5-0.3-2.2c-0.1-1-0.3-2-0.4-2.9
	c0-0.2-0.1-0.4-0.1-0.7c0-0.4-0.1-0.8-0.1-1.1c-0.5-4.1-0.8-6.3-0.8-6.3h-0.1l-15.8,0.1l-34.5,0.3h-1l-18,0.2h-1.1l-8.6,0.1h-1.5
	l-18,0.2h-1.1l-7.4,30.5l-15.1,34.6c0,0-0.2,3.8-0.8,7.5v0.2c0,0.1,0,0.3-0.1,0.4s-0.1,0.4-0.1,0.6c-0.2,1.7-0.6,3.3-1.3,4.9
	c-0.5,1.1-0.8,2.3-1,3.5l0,0c-0.2,1.3-0.3,2.5-0.2,3.8l0,0c0,0.1,0,0.2,0,0.2s-1.2,5.5-1.9,10.1c-0.1,0.9-0.3,1.8-0.3,2.5
	c-0.1,1-0.2,2-0.1,2.9c0.1,1,0,2-0.1,3c0,0.4-0.1,0.7-0.1,1.1c-0.5,3.7-1.5,7.8-1.5,7.8l-2.8,27.4v0.1c0,0.1,0,0.3,0,0.6
	s0,0.4,0,0.6s0,0.5-0.1,0.7c0,0.7-0.1,1.4-0.2,2.3c0,0.3,0,0.7-0.1,1c0,0.3,0,0.6-0.1,1c0,0.2,0,0.3,0,0.5s0,0.5,0,0.8s0,0.5,0,0.8
	s0,0.5,0,0.7c-0.1,1.5-0.2,3.1-0.3,4.7c0,0.3,0,0.5,0,0.8v0.8c0,0.5,0,1-0.1,1.5c0,0.3,0,0.7,0,1s0,0.9,0,1.4v0.4c0,0.3,0,0.6,0,0.9
	c0,0.7,0,1.3,0,2c0,0.3,0,0.6,0,0.8c0,0.9,0,1.8,0,2.6c0,0.4,0,0.8,0,1.2c0,1.1,0.1,2.2,0.2,3.3c0.1,0.7,0.2,1.5,0.2,2.3
	c0,0.4,0,0.8,0,1.2s0,0.8,0,1.2s0,0.5,0,0.8c0,0.4,0,0.8,0,1.2c0,0.2,0,0.3,0,0.5s0,0.6,0,0.9v0.5c-0.3,3.4-0.7,6.2-0.8,6.7l0,0l0,0
	c0,0,0,0.1,0,0.3s0,0.2,0,0.2s0,0.2,0,0.3s0,0.1,0,0.2c0,0.3,0.1,0.6,0.1,0.9c0,0.2,0,0.3,0,0.5l0,0c0,0.2,0,0.4,0.1,0.6
	s0,0.2,0,0.3c0,0.4,0.1,0.7,0.1,1.1s0.1,0.8,0.1,1.2l0.1,0.8c0,0.4,0.1,0.8,0.1,1.2v0.4c0,0.3,0.1,0.5,0.1,0.8l0.1,1.2
	c0,0.3,0.1,0.5,0.1,0.8v0.4l0.1,1.6c0,0.3,0,0.5,0,0.8c0,0.4,0.1,0.8,0.1,1.3s0,0.9,0.1,1.3s0,0.8,0.1,1.2c0.1,1.1,0.1,2.2,0,3.3
	c-0.7,2.6-1.2,5.2-1.6,7.9c0,0.3-0.1,0.6-0.1,0.9s0,0.4,0,0.6l-0.1,0.8c0,0.6-0.1,1.2-0.1,1.8c0,1.3,0.1,2.5,0.5,3.8
	c0.3,1.1,0.5,2.2,0.5,3.3c0.1,0.6,0.1,1.3,0.2,2s0.1,1.4,0.1,2.2c0,0.5,0,1,0,1.5c0.1,4.8-0.2,9.3-0.2,9.3v0.1v0.1
	c0.1,2,1,17.8,2,23.1c0.2,0.9,0.3,1.9,0.3,2.8c0,0.3,0,0.6,0,0.9c0.1,3.1-0.2,6.2-0.7,9.2c0,0-1.5,12.2-1.9,12.2
	c-0.2,0-1.4,2.2-1.4,5.5v0.1c0,3.1,1.2,7,5.2,11l1.1,1.1c4.7-1.7,9.3-3.4,14-5.2c2.5-1,4.9-1.9,7.4-2.9c6.1-2.4,12.1-4.9,18-7.4
	L918.2,704.8z"/>
<path class="st4" d="M1000.6,232.4l-23.3,24.9c0,0-29.9-12-26.7-16c1.2-1.6,1-6.6,0.3-12.1c-1.1-8.7-3.5-18.7-3.5-18.7
	s52.2-8.5,47.8,0.3c-1.6,3.2-1.3,7-0.3,10.4C996.2,225.2,998.2,228.9,1000.6,232.4z"/>
<path class="st3" d="M995.3,210.7c-1.6,3.2-2.4,3.5-1.4,7c-6.8,7.3-15.5,15.3-26.3,15.3c-5.8,0-11.5-1.3-16.7-3.9
	c-1.1-8.7-3.5-18.7-3.5-18.7S999.7,201.9,995.3,210.7z"/>
<path class="st4" d="M1005,194.6c0,20.7-16.7,37.4-37.4,37.5c-20.7,0-37.4-16.7-37.5-37.4c0,0,0,0,0-0.1c0-0.2,0-0.4,0-0.5
	c0.5-20.7,17.6-37,38.2-36.6C988.7,157.9,1004.9,174.4,1005,194.6L1005,194.6z"/>
<path class="st3" d="M1010.5,441.5c-5,0-21.5,0.2-39.9,0.5h-0.2l-6.1,0.1H964c-21.9,0.3-43.4-3.9-52.1-3.1c-18.4,1.7,6.6-17,6.6-17
	c13.7,3.3,27.8,4.8,41.9,4.2l5.3-0.3c16.7-0.9,33.5-2.5,42.3-5.1C1008.7,425.6,1009.6,432.7,1010.5,441.5z"/>
<path class="st7" d="M1010.5,440.5c-5,0-21.5,0.2-39.9,0.5h-0.2l-6.1,0.1H964c-21.9,0.3-43.4-3.9-52.1-3.1c-18.4,1.7,6.6-17,6.6-17
	c13.7,3.3,27.8,4.7,41.9,4.2l5.3-0.3c16.7-0.9,33.5-2.5,42.3-5.1C1008.7,424.7,1009.6,431.8,1010.5,440.5z"/>
<path class="st3" d="M957.6,242.8l-28.9,13.5l-22.3,172.6c0,0,13.2-6,20.8-2.2S958,427,958,427s17-1,19.5,0.9s32.1-7.9,32.1-7.9
	s5.3-12,1.3-13.8s1.3-20.5,1.3-20.5l-2.5-124.5l-5-16l-13.5-8.2l-13.8,11l-6.6,1L957.6,242.8z"/>
<path class="st5" d="M957.6,240.8l-28.9,13.5L906.3,427c0,0,13.2-6,20.8-2.2s30.8,0.3,30.8,0.3s17-0.9,19.5,0.9s32.1-7.9,32.1-7.9
	s5.3-11.9,1.3-13.8s1.3-20.4,1.3-20.4l-2.5-124.5l-5-16l-13.5-8.2l-13.8,11l-6.6,0.9L957.6,240.8z"/>
<path class="st3" d="M957.1,248.9c0,0,8.3,9.9,8.2,12s-0.5,6.9-0.5,6.9l-6.2,12.7c0,0-3.5,15.9-3.5,19.2s-5.5,31.9-5.5,31.9l-6.6,44
	l-8.3,57.7l8.5,14.6l10.1-8.5l13.4-102.8l2.8-20.3c0,0,3-36.5,3-40.2s-1.7-13.7-1.7-13.7s2-9.4,10.5-11.6s-0.6-0.5-0.6-0.5l-4.9-3.9
	l-4.3,1.7C971.5,248.1,959.6,244.5,957.1,248.9z"/>
<path class="st8" d="M956.2,247.9c0,0,8.3,9.9,8.2,11.9s-0.5,6.9-0.5,6.9l-6.3,12.7c0,0-3.5,15.9-3.5,19.2s-5.5,31.9-5.5,31.9
	l-6.6,44l-8.3,57.7l8.5,14.6l10.1-8.5l13.4-102.8l2.8-20.3c0,0,3-36.5,3-40.3s-1.7-13.7-1.7-13.7s2-9.4,10.5-11.6s-0.6-0.5-0.6-0.5
	l-4.9-3.9l-4.2,1.7C970.5,247.1,958.7,243.5,956.2,247.9z"/>
<path class="st3" d="M950.7,231.4c0,0-1.3,0.9-1.6,7.2s-4.7,20.4-4.7,20.4s16.3-11.3,24.5-10.1L950.7,231.4z"/>
<path class="st5" d="M950.7,229.5c0,0-1.3,1-1.6,7.2s-4.7,20.4-4.7,20.4s16.3-11.3,24.5-10.1L950.7,229.5z"/>
<path class="st3" d="M995.3,226.4L969.6,249c0,0,21.7,12.9,24.5,16s5.7-30.8,5.7-30.8L995.3,226.4z"/>
<path class="st5" d="M996.2,224.5l-25.8,22.6c0,0,21.7,12.9,24.5,16s5.7-30.8,5.7-30.8L996.2,224.5z"/>
<path class="st3" d="M951.6,231.4c0,0-2.8-1.4-5.5,2.7s-7.7,6-7.7,6s-28.6,4.6-29.7,8.3l-13.4,0.8c0,0-4.7,0.6-5.2,10.6
	c-0.5,10-3,10.8-3,10.8s-5.5,9.8-5,14.8s-4.3,7.5-4.3,7.5l19.7,51c0,0,0.6,21.1-3,28.8s-10.4,41.8-10.4,41.8s2.8-0.6,2.7,1.3
	s-3.5,22.5-3.5,22.5s-0.9,8.2-2.5,11s-1.7,17.6-1.7,17.6l-2.6,10.7c0,0,6,13.4,15.1,11.5s25.6-37.6,25.6-37.6l10.5-38.5l8.2-38
	l2.4-25.8l3.8-57.1l5.5-37.7C947.6,254.4,953.8,234.1,951.6,231.4z"/>
<path class="st2" d="M950.7,229.5c0,0-2.8-1.4-5.5,2.7s-7.7,6-7.7,6s-28.6,4.6-29.7,8.3l-13.4,0.8c0,0-4.7,0.6-5.2,10.5
	c-0.5,9.9-3,10.9-3,10.9s-5.5,9.8-5,14.8S877,291,877,291l19.6,51.1c0,0,0.6,21.1-3,28.8s-10.4,41.8-10.4,41.8s2.8-0.6,2.7,1.3
	s-3.5,22.5-3.5,22.5s-0.9,8.2-2.5,11s-1.7,17.6-1.7,17.6l-2.5,10.7c0,0,6,13.4,15.1,11.5s25.6-37.6,25.6-37.6l10.5-38.5l8.2-38
	l2.3-25.8l3.8-57.1l5.5-37.7C946.7,252.6,952.8,232.2,950.7,229.5z"/>
<path class="st3" d="M849.7,351.2l-9.2,6.3c0,0-13.9,0.4-23.9-2l-5.1-2.3l-1-0.5l1,0.3c5.3,1.6,9.4,1.5,12.6,0.5
	c12.9-4.3,11.5-25.6,11-30.5c0-0.5-0.1-0.8-0.1-0.9c0,0,0,0,0-0.1l0.1,0.1c0.2,0.3,0.4,0.6,0.6,0.8c0.2,0.2,0.4,0.4,0.6,0.6l0,0
	l4.5,9.1c0,0,0,0.1,0,0.4L849.7,351.2z"/>
<path class="st2" d="M881.3,289.8l-4.4,1.3l-0.6,9c0,0-5.2-0.8-6.6,5.4s-3.9,9-3.9,9s-8.7,7.2-9.1,13.4l-5.3,3.3
	c0,0-12.4-2.8-15.3-7.9c0,0,5.7,40.6-24.5,30.7c0,0,33.8,14.8,35.4,16.8s12,8,21.4,3s11.5-12.9,11.5-12.9s9.1-12.7,9.4-14.6
	s7.4-4.1,7.4-4.1l13.5-32.7L881.3,289.8z"/>
<path class="st3" d="M991.7,245.2l4.6-20.8c0,0,2,6.8,4.1,8.3c2.1,1.6,6.8,5.2,6.8,5.2s6.8,3.1,9.1,3.1s15.1,3.3,16.7,5
	s7.9,0.5,7.9,0.5s5.2,1.7,9.8,2.8s6.8,8.6,5.8,11.6c-0.8,3,0.1,6.2,2.2,8.5c1.9,1.9,2.8,8,2.8,8c2.3,0.8,4.2,2.4,5.3,4.6
	c1.6,3.5,1.1,11,1.1,11l-23.4,33c0,0,0.3,12.7-0.6,15.6s3.3,50.9,3.3,50.9l4.9,82.7c0,0-6.4,5.5-7.9,6.1s-2.8-29.2-2.8-30.3
	s-36.3-54.4-36.3-54.4s-4.9-7.9-4.9-9.6s-4.6-17.6-4.6-17.6l-6.9-30.6L991.7,245.2z"/>
<path class="st2" d="M1069.7,291.4c0,1.1-0.1,1.8-0.1,1.8l-23.4,33l0,0c0,0,0.3,12.7-0.6,15.6c-0.6,1.6,0.7,18.6,1.8,32.5
	c0.8,10,1.5,18.5,1.5,18.5l2.1,35.1l2.8,47.6c0,0-6.4,5.5-7.8,6.1s-2.8-29.2-2.8-30.3s-36.3-54.4-36.3-54.4s-4.9-7.9-4.9-9.6
	s-4.6-17.6-4.6-17.6l-6.9-30.6l3.1-93.7l2.7-20.8c0,0,3.9,6.8,6,8.3s6.8,5.2,6.8,5.2s6.8,3.1,9.1,3.1s15.1,3.3,16.7,5
	s7.9,0.5,7.9,0.5s5.2,1.7,9.7,2.8s6.8,8.6,5.8,11.6c-0.8,3,0.1,6.2,2.2,8.5c1.9,1.9,2.8,8,2.8,8c2.3,0.8,4.2,2.4,5.3,4.6
	C1069.7,284.6,1069.8,288.9,1069.7,291.4z"/>
<path class="st3" d="M899.8,712.3c-2.5,1-4.9,1.9-7.4,2.9c-7.7-2.3-14.9-4.9-14.9-4.9C885,710.5,892.4,711.2,899.8,712.3z"/>
<path class="st3" d="M974.2,628.4c0,0,18.7,4.4,19.8,7.4L974.2,628.4z"/>
<path class="st3" d="M902.1,641.9c0,0-9.8,2.8-0.3,8.5S902.1,641.9,902.1,641.9z"/>
<path class="st3" d="M945.3,490.8c1.1,0,18.2-5.7,24.2-3.1s13.4,2.5,13.4,2.5L945.3,490.8z"/>
<path class="st3" d="M947.6,508.8l-0.2,1.6l-14.7,38.3c0,0-2.4,11.6-4.4,18.2c-1.3,4.5-2.3,9-3.1,13.7l13-80.5L947.6,508.8z"/>
<path class="st6" d="M970.3,441l-6.1,0.1H964l-3.6-15.9c1.8-0.1,3.5-0.2,5.3-0.3L970.3,441z"/>
<path class="st4" d="M1044.5,421.8l-3.9,3.2l-13,10.8c0,0-35.4,18.9-45.1,0.9c-8.6-15.8,31.5-27.1,41.2-29.5
	c1.3-0.3,2.1-0.5,2.1-0.5L1044.5,421.8z"/>
<path class="st3" d="M893.4,267.3c0,0,6.9,3.1,8.5,7.5S893.4,267.3,893.4,267.3z"/>
<path class="st3" d="M872,314.4c0,0-10.1,12.3-6,17S872,314.4,872,314.4z"/>
<path class="st3" d="M1051.9,274.2c0,0-9.4,0.9-9.8,9.1L1051.9,274.2z"/>
<path class="st3" d="M964.5,403.1c1-0.9,22.6-33,27.7-30.2L964.5,403.1z"/>
<path class="st3" d="M1005,194.6c0,6.2-1.5,12.2-4.4,17.7h-0.3c-2.4-0.5-3.6-3.3-5.4-5c-2.3-2.2-5.7-2.6-8.5-1.2
	c-2.8,1.7-4.4,4.8-4.2,8.1c-1.2-5-0.8-10.4-2-15.4s-4.7-10.1-9.5-10.2c-2.1,0-4.5,0.8-6-0.8c-0.9-0.9-1.1-2.4-1.8-3.6
	c-3.5-5.6-13.9-2.8-18.2,0.1s-9.3,7.4-14.6,9.9c0.5-20.7,17.6-37,38.2-36.6C988.7,158,1004.9,174.4,1005,194.6L1005,194.6z"/>
<path class="st9" d="M963,183.2c0.7,1.1,0.9,2.6,1.8,3.6c1.5,1.5,3.9,0.8,6,0.8c4.8,0.1,8.3,5.2,9.5,10.2s0.8,10.4,2,15.4
	c-0.3-3.3,1.4-6.4,4.2-8.1c2.8-1.5,6.2-1,8.5,1.2c1.8,1.7,3,4.5,5.4,5s4.7-1.8,5.5-4.3s0.8-5.2,1.3-7.8c1.1-4.9,4.3-8.9,6-13.6
	c2.1-5.7,2.1-11.9-0.2-17.6c-1.2-3-2.9-5.6-4.1-8.6c-1.8-4.5-2.3-9.5-4.5-13.8c-3.7-7.1-12.4-10.7-19.6-8c-3.4,1.3-6.4,3.8-9.9,4.9
	c-4.6,1.5-9.6,0.4-14.4-0.3c-4.8-0.7-10.1-0.7-14,2.4c-4.5,3.6-5.7,10.5-9.8,14.5c-1.8,1.7-3.9,2.8-5.8,4.3
	c-1.8,1.6-3.5,3.9-3.2,6.4c0.3,3.3,3.5,6.2,2.3,9.2c-0.4,0.9-1,1.7-1.8,2.3c-3.5,3.7-6.1,8.1-7.6,13c8.4,2.6,17.5-6.6,24.1-11
	C949.1,180.4,959.6,177.6,963,183.2z"/>
<path class="st3" d="M1044.5,421.8l-3.9,3.2c-3.4-5.8-17.6-17.2-17.6-17.2l0.6-0.6c1.3-0.3,2.1-0.5,2.1-0.5L1044.5,421.8z"/>
<path class="st5" d="M1048.3,416c0,0-1.4,3.5-2.9,6.5s-3,5.8-3.1,3.5c-0.2-4.4-18.4-19.2-18.4-19.2l2.5-2.4l2.9-2.8L1048.3,416z"/>
<path class="st3" d="M1048.9,392.7l2.1,35.1c-4.9-7.6-18.3-27.1-26.9-26.4l20.9-24c0.9-1,1.7-2,2.4-3.1
	C1048.2,384.3,1048.9,392.7,1048.9,392.7z"/>
<path class="st3" d="M1048.3,416c0,0-1.4,3.5-2.9,6.5c-5.5-7.5-13-16.4-19-18l2.9-2.8L1048.3,416z"/>
<path class="st2" d="M1064,288.8l5.7,4.4c0,0,9.4,0.2,10.4,8s9.6,11.5,9.6,11.5s6.4,6.4,6.4,9.4s4.9,8.3,4.9,8.8s4.7,10.1,4.1,11.8
	s5,9.3,3.3,12.1c-1.4,2.5-2.7,5.2-3.8,7.9c0,0-7.4,14.1-11.2,16.8s-21.1,25.1-21.1,25.1s-18.6,21.4-18.6,28c0,0-18.1-30.2-28.8-29.4
	l20.9-24c0,0,3.6-3.9,3.8-6.3s10.1-13.2,14.8-13.7c0,0,0.8-6.5-1.3-6.6s-3.8-5.2-3.8-5.2s-13.8-16.4-14-26.7S1064,288.8,1064,288.8z
	"/>
<path class="st3" d="M1072.3,303.8c0,0-13.2,9.7-10.4,12.9S1072.3,303.8,1072.3,303.8z"/>
<path class="st3" d="M1073,344c0,0,24.5-7.9,27,0H1073z"/>
<path class="st3" d="M900,301.8c0,0,0,35.8-3.1,39.4S900,301.8,900,301.8z"/>
<path class="st3" d="M1041.7,313.4l4.6,12.8C1046.2,326.2,1048,313.6,1041.7,313.4z"/>
<g class="st10">
	<path d="M930.6,176c1.2-3-1.9-5.8-2.3-9c-0.4,0.9-0.6,1.9-0.5,2.8c0.2,2.4,2,4.6,2.4,6.8C930.4,176.4,930.5,176.2,930.6,176z"/>
	<path d="M982.7,209.8c-1.1-5-0.8-10.2-1.9-15.2s-4.7-10.2-9.5-10.2c-2.1,0-4.5,0.8-6-0.8c-0.9-0.9-1.1-2.4-1.8-3.6
		c-3.4-5.6-13.9-2.8-18.2,0.1c-6.4,4.3-15.3,13.2-23.5,11.2c-0.4,1-0.8,1.9-1.1,2.9c8.4,2.6,17.5-6.6,24.1-11
		c4.3-2.9,14.8-5.7,18.2-0.1c0.7,1.1,0.9,2.6,1.8,3.6c1.5,1.5,3.9,0.8,6,0.8c4.8,0.1,8.3,5.2,9.5,10.2s0.8,10.4,2,15.4
		C982.2,212.1,982.3,210.9,982.7,209.8z"/>
	<path d="M1006.3,203.9c-0.9,2.5-3.1,4.8-5.5,4.3s-3.6-3.3-5.4-5c-2.3-2.2-5.7-2.6-8.5-1.2c-2.7,1.6-4.3,4.5-4.2,7.6
		c0.6-1.9,1.9-3.5,3.7-4.5c2.8-1.5,6.2-1,8.5,1.2c1.8,1.7,3,4.5,5.4,5s4.7-1.8,5.5-4.3c0.4-1.5,0.7-3,0.9-4.5
		C1006.6,203,1006.5,203.5,1006.3,203.9z"/>
	<path d="M1013.7,182.5c-1.8,4.7-5,8.7-6,13.6c-0.2,1-0.3,2-0.5,3c1.1-4.9,4.3-8.9,6-13.5c0.8-2.1,1.3-4.3,1.4-6.5
		C1014.5,180.2,1014.1,181.4,1013.7,182.5z"/>
</g>
<circle class="st11" cx="786.5" cy="296" r="0.4"/>
<path class="st12" d="M472.3,515.4c0,0,11-7.9,22.4-3c0,0-3.2,6.8-17.4,6.7L472.3,515.4z"/>
<path class="st12" d="M470.9,515.9c0,0-2.9,13.2,6,21.8c0,0,5-5.6-0.7-18.6L470.9,515.9z"/>
<path class="st12" d="M456.3,503.8c0,0,0.4-11.2,25.7-8.4c0,0,0.4,7.2-8.3,10.9S460.9,507.3,456.3,503.8z"/>
<path class="st12" d="M454.8,503.8c0,0-10.5,3.8-0.1,27c0,0,7-1.8,7.8-11.3S459.5,507,454.8,503.8z"/>
<path class="st12" d="M439.9,488.5c0,0-2.1-18.3,23.6-17.4c0,0,2.5,16.5-18.9,21.6L439.9,488.5z"/>
<path class="st12" d="M422.1,468.5c0,0,2.7-20.9,28.7-15.7c0,0,0.8,18-24.3,20.5L422.1,468.5z"/>
<path class="st8" d="M408.9,447.6c0,0,5.1-20.5,30.8-15.4c0,0-5.4,18.4-29,19L408.9,447.6z"/>
<path class="st8" d="M396.3,427.1c0,0,5-21.2,29.8-15.9c0,0-7.4,20.3-28,19.4L396.3,427.1z"/>
<path class="st8" d="M388,407.6c0,0,3.4-25.8,26.6-21c0,0-5.8,23.6-24.8,24.7L388,407.6z"/>
<path class="st8" d="M379.9,383.9c0,0,4.3-26.1,27.8-19.5c0,0-8.1,24.8-26,23L379.9,383.9z"/>
<path class="st8" d="M374.6,361.8c0,0,7.5-26.2,25.4-26.2c0,0-7.6,27.7-23.7,31.3L374.6,361.8z"/>
<path class="st8" d="M371,340.1c0,0,8-31.5,22.7-29.7c0,0-5.5,24.1-22,34.5L371,340.1z"/>
<path class="st8" d="M368.4,314.1c0,0,7.6-26.3,22-27.9c0,0-4.9,25.8-21.4,34.6L368.4,314.1z"/>
<path class="st8" d="M365.8,290c0,0,9.8-26.4,19.3-27.4c0,0-3.7,25.8-18.1,31.6L365.8,290z"/>
<path class="st8" d="M363.7,267.5c0,0,5.5-28.5,14.9-31.2c0,0-0.4,23.1-13.9,33.3L363.7,267.5z"/>
<path class="st8" d="M359,238.1c0,0,6.1-22.8,13.7-26.5c0,0-0.5,26.6-11.7,31.9L359,238.1z"/>
<path class="st8" d="M355.3,218.8l-2.9-39.6c0,0,15.5,29.4,4.2,46.6L355.3,218.8z"/>
<path class="st8" d="M342.6,179.8c0,0-11.5-28.6-14-30.1c0,0,21,18,20,42.3L342.6,179.8z"/>
<path class="st12" d="M439.2,488.4c0,0-18.3-1.7-16.8,24.1c0,0,16.6,2,21.1-19.5L439.2,488.4z"/>
<path class="st12" d="M421.3,467.8c0,0-21.1,0.7-18.3,27c0,0,17.8,2.5,22.7-22.2L421.3,467.8z"/>
<path class="st12" d="M408.8,449.3c0,0-19.5-8.2-30.8,15.4c0,0,18,6.8,32.6-11.7L408.8,449.3z"/>
<path class="st12" d="M395.9,427.4c0,0-20-8.8-30.6,14.3c0,0,20.7,6.2,32.3-10.7L395.9,427.4z"/>
<path class="st12" d="M388.2,408.1c0,0-19.5-17.3-33.9,1.5c0,0,19.8,14.1,34.9,2.5L388.2,408.1z"/>
<path class="st12" d="M381,383.2c0,0-19.7-17.7-33.9,2.1c0,0,21.9,14.3,34.7,1.7L381,383.2z"/>
<path class="st8" d="M376.6,360.9c0,0-15.5-22.4-32.5-16.6c0,0,16.1,23.8,32.5,22V360.9z"/>
<path class="st8" d="M371.4,339.9c0,0-15.8-28.4-29.5-22.8c0,0,11.5,21.9,30.1,27.7L371.4,339.9z"/>
<path class="st8" d="M369.4,312.6c0,0-16-22.2-30.1-18.9c0,0,13.2,22.6,31.8,25.4L369.4,312.6z"/>
<path class="st8" d="M367.3,289.4c0,0-12.7-25.1-22.3-25c0,0,6.6,25.2,21.6,29.3L367.3,289.4z"/>
<path class="st8" d="M364.1,266.9c0,0-14-25.4-23.8-25.1c0,0,7.5,21.9,23.5,27.4L364.1,266.9z"/>
<path class="st8" d="M361.1,239.6c0,0-10.6-21.1-18.7-23.2c0,0,5.9,25.9,17.9,28.9L361.1,239.6z"/>
<path class="st8" d="M354.1,218.1L331,185.8c0,0,6.8,32.5,26.5,38.5L354.1,218.1z"/>
<path class="st8" d="M337.8,182.7c0,0-26-16.5-27-19.3c0,0,13.9,24,37.9,27.4L337.8,182.7z"/>
<path class="st8" d="M335.9,174.9c0,0-30.1-26.8-37.6-26.5c0,0,24,0.2,38.2,25L335.9,174.9z"/>
<path class="st13" d="M361,243.8l-1.1,0.2c-7.1-42.5-16-67.5-25.1-70.3l0.3-1C344.8,175.6,353.7,200.2,361,243.8z"/>
<path class="st13" d="M373,345.7l-1.6,0.2c-0.5-4-0.9-8.1-1.2-12.1c-2.9-35.3-6.5-67.8-10.5-92l0.9-1.2c4,24.3,8.4,57.7,11.3,93
	C372,337.7,372.5,341.8,373,345.7z"/>
<path class="st13" d="M502.9,534.6c-0.3-0.1-28.9-11.6-59.3-40.5c-17.8-16.9-32.8-36.5-44.5-58.1c-14.6-27-24.1-60.5-28.1-93.3
	l1.7,0.7c9,73.5,44.5,122.7,72.3,149.1c30.1,28.6,58.4,40,58.7,40.1L502.9,534.6z"/>
<g class="st14">
	<path class="st12" d="M522.8,502c0,0,12.9-4.3,22.3,3.8c0,0-5.1,5.5-18.6,1.2L522.8,502z"/>
	<path class="st12" d="M521.4,502c0,0-6.7,11.8-0.7,22.6c0,0,6.4-3.9,4.9-18L521.4,502z"/>
	<path class="st12" d="M511,486.2c0,0,3.7-10.5,27-0.4c0,0-1.8,7-11.2,8S514.3,490.9,511,486.2z"/>
	<path class="st12" d="M509.6,485.8c0,0-11.2,0.5-8.2,25.8c0,0,7.2,0.3,10.8-8.4C515.8,494.5,513.1,490.2,509.6,485.8z"/>
	<path class="st12" d="M499.9,466.8c0,0,3.4-18.1,27.7-9.6c0,0-2.6,16.5-24.5,15L499.9,466.8z"/>
	<path class="st12" d="M488.9,442.3c0,0,8.8-19.1,32-6.5c0,0-4.6,17.4-29.3,12.3L488.9,442.3z"/>
	<path class="st12" d="M482.5,418.4c0,0,11-18,34-5.5c0,0-10.6,16-33.3,9.6L482.5,418.4z"/>
	<path class="st12" d="M476.6,395.1c0,0,11.1-18.8,33.2-6.3c0,0-13.1,17.1-32.5,10.2L476.6,395.1z"/>
	<path class="st12" d="M474.4,374c0,0,11-23.6,31.6-12.2c0,0-12.5,20.8-31,16.2L474.4,374z"/>
	<path class="st12" d="M473.8,349c0,0,11.9-23.6,32.3-10.3c0,0-15.2,21.3-31.7,14.2L473.8,349z"/>
	<path class="st12" d="M475.3,326.3c0,0,14.9-22.8,32.1-17.5c0,0-15.5,24.2-32,22.9L475.3,326.3z"/>
	<path class="st12" d="M478.3,304.5c0,0,17-27.7,30.5-21.6c0,0-12.4,21.3-31.3,26.4L478.3,304.5z"/>
	<path class="st12" d="M483.6,278.9c0,0,15.1-22.8,29.3-20.1c0,0-12.3,23.1-30.7,26.7L483.6,278.9z"/>
	<path class="st12" d="M488.2,255.1c0,0,17.2-22.3,26.5-20.4c0,0-11.2,23.5-26.7,24.8L488.2,255.1z"/>
	<path class="st12" d="M492.9,233c0,0,13.8-25.5,23.5-25.3c0,0-7.3,22-23.2,27.6L492.9,233z"/>
	<path class="st12" d="M497.2,203.6c0,0,12.6-19.9,20.9-21.2c0,0-8.4,25.2-20.6,27L497.2,203.6z"/>
	<path class="st12" d="M499.3,184l9-38.7c0,0,6.1,32.7-9.8,45.7L499.3,184z"/>
	<path class="st12" d="M498.9,143c0,0-2.4-30.7-4.4-32.9c0,0,14.7,23.5,6.5,46.3L498.9,143z"/>
	<path class="st12" d="M499.3,466.4c0,0-17-7.1-23.2,18c0,0,15.2,6.9,26-12.3L499.3,466.4z"/>
	<path class="st12" d="M488.3,441.4c0,0-20.3-5.6-25.5,20.4c0,0,16.3,7.7,28.3-14.5L488.3,441.4z"/>
	<path class="st12" d="M481.9,420c0,0-16.1-13.7-34,5.5c0,0,15.1,11.8,34.6-1.5L481.9,420z"/>
	<path class="st12" d="M476.1,395.2c0,0-16.4-14.3-33.4,4.5c0,0,17.9,12.1,34.1-0.6L476.1,395.2z"/>
	<path class="st12" d="M474.5,374.6c0,0-13.5-22.3-32.8-8.6c0,0,14.7,19.3,32.6,12.7L474.5,374.6z"/>
	<path class="st12" d="M475,348.6c0,0-13.5-22.7-33-8c0,0,16.6,20.1,32.6,11.9L475,348.6z"/>
	<path class="st12" d="M477.4,326c0,0-8.1-26-26.1-25.5c0,0,8.3,27.5,24.5,30.7L477.4,326z"/>
	<path class="st12" d="M478.8,304.5c0,0-6.7-31.8-21.4-30.6c0,0,4.4,24.3,20.5,35.4L478.8,304.5z"/>
	<path class="st12" d="M484.9,277.8c0,0-8.7-26-23.1-27c0,0,5.9,25.6,22.8,33.7L484.9,277.8z"/>
	<path class="st12" d="M489.9,255c0,0-4.6-27.8-13.8-30.5c0,0-1.2,26,11.9,34.4L489.9,255z"/>
	<path class="st12" d="M493.6,232.6c0,0-5.8-28.4-15.3-31c0,0,0.7,23.1,14.3,33.1L493.6,232.6z"/>
	<path class="st12" d="M498.8,205.6c0,0-3.8-23.3-11-27.7c0,0-2.1,26.5,8.5,32.9L498.8,205.6z"/>
	<path class="st12" d="M498.4,183L486,145.3c0,0-3.1,33.1,13.8,44.7L498.4,183z"/>
	<path class="st12" d="M493.4,144.3c0,0-19.9-23.5-20-26.5c0,0,6.1,27,28,37.4L493.4,144.3z"/>
	<path class="st12" d="M494,136.3c0,0-20.8-34.6-28-36.5c0,0,22.9,7.3,29,35.2L494,136.3z"/>
	<path class="st13" d="M497.4,209.6l-1.1-0.1c5.9-42.7,4.8-69.2-3.1-74.6l0.6-0.9C502.2,139.6,503.4,165.8,497.4,209.6z"/>
	<path class="st13" d="M478.5,310.4l-1.6-0.3c0.7-4,1.5-8,2.4-11.9c7.8-34.6,14-66.6,17.3-91l1.2-0.9c-3.4,24.4-9.2,57.5-16.9,92.2
		C480,302.5,479.2,306.5,478.5,310.4z"/>
	<path class="st13" d="M546.3,529.5c-0.2-0.2-24.2-19.7-44.6-56.3c-12-21.4-20.5-44.6-25.2-68.7c-5.9-30.1-5-65,0.9-97.4l1.4,1.2
		c-13.3,72.9,6,130.4,24.7,163.8c20.2,36.3,43.9,55.6,44.1,55.8L546.3,529.5z"/>
</g>
<linearGradient id="SVGID_2_" gradientUnits="userSpaceOnUse" x1="215.6399" y1="-188.24" x2="215.6399" y2="205.8051" gradientTransform="matrix(1 0 0 -1 -25.44 443.76)">
	<stop  offset="0" style="stop-color:#808080;stop-opacity:0.25"/>
	<stop  offset="0.54" style="stop-color:#808080;stop-opacity:0.12"/>
	<stop  offset="1" style="stop-color:#808080;stop-opacity:0.1"/>
</linearGradient>
<path class="st15" d="M307.4,437.3c-2.4,1-4.8,1.7-7.3,2.2c-4.4,0.8-8.8,1.2-13.2,1.3c0.1,1.2,0.2,2.3,0.3,3.3
	c0.2,2.7,0.4,4.6,0.4,4.6l-4.7-0.3l-38.7-2.6l-22.6-3.3c1.1,1.5,2.3,2.9,3.6,4.2c1.3,1.4,2.8,2.6,4.5,3.5c0,0,20.4,16.5,23.9,16.7
	c0.5,0,0.7,0.5,0.6,1.3c8.6,0,35.3,1.3,27.9,16.1c-1.2,2.7-3.4,4.8-6.1,5.9c-8.6,3.6-21.5-2.9-28.2-6.9c-0.6,1.3-1.3,2.5-1.8,3.5
	c-1.1,2.1-1.9,3.5-1.9,3.5l-0.7-0.5l-34.3-24.4l-7.5-6.4c-2.2-0.1-4.4-0.5-6.5-1.1l0,0l-1-0.3c0,0.1-0.1,0.2-0.1,0.3
	c-0.3,0.8-0.5,1.6-0.6,2.4c0,0.1,0,0.2,0,0.4c-0.1,0.9-0.2,1.9-0.3,2.8c0,0.6-0.1,1.3-0.1,2c-0.1,13.6,5.4,35.5,5.4,35.5
	s14.1,36.1,9.1,44.4l0,0c-0.3,0.4-0.6,0.8-1,1.1c-1.8,1.3-2.8,3.6-3.4,6.3c-1.9,8.8,1.4,22.3,1.4,22.3s-0.3,0.5-0.8,1.3
	c-1.1,1.8-2.3,3.4-3.7,5c-0.2,0.2-0.4,0.5-0.7,0.7c-0.6,0.7-1.3,1.3-2,1.8c0.1,0.4,0.3,0.8,0.4,1.2s0.3,1.1,0.5,1.7
	c1.1,4.9,0.7,10.1-1.3,14.7c-1.3,3.4-2.2,6.9-2.5,10.6l0,0c-0.7,6.6-0.5,13.3,0.5,19.9c-0.1-0.1-0.3-0.2-0.4-0.2
	c-11.1-5.8-22-11.8-32.7-18.1c-3.1-1.8-6.3-3.7-9.4-5.5c-3.8-2.3-7.6-4.6-11.4-7c-5-3.1-10-6.3-15-9.6l-2.3-1.6l-0.9-0.6
	c-1.3-0.8-2.5-1.7-3.8-2.6c-5.2-6.7-9.9-13.7-14.1-21c-0.7-1.3-1.4-2.5-1.9-3.6v-0.1l-0.3-0.7l-1.4-0.5l0,0
	c-2.7-0.9-4.3-1.6-4.3-1.6l0,0l0,0c1.2-4.5,1.8-9.1,1.7-13.7c-0.1-9-2.6-21-12.8-30.6c-15.2-14.3-17.2-28.5-17.5-33.9
	c0-0.4,0-0.7,0-1c0-0.5,0-0.9,0.1-1.4l1.2-1.1c-2.9-0.6-5.7-0.9-5.7-0.9s10.1-36.4,27-48.5c8.4-6,15.4-16,20.3-24.6
	c9-15.5,19.1-30.3,30.3-44.4l3.1-3.9l0.9-1.1l0.2-0.2l0.2-0.3c-0.4-0.6-0.8-1.2-1.3-1.9l-0.3-0.4c-1.3-2-2.5-4-2.3-6.4
	c0,0,0,0,0-0.1c0-0.2,0-0.3,0-0.5c0-0.4,0.1-0.8,0.2-1.2c0,0.1,0.1,0.1,0.1,0.2c1.4-4.2,6.9-6,11-8.3c9.6-5.4,13.6-17.1,15.7-28.1
	c1.6-8.5,2.9-18.1,9.5-23.5c4.3-3.5,10-4.7,14.3-8.2c2.5-2.2,4.6-4.9,6.1-7.8c1-1.7,1.9-3.5,2.8-5.2c4.3-7.7,9.9-14.9,17.3-19.5
	s16.8-6.4,24.9-3.3c3.1,1.2,6,3,9,4.3c1.9,0.8,3.8,1.4,5.7,1.8c6.1,1.4,12.5,1.8,18.3,4.4c9.3,4.1,15.4,13.3,20.9,22
	c2.9,4.5,7.4,11.1,9.9,17.7c0-0.2,0-0.5,0-0.7c1.2,2.9,1.9,6,2,9.2c0,1.3-0.1,2.7-0.4,4c-0.9,3.4-3.3,5.5-6.2,7.1l-0.5,0.2
	c-0.6,0.3-1.3,0.6-1.9,0.9c-0.1,0.5-0.2,1.1-0.3,1.6c0,0.2-0.1,0.5-0.2,0.7c-0.1,0.6-0.3,1.1-0.4,1.7c-2.1,7.1-6.3,13.5-12,18.3
	c-3.9,3.4-8.5,6-13.4,7.6c-0.4,0.1-0.7,0.2-1.1,0.3c-0.3,0.8-0.7,1.6-1.3,2.3c-0.4,0.5-0.8,0.9-1.4,1.3c-0.3,0.2-0.7,0.4-1,0.6
	c-0.1,0.1-0.2,0.1-0.3,0.1c-3.6,1.6-8.5,0.4-12-2.1c-0.2-0.1-0.4-0.3-0.5-0.4c0,0.6-0.1,1.2-0.2,1.8s-0.2,1-0.3,1.5
	s-0.1,0.8-0.2,1.1s-0.1,0.6-0.2,0.9l-0.1,0.5c-2,9.7-5.8,18.8-11.1,27.1c-0.8,1.2-1.6,2.3-2.5,3.4l-2.5,3.8v0.5
	c0.5,8.7-2.4,16.8-6.4,23.8c-1.4,2.3-2.8,4.5-4.4,6.7l0.6,0.3c5.6,3.2,16.6,8.9,23.6,8.4c0,0,26.4,3.4,29.5,1.7
	c0.4-0.2,0.8,0.1,1.2,0.8c4.3-2.6,14.1-8.1,21.8-8.8c5.4-0.5,9.8,1.3,10.6,8S313,434.9,307.4,437.3z"/>
<path class="st16" d="M162.8,574.8c3.4,5.8,4,12.9,1.4,19.2c-2.4,6.1-2.7,13.7-2.4,19.3c-3.1-1.8-6.3-3.7-9.4-5.5
	c-3.8-2.3-7.6-4.6-11.4-7c-5-3.1-10-6.3-15-9.6l-2.3-1.6l-0.9-0.6c-0.1-0.1-0.2-0.3-0.3-0.4c-1.3-1.4-9.1-12.6-13.8-21.1
	c-0.8-1.6-1.6-3-2.1-4.3v-0.1c-1-2.2-1.5-4-1.2-4.8c0.7-2.6,2.5-4.7,4.9-6c5.8-3,15-0.2,24.1,4.2c7.9,4,15.4,8.6,22.5,13.7l0.8,0.6
	l0.1,0.1c3,2.1,4.7,3.5,4.7,3.5S162.7,574.5,162.8,574.8z"/>
<path class="st17" d="M161.3,573.5c3.4,5.8,4,13,1.4,19.3c-2.4,6.1-2.7,13.7-2.4,19.3c-3.1-1.8-6.3-3.7-9.4-5.6
	c-3.8-2.3-7.6-4.6-11.4-7c-5-3.1-10-6.3-14.9-9.6l-2.3-1.6l-0.9-0.6c-0.1-0.1-0.2-0.3-0.3-0.4c-1.3-1.4-9.1-12.6-13.8-21.1
	c-0.8-1.6-1.6-3-2.1-4.3v-0.1c-1-2.2-1.5-4-1.2-4.8c0.7-2.6,2.5-4.7,4.9-6c5.8-3,15-0.2,24.1,4.2c7.9,4,15.4,8.6,22.5,13.7l0.8,0.6
	l0.1,0.1c3,2.1,4.7,3.5,4.7,3.5S161.1,573.2,161.3,573.5z"/>
<path class="st16" d="M198.1,597.8c-0.3,1.7-0.8,3.4-1.4,5c-1.1,2.9-1.9,5.9-2.3,9l0,0c-0.8,6.5-0.8,13.1,0.1,19.7
	c-11.1-5.8-22-11.8-32.7-18.1c-3.1-1.8-6.3-3.7-9.4-5.5c-0.7-5.3-1.7-10-2.8-11.2c-1.5-1.6-9.9-13.6-15.2-23.2
	c-0.7-1.2-1.3-2.4-1.8-3.5l0,0c-0.2-0.4-0.4-0.9-0.6-1.3c-1.4-2.9-2.1-5.2-1.7-6.3c0.7-2.4,2.1-4.5,4.1-5.9
	c8.9-6.5,27.3,2.3,41.5,11l0.4,0.2c2.7,1.7,5.2,3.3,7.5,4.9l1.3,0.9c5.9,4,9.8,7.1,9.8,7.1c1,1.5,1.7,3.1,2.3,4.8
	c0.3,0.9,0.6,1.9,0.8,2.9C198.7,591.4,198.7,594.6,198.1,597.8z"/>
<path class="st3" d="M108.8,567.5c7.3,2.5,18,5.9,23.8,6c0.6,0,1.2,0,1.8-0.1l0,0c4.1-0.6,16.8,0.3,28.4,1.4
	c4.7,0.4,9.1,0.8,12.9,1.2l9.3,1v-3.6c-2.6-1.8-5.6-3.8-8.8-5.8c-14.2-8.8-32.9-17.8-41.8-11.2c-12.6-6.1-25.4-9-29,1.8
	C104.9,559.7,106.5,563.2,108.8,567.5z"/>
<path class="st18" d="M73.8,483.7c0.2,5.4,2.2,19.4,16.7,33.5c18.5,18,10.6,43.9,10.6,43.9s22,8.6,31.5,8.9c0.6,0,1.2,0,1.8-0.1
	c5.7-0.8,28.3,1.3,41.3,2.6l9.3,1V497L83.1,472.2l-9.2,9.2C73.8,482.1,73.8,482.9,73.8,483.7z"/>
<path class="st19" d="M110,558.7"/>
<g class="st10">
	<path d="M183.4,572.5l1.7,0.2v0.8l-9.3-1c-9.3-0.9-23.6-2.3-33-2.7C149.2,569.3,170.8,571.2,183.4,572.5z"/>
	<path d="M73.9,481.4l9.2-9.2l6.2,1.5l-7.7,7.7c0,0.8,0,1.5,0,2.3c0.2,5.4,2.2,19.4,16.7,33.5c18.5,18,10.6,43.9,10.6,43.9
		s18.2,7.2,28.6,8.6c-1,0-2,0.1-3,0.2c-0.6,0.1-1.2,0.1-1.8,0.1c-9.5-0.2-31.5-8.9-31.5-8.9s7.9-25.9-10.6-43.9
		C76,503.1,74,489.1,73.8,483.8C73.8,483,73.8,482.2,73.9,481.4z"/>
</g>
<path class="st16" d="M277.6,429.6c0,0,30.8-21.4,33.1-2.1S277.6,444,277.6,444V429.6z"/>
<path class="st20" d="M224.4,415.5c0,0,16.7,11,25.9,10.4c0,0,25.2,3.4,28.1,1.7s4.7,24.4,4.7,24.4l-41.4-2.9l-26.6-4
	c0,0-13.3-8.1-13.3-15.1S224.4,415.5,224.4,415.5z"/>
<path class="st12" d="M224.4,415.5c0,0,16.7,11,25.9,10.4c0,0,25.2,3.4,28.1,1.7s4.7,24.4,4.7,24.4l-41.4-2.9l-26.6-4
	c0,0-13.3-8.1-13.3-15.1S224.4,415.5,224.4,415.5z"/>
<path class="st16" d="M248.8,471.1c0,0,37.5-1.5,29.1,15.9s-36.8-3.7-36.8-3.7L248.8,471.1z"/>
<path class="st18" d="M211.1,433.9c0,0,30.4-22.7,26.1-50.4s-26.1,21.2-26.1,21.2V433.9z"/>
<path class="st16" d="M219.6,308.4c0,10,3.9,19.5,10.8,26.7c3.7,3.9,8.2,6.9,13.2,8.9c1.6,0.7,3.3,1.2,4.9,1.6
	c1.8,0.5,3.6,0.8,5.5,1c1.3,0.1,2.6,0.2,4,0.2c4.3,0,8.6-0.7,12.6-2.2c20-7,30.6-28.8,23.7-48.9c-7-20-28.8-30.6-48.9-23.7
	C229.9,277.5,219.5,292.1,219.6,308.4z"/>
<path class="st3" d="M73.8,483.7c3.4,0.6,7.7,1.8,7.7,3.6c0,3,48,19.2,48,19.2s-1.8,4.2,3,11.4c4.8,7.2,43.8,48.6,43.8,48.6
	l-0.1,1.2l-0.5,4.8l-2.4,22.8c0,0,15-5.4,19.8-4.8c1.6,0.2,3.2-0.8,4.8-2.2c-0.6-2.7-1.6-5.3-3.1-7.7c0,0-3.9-3.1-9.8-7.1V497
	L83.1,472.2l-9.2,9.2C73.8,482.1,73.8,482.9,73.8,483.7z"/>
<path class="st8" d="M69.5,479.5c0,0,12,1.2,12,4.2s48,19.2,48,19.2s-1.8,4.2,3,11.4s43.8,48.6,43.8,48.6l-3,28.8
	c0,0,15-5.4,19.8-4.8c2.1,0.3,4.5-1.7,6.5-4c1.6-1.9,3.1-4,4.3-6.2c0,0-5.4-22.8,1.8-28.2s-7.8-45-7.8-45s-6.8-28.2-4.8-40.2
	c0.1-0.8,0.3-1.6,0.6-2.4c0-0.1,0.1-0.2,0.1-0.3c4.3-11.5,50.3-108.4,50.3-108.4c0-2.7-0.2-5.5-0.6-8.2c-0.1-0.8-0.2-1.5-0.4-2.3
	c-0.2-1.4-0.5-2.9-0.9-4.3c-0.3-0.9-0.5-1.8-0.9-2.6c-1.4-3.7-3.6-6.5-6.9-6.5c0,0-3.6-4-12-5.1c-6.2-0.8-15,0-27,5.1
	c-28.2,12-34.8,12.6-34.8,12.6l-14.2,18.6l-2.9,3.8c-10.7,13.9-20.3,28.6-28.9,43.9c-4.7,8.5-11.4,18.4-19.4,24.3
	C79.1,443.5,69.5,479.5,69.5,479.5z"/>
<path class="st3" d="M174.7,410.1c0,0-40.1,9.9-55.6,34.9L174.7,410.1z"/>
<path class="st3" d="M162.3,453.9c0,0-7.6,50.9-5.5,54.7S162.3,453.9,162.3,453.9z"/>
<path class="st3" d="M165,480c2.9,3.8,14.8,33.3,14.8,33.3l-3.4,49.5l-3,28.8c0,0,15-5.4,19.8-4.8c2.1,0.3,4.5-1.7,6.5-4
	c-3.1-16.9-9.8-52.2-11-52.8c-1.6-0.9-9.7-29.3-10.1-37.1s-11.7-25.6-11.7-25.6S162.1,476.2,165,480z"/>
<path class="st3" d="M176.3,431.4c0.7,2.3,1.9,15.3,1.9,15.3c0.8,11.5,9.5,15.3,14.9,16.5c0.1-0.8,0.3-1.6,0.6-2.4
	c3.6-10.2,50.4-108.6,50.4-108.6c0-5-0.7-10-1.9-14.8c-10.2-3-26.3,1.6-26.3,1.6c-4.7-0.6-19.9,29.6-19.9,29.6s-10.1,23.2-11.3,26.3
	s0,8.3-0.4,10.1s-5.2,3.4-5.9,5.9s-0.2,7.4-0.7,8.3S175.6,429.2,176.3,431.4z"/>
<path class="st8" d="M179.9,429.6c0.7,2.3,1.9,15.3,1.9,15.3c0.7,9.6,6.8,13.8,12,15.6c2.3,0.8,4.7,1.3,7.2,1.4l7.2,6.3l33.4,24.7
	c0,0,12.5-23,9.1-23.2s-22.9-16.5-22.9-16.5c-6-3.2-11.9-13.8-14.7-19.3c0.2-0.7,0.3-1.3,0.4-2c1.2-10.2,26.4-49.2,26.4-49.2
	s9.7-11.5,13.5-32.7c0.1-0.5,0.2-1,0.3-1.5c0.1-0.7,0.2-1.3,0.2-2c0.5-8.2-5.5-11.1-12.5-11.9l0,0c-3.7-0.3-7.4-0.2-11,0.3
	s-7.3,1.2-10.8,2.1c-3-0.4-10.5,12.2-15.3,21l0,0c-2.6,4.8-4.5,8.6-4.5,8.6s-10.2,23.2-11.3,26.3s0,8.3-0.4,10.1s-5.2,3.4-5.9,5.9
	s-0.2,7.4-0.7,8.3S179.2,427.4,179.9,429.6z"/>
<path class="st3" d="M141.2,377.8c6.3,6.5,16.7,6.5,24.9,3.2s15.3-9.4,22.9-14c5-3,10.2-5.5,15.1-8.7l0,0c0.7-0.5,1.4-0.9,2.1-1.4
	c5.7-4,10.6-9.1,16.4-12.8c3.9-2.6,8.5-4.1,13.2-4.2c2.2,0,4.3,0.4,6.3,1.3c0.3,0.1,0.7,0.3,1,0.5c1.9,1.1,3.7,2.5,5.3,4
	s3.2,3.1,5,4.5c0.1-0.5,0.2-1,0.3-1.5c0.1-0.7,0.2-1.3,0.2-2c1.3,0.1,2.6,0.2,4,0.2c4.3,0,8.6-0.8,12.6-2.2c0-0.2,0.1-0.3,0.1-0.5
	c1.4-7.6,4-15.6,10.1-19.8c3.5-2.5,9.2-3.5,14-5.4c5.9-20.4-5.9-41.7-26.3-47.5c-20.4-5.9-41.7,5.9-47.5,26.3
	c-2.4,8.4-1.9,17.3,1.5,25.4c-6.2-0.8-15,0-27,5.1c-28.2,12-34.8,12.6-34.8,12.6l-14.1,18.6c1.5,2.3,3.3,4.6,3.4,7.4
	C150.3,371.9,145.4,375.4,141.2,377.8z"/>
<path class="st21" d="M280.8,320.8c-6.1,4.3-8.7,12.3-10.1,19.8c-0.5,2.4-0.9,4.9-2.3,6.7c-3.2,4.2-9.7,3-14,0s-7.5-7.6-12.3-9.7
	c-6.3-2.8-13.6-0.8-19.5,2.9s-10.8,8.8-16.4,12.8c-5.5,3.9-11.6,6.6-17.3,10.1c-7.7,4.7-14.7,10.7-22.9,14s-18.6,3.3-24.9-3.2
	c4.3-2.4,9.1-5.9,8.8-10.9s-6.2-8.8-5.8-14s6.5-7.2,10.9-9.8c9.1-5.3,13-17,15-27.8c1.5-8.4,2.8-17.9,9.1-23.3
	c4.1-3.5,9.6-4.6,13.7-8.1c3.9-3.3,6-8.3,8.5-12.8c4.1-7.6,9.4-14.7,16.5-19.3s16.1-6.3,23.8-3.3c3,1.2,5.7,3,8.6,4.3
	c7.3,3.2,15.7,2.7,22.9,6.1c8.9,4.1,14.7,13.2,20,21.8c4.5,7.4,13.4,20.4,10.9,29.9C301.5,316.7,287.4,316.1,280.8,320.8z"/>
<g class="st10">
	<path d="M144.2,348.6c0-0.4,0.1-0.8,0.2-1.2c1.6,2.5,3.6,5,3.8,8c0,0.7,0,1.4-0.2,2C146.2,354.6,143.9,351.9,144.2,348.6z"/>
	<path d="M164.3,369.6c8.3-3.3,15.3-9.4,22.9-14c5.7-3.5,11.8-6.2,17.3-10.1c5.7-4,10.6-9.1,16.4-12.8s13.2-5.7,19.5-2.9
		c4.7,2.1,8,6.6,12.3,9.7s10.7,4.2,14,0c1.5-1.9,1.9-4.4,2.3-6.7c1.4-7.6,4-15.6,10.1-19.8c6.6-4.6,20.6-4.1,23.2-13.9
		c0.4-1.7,0.5-3.5,0.3-5.3c1.6,4.3,2.5,8.7,1.5,12.5c-2.5,9.8-16.6,9.2-23.2,13.9c-6.1,4.3-8.7,12.3-10.1,19.8
		c-0.5,2.4-0.9,4.9-2.3,6.7c-3.2,4.2-9.7,3-14,0s-7.5-7.6-12.3-9.7c-6.3-2.8-13.6-0.8-19.5,2.9s-10.8,8.8-16.4,12.8
		c-5.5,3.9-11.6,6.6-17.3,10.1c-7.7,4.7-14.7,10.7-22.9,14s-18.6,3.3-24.9-3.2c1.6-0.9,3.2-1.9,4.6-3.1
		C151.6,372.6,158.5,371.9,164.3,369.6z"/>
</g>
<path class="st22" d="M815.6,271.4l-41-41.2c-8.4-8.6-22.2-8.7-30.8-0.3l-0.1,0.1L486.2,485.2L377.3,375.5
	c-8.4-8.5-22.2-8.6-30.7-0.2l-41.4,41c-8.5,8.5-8.6,22.3-0.2,30.9l165.3,166.6c8.5,8.5,22.3,8.6,30.9,0.2l314.1-311.8
	c8.6-8.4,8.8-22.2,0.4-30.8C815.6,271.5,815.6,271.4,815.6,271.4z"/>
<g class="st23">
	<path class="st12" d="M753.8,602c0,0-30.6-1.8-27,19.6c-0.4,2.2,0.7,4.4,2.7,5.5c0,0,0-1.6,3.1-1c1.1,0.2,2.2,0.2,3.3,0.2
		c1.5-0.1,2.9-0.7,4.1-1.7l0,0c0,0,8.6-3.5,11.9-17.6c0,0,2.5-3.1,2.4-3.8l-5.2,2.2c0,0,1.8,3.7,0.4,6.8c0,0-0.2-6.7-1.2-6.5
		c-0.2,0-2.7,1.3-2.7,1.3s3,6.5,0.7,11.2c0,0,0.9-8-1.7-10.7l-3.6,2.1c0,0,3.5,6.7,1.1,12.2c0,0,0.6-8.4-1.9-11.6l-3.3,2.6
		c0,0,3.3,6.6,1.3,11.1c0,0-0.3-9.8-2-10.5c0,0-2.9,2.5-3.3,3.6c0,0,2.3,4.8,0.9,7.3c0,0-0.9-6.5-1.6-6.5c0,0-2.9,4.3-3.2,7.3
		c0.1-2.7,1-5.4,2.5-7.7c-1.7,0.3-3.2,1.1-4.4,2.3c0,0,0.4-3,5.1-3.3c0,0,2.4-3.3,3-3.5c0,0-4.6-0.4-7.4,0.9c0,0,2.5-2.9,8.3-1.6
		l3.3-2.7c0,0-6.1-0.8-8.7,0.1c0,0,3-2.5,9.6-0.7l3.5-2.1c0,0-5.2-1.1-8.3-0.7c0,0,3.3-1.8,9.3,0.2l2.5-1.1c0,0-3.8-0.8-4.9-0.9
		s-1.2-0.4-1.2-0.4c2.4-0.4,4.9-0.1,7.2,0.8C748.5,604.4,753.9,602.4,753.8,602z"/>
</g>
<g class="st23">
	<path class="st12" d="M698.9,452.4c0,0-15.5,26.4,5.2,32.9c1.8,1.3,4.3,1.4,6.1,0.1c0,0-1.4-0.8,0.5-3.3c0.7-0.9,1.2-1.9,1.7-2.9
		c0.6-1.4,0.7-2.9,0.3-4.4l0,0c0,0,0.7-9.3-10.3-18.6c0,0-1.6-3.6-2.3-3.9l-0.4,5.6c0,0,4.1,0.1,6.2,2.8c0,0-6-2.9-6.3-1.9
		c-0.1,0.2-0.1,3-0.1,3s7.2,0.2,10.3,4.4c0,0-6.7-4.4-10.3-3.4l0.2,4.2c0,0,7.6-0.1,11.4,4.5c0,0-7.2-4.4-11.2-3.6l0.8,4.1
		c0,0,7.4,0,10.5,3.9c0,0-8.8-4.2-10.3-3c0,0,1,3.7,1.7,4.6c0,0,5.3,0.1,6.9,2.5c0,0-6.2-2.2-6.5-1.6c0,0,2.5,4.5,5,6.1
		c-2.4-1.4-4.3-3.3-5.7-5.7c-0.5,1.6-0.5,3.4,0,5c0,0-2.5-1.8-0.6-6c0,0-1.8-3.6-1.7-4.3c0,0-2.4,4-2.6,7c0,0-1.4-3.5,2.4-8.1
		l-0.9-4.1c0,0-3.5,5.1-3.9,7.8c0,0-0.9-3.8,3.7-8.8l-0.3-4.1c0,0-3.4,4.1-4.4,7.1c0,0-0.1-3.7,4.4-8.3l0.1-2.8c0,0-2.4,3.1-3,4
		s-0.9,0.8-0.9,0.8c0.7-2.3,2.1-4.4,4-6C698.5,458.2,699.3,452.4,698.9,452.4z"/>
</g>
<g class="st23">
	<path class="st12" d="M601.8,241.6c0,0-15.5,26.4,5.2,32.9c1.8,1.4,4.3,1.4,6.1,0.1c0,0-1.4-0.8,0.5-3.3c0.7-0.9,1.2-1.9,1.7-2.9
		c0.6-1.4,0.7-2.9,0.3-4.4l0,0c0,0,0.7-9.3-10.3-18.6c0,0-1.6-3.6-2.3-3.9l-0.4,5.6c0,0,4.1,0.1,6.2,2.8c0,0-6-2.9-6.3-1.9
		c-0.1,0.2-0.1,3-0.1,3s7.2,0.2,10.3,4.4c0,0-6.7-4.4-10.3-3.4l0.3,4.2c0,0,7.6-0.1,11.3,4.5c0,0-7.2-4.4-11.2-3.6l0.8,4.1
		c0,0,7.4,0,10.5,3.9c0,0-8.8-4.2-10.3-3c0,0,1,3.7,1.7,4.6c0,0,5.3,0.1,6.9,2.5c0,0-6.2-2.2-6.5-1.6c0,0,2.5,4.5,5,6.1
		c-2.4-1.4-4.3-3.3-5.7-5.7c-0.5,1.6-0.5,3.3,0,4.9c0,0-2.5-1.8-0.6-6c0,0-1.8-3.6-1.7-4.3c0,0-2.4,4-2.6,7c0,0-1.4-3.5,2.4-8.1
		l-0.9-4.1c0,0-3.5,5.1-3.9,7.8c0,0-0.9-3.8,3.7-8.8l-0.3-4.1c0,0-3.4,4.1-4.4,7.1c0,0-0.1-3.7,4.4-8.2l0.1-2.8c0,0-2.4,3.1-3,4
		s-0.9,0.9-0.9,0.9c0.8-2.3,2.1-4.4,4-6C601.5,247.4,602.1,241.8,601.8,241.6z"/>
</g>
<g class="st23">
	<path class="st12" d="M267.4,41.6c0,0-57.8,42-19.5,75.3c0,0,4.3,7.9,13.1,5.9c0,0-2.3-2.9,4.1-6.5c2.3-1.3,4.3-2.9,6.2-4.6
		c2.5-2.4,4.2-5.6,4.8-9l0,0c0,0,10.2-19.1-4.6-49.4c0,0-0.1-9.2-1.4-10.5l-6,11.6c0,0,8.7,4.1,10.8,11.7c0,0-10.2-11.8-11.8-10
		c-0.3,0.4-2.9,6.3-2.9,6.3s15.1,7.2,18,19.1c0,0-10.3-15.7-19-16.8l-3.4,9.2c0,0,16.3,6.8,20.1,20.2c0,0-11.3-16-20.7-18.1
		l-2.1,9.5c0,0,15.8,6.9,18.9,18.1c0,0-15-17.2-19.2-15.9c0,0-1.4,8.8-0.7,11.4c0,0,11.2,5.3,12.4,11.9c0,0-11.2-10.4-12.5-9.4
		c0,0,1.2,12,5.1,17.8c0,0-6.3-8.1-6.9-17.5c0,0-4.3,5-4.5,10.6c0,0-3.7-6.1,4.3-13.5c0,0-0.6-9.4,0.3-10.7c0,0-8.9,6.2-12.1,12.6
		c0,0,0.2-8.8,12.6-15.1l1.9-9.6c0,0-12.2,7.5-15.5,13c0,0,1.6-9,16.2-15.4l3.2-9.1c0,0-11,5.7-16,11c0,0,3.3-8,17-13.6l2.9-5.8
		c0,0-8,4.3-10.1,5.7s-2.8,1-2.8,1c3.7-4.3,8.6-7.5,14.1-9.2C261.3,53.7,268.1,42,267.4,41.6z"/>
</g>
<g class="st23">
	<path class="st12" d="M211.3,180.1c0,0-74.8-31.4-84.6,25.3c0,0-5.1,8.8,2,16.1c0,0,1.5-3.9,8.8,0.1c2.6,1.4,5.3,2.5,8.2,3.3
		c3.8,1.1,7.9,0.8,11.6-0.6l0,0c0,0,24.6-1.3,45.3-33.5c0,0,8.9-5.5,9.3-7.5l-14.8,1c0,0,1.1,10.9-5,17.4c0,0,5.4-16.8,2.8-17.3
		c-0.5-0.1-7.8,0.9-7.8,0.9s1.9,18.9-8,28.6c0,0,9.2-19.2,5.2-28.3l-10.9,2.1c0,0,3,19.9-7.8,31.4c0,0,8.9-20.4,5.5-30.8l-10.5,3.5
		c0,0,2.5,19.4-6.5,29c0,0,7.9-24.6,4.2-28c0,0-9.4,3.8-11.4,6c0,0,1.5,14-4.3,19c0,0,3.5-17,1.8-17.7c0,0-10.9,8.2-14.3,15.4
		c0,0,4.2-10.9,12.9-17c0,0-7.3-1.3-13,1.8c0,0,3.8-7.2,15.6-3.8c0,0,8.8-6.1,10.6-6c0,0-11.2-5-19.3-4.4c0,0,8.7-5,22.1,3.4
		l10.4-3.8c0,0-14.5-7.4-21.8-7.4c0,0,9.7-3.7,24.5,6.7l10.7-2.2c0,0-12-7.4-20.1-9c0,0,9.7-1.5,23.2,8.5l7.3-0.6
		c0,0-8.9-5.2-11.5-6.5c-2.7-1.3-2.6-2.1-2.6-2.1c6.4,1.1,12.3,4,17.2,8.3C196,181.4,211.2,181.1,211.3,180.1z"/>
</g>
<g class="st23">
	<path class="st12" d="M166.5,100.8c0,0-26.5-61.3-64.6-33.2c0,0-8.1,2.3-8,10.7c0,0,3.1-1.5,5.1,5.1c0.7,2.3,1.7,4.5,3,6.6
		c1.7,2.8,4.2,5,7.3,6.3l0,0c0,0,15.4,13.2,46,5.9c0,0,8.4,1.8,9.8,0.8l-9.4-7.9c0,0-5.5,7.1-12.9,7.4c0,0,12.8-6.9,11.5-8.7
		c-0.3-0.4-5.1-3.9-5.1-3.9s-9.6,12.3-21,12.5c0,0,16.4-6.2,19.2-13.9l-7.7-5c0,0-9.7,13.5-22.7,14.2c0,0,16.9-7.1,20.8-15.2
		l-8.2-3.8c0,0-9.6,13-20.4,13.5c0,0,18.7-10.1,18.4-14.3c0,0-7.8-3.1-10.2-2.9c0,0-7.1,9.1-13.4,8.9c0,0,11.8-8.1,11.1-9.5
		c0,0-11.2-1.3-17.2,1c0,0,8.7-4.1,17.4-2.7c0,0-3.6-4.9-8.8-6.3c0,0,6.4-2.1,11.5,6.6c0,0,8.7,1.4,9.7,2.4c0,0-3.8-9.4-9-13.6
		c0,0,8,2,11.2,14.6l8.4,3.7c0,0-4.4-12.7-8.7-16.8c0,0,7.9,3.3,10.8,17.9L148,86c0,0-2.9-11.2-6.8-16.8c0,0,6.6,4.6,8.9,18.3
		l4.7,3.8c0,0-2.3-8.1-3.2-10.4s-0.3-2.7-0.3-2.7c3.2,4.3,5.1,9.4,5.5,14.7C156.7,92.9,165.9,101.3,166.5,100.8z"/>
</g>
<g class="st23">
	<path class="st12" d="M683.2,132.6c0,0-6.3-30-26-20.9c-2.3,0.2-4.1,1.9-4.6,4.1c0,0,1.5-0.4,1.8,2.8c0.1,1.1,0.3,2.2,0.7,3.3
		c0.5,1.4,1.4,2.6,2.7,3.5l0,0c0,0,5.7,7.4,20.1,6.9c0,0,3.6,1.6,4.3,1.3l-3.5-4.4c0,0-3.1,2.7-6.5,2.1c0,0,6.4-1.9,6-2.8
		c-0.1-0.2-2-2.2-2-2.2s-5.5,4.6-10.6,3.7c0,0,7.9-1.3,9.9-4.4l-3-2.9c0,0-5.5,5.2-11.4,4.3c0,0,8.3-1.6,10.7-4.9l-3.3-2.5
		c0,0-5.5,4.9-10.4,4.2c0,0,9.3-2.8,9.6-4.7c0,0-3.2-2.1-4.3-2.3c0,0-4,3.5-6.8,2.8c0,0,6-2.5,5.9-3.2c0,0-4.9-1.6-7.8-1.1
		c2.7-0.6,5.4-0.5,8,0.4c-0.7-1.5-1.9-2.8-3.3-3.6c0,0,3.1-0.4,4.5,4c0,0,3.8,1.4,4.1,2c0,0-0.8-4.6-2.8-7c0,0,3.4,1.6,3.7,7.6
		l3.4,2.4c0,0-0.8-6.1-2.4-8.4c0,0,3.2,2.2,3.2,9l3,2.9c0,0-0.3-5.3-1.5-8.2c0,0,2.5,2.7,2.3,9l1.8,2.1c0,0-0.3-3.9-0.5-5
		s0.1-1.3,0.1-1.3c1,2.2,1.4,4.7,1.1,7.1C679.5,128,682.9,132.8,683.2,132.6z"/>
</g>
<g class="st23">
	<path class="st12" d="M575.6,688.8c0,0-6.2-30-26-20.9c-2.3,0.2-4.1,1.9-4.6,4.1c0,0,1.5-0.4,1.8,2.8c0.1,1.1,0.3,2.2,0.7,3.3
		c0.5,1.4,1.4,2.6,2.7,3.5l0,0c0,0,5.7,7.4,20.1,6.9c0,0,3.6,1.6,4.3,1.3l-3.5-4.4c0,0-3.1,2.7-6.5,2.2c0,0,6.4-1.9,6-2.8
		c-0.1-0.2-2-2.3-2-2.3s-5.5,4.6-10.6,3.7c0,0,7.9-1.3,9.9-4.5l-3-3c0,0-5.5,5.2-11.4,4.3c0,0,8.3-1.6,10.7-4.9l-3.3-2.5
		c0,0-5.5,4.9-10.4,4.2c0,0,9.3-2.8,9.6-4.7c0,0-3.2-2.1-4.3-2.3c0,0-4,3.5-6.8,2.8c0,0,6-2.5,5.9-3.2c0,0-4.9-1.6-7.8-1.2
		c2.7-0.6,5.5-0.5,8.1,0.4c-0.7-1.5-1.9-2.8-3.3-3.6c0,0,3-0.4,4.5,4c0,0,3.8,1.4,4.1,2c0,0-0.8-4.6-2.8-7c0,0,3.4,1.6,3.7,7.6
		l3.4,2.4c0,0-0.8-6.1-2.4-8.4c0,0,3.2,2.2,3.2,9l3,2.9c0,0-0.3-5.3-1.5-8.2c0,0,2.6,2.7,2.3,9l1.8,2.2c0,0-0.3-3.9-0.5-5
		s0.1-1.2,0.1-1.2c1,2.2,1.4,4.7,1.1,7.1C572,684,575.3,688.9,575.6,688.8z"/>
</g>
</svg>
